<?xml version="1.0" standalone="no"?>
<!DOCTYPE svg PUBLIC "-//W3C//DTD SVG 20010904//EN"
 "http://www.w3.org/TR/2001/REC-SVG-20010904/DTD/svg10.dtd">
<svg version="1.0" xmlns="http://www.w3.org/2000/svg"
 width="512.000000pt" height="512.000000pt" viewBox="0 0 512.000000 512.000000"
 preserveAspectRatio="xMidYMid meet">
<metadata>
Created by potrace 1.11, written by Peter Selinger 2001-2013
</metadata>
<g transform="translate(0.000000,512.000000) scale(0.100000,-0.100000)"
fill="#000000" stroke="none">
<path d="M4056 4938 c3 -5 10 -6 15 -3 13 9 11 12 -6 12 -8 0 -12 -4 -9 -9z"/>
<path d="M3995 4921 c-3 -5 -2 -12 3 -15 5 -3 9 1 9 9 0 17 -3 19 -12 6z"/>
<path d="M2617 4894 c4 -12 3 -15 -5 -10 -8 5 -10 2 -6 -8 3 -9 10 -16 16 -16
5 0 7 -4 3 -9 -8 -14 15 -25 27 -13 7 7 4 14 -11 21 -11 6 -18 17 -15 25 3 8
1 17 -5 21 -7 4 -8 0 -4 -11z"/>
<path d="M876 4887 c3 -10 9 -15 12 -12 3 3 0 11 -7 18 -10 9 -11 8 -5 -6z"/>
<path d="M3945 4880 c-10 -11 -22 -17 -26 -14 -9 5 -13 -10 -9 -35 2 -13 0
-13 -16 0 -16 13 -16 12 -6 -8 7 -12 12 -28 11 -35 0 -7 -4 -3 -9 9 -7 17 -15
21 -32 17 -13 -3 -28 -6 -35 -6 -7 -1 -10 -5 -7 -10 3 -4 1 -8 -4 -8 -5 0 -9
-8 -9 -17 0 -14 3 -13 15 5 8 12 19 22 24 22 7 0 6 -5 -1 -13 -7 -9 -7 -17 -1
-23 10 -10 -7 -13 -70 -15 -21 -1 -22 -2 -7 -11 10 -5 15 -13 12 -19 -4 -5 -1
-9 4 -9 6 0 11 -5 11 -11 0 -6 -5 -7 -12 -2 -21 12 -48 14 -48 2 0 -6 -7 -8
-16 -5 -8 3 -12 2 -9 -4 3 -6 0 -10 -7 -10 -7 -1 -2 -7 11 -14 17 -9 20 -15
10 -18 -8 -3 -24 1 -36 9 -16 11 -23 11 -29 2 -4 -7 -3 -9 3 -6 5 3 9 -10 9
-33 0 -22 -3 -36 -6 -32 -9 14 -48 9 -43 -5 4 -10 9 -11 19 -2 21 17 17 1 -5
-22 -17 -18 -19 -18 -18 -3 1 9 -2 18 -8 20 -15 5 -41 -14 -31 -23 5 -4 11 -2
13 5 3 6 9 12 15 12 7 0 6 -5 -1 -14 -8 -10 -9 -16 -1 -21 15 -9 12 -26 -4
-23 -8 2 -15 0 -15 -4 -2 -23 0 -28 11 -22 7 5 8 3 3 -6 -6 -10 -11 -9 -22 6
-8 10 -21 17 -31 16 -13 -3 -14 -1 -3 11 9 12 9 17 0 23 -7 4 -9 3 -5 -4 3 -6
2 -13 -4 -17 -5 -3 -10 -1 -10 6 0 7 -3 9 -6 6 -4 -4 -2 -13 4 -20 7 -8 8 -18
4 -22 -4 -5 -2 -5 4 -2 6 3 11 0 11 -7 0 -9 -7 -12 -16 -8 -14 5 -14 3 -3 -10
10 -13 10 -18 1 -24 -7 -4 -9 -3 -5 4 3 6 2 13 -3 17 -5 3 -8 14 -6 25 2 12 0
18 -5 15 -4 -3 -7 -16 -5 -30 1 -15 -3 -25 -11 -25 -7 0 -11 -8 -9 -19 2 -11
-4 -26 -13 -33 -15 -12 -16 -11 -3 5 9 12 10 17 2 17 -7 0 -9 6 -6 13 4 6 -2
2 -13 -10 -11 -12 -23 -19 -27 -15 -5 4 -5 1 -1 -6 4 -7 11 -10 16 -7 11 7 7
-22 -5 -32 -4 -4 -5 -3 -2 3 9 15 -40 37 -49 22 -4 -6 -3 -8 3 -5 5 3 9 -11 9
-35 0 -22 -2 -36 -4 -29 -2 6 -8 11 -13 11 -6 0 -8 -4 -4 -9 3 -5 -4 -16 -15
-24 -11 -7 -18 -16 -15 -18 8 -9 -40 -4 -55 5 -10 6 -8 2 3 -12 11 -12 25 -18
35 -15 9 4 13 2 9 -4 -4 -6 -18 -10 -32 -10 -13 0 -22 3 -19 8 9 15 -5 10 -24
-8 -10 -10 -27 -23 -38 -30 -19 -12 -19 -12 0 -6 14 5 17 3 11 -7 -6 -9 -4
-11 6 -5 11 6 11 5 3 -4 -9 -10 -17 -10 -32 -2 -14 8 -23 8 -27 1 -4 -6 -3
-10 2 -9 4 1 15 1 23 0 13 -1 13 -3 0 -10 -8 -6 -18 -7 -23 -4 -5 3 -6 -4 -2
-17 5 -15 4 -20 -4 -16 -10 6 -15 -6 -12 -26 0 -5 -4 -8 -10 -8 -5 0 -8 -4 -5
-9 3 -5 -1 -12 -10 -15 -14 -5 -14 -9 -3 -24 13 -15 12 -16 -3 -3 -14 11 -21
11 -33 1 -8 -6 -14 -15 -13 -18 0 -4 0 -14 -1 -22 -1 -13 -2 -13 -11 0 -9 13
-12 12 -25 -4 -8 -11 -17 -17 -21 -14 -6 6 2 14 49 49 16 12 26 27 23 35 -3 8
-1 14 4 14 6 0 10 -6 10 -12 1 -8 7 -5 15 6 8 10 12 23 9 27 -3 5 0 9 5 9 6 0
11 7 11 15 0 12 -3 12 -18 -2 -12 -12 -14 -21 -8 -25 11 -8 9 -9 -24 -12 -8 0
-14 -7 -12 -15 5 -23 -18 -43 -35 -30 -11 10 -12 8 -7 -6 5 -13 4 -16 -4 -11
-7 4 -12 2 -12 -3 0 -6 -9 -20 -19 -30 -16 -16 -17 -20 -5 -25 10 -4 13 -2 8
7 -5 9 -3 8 7 -1 12 -11 12 -14 -1 -22 -10 -6 -20 -4 -31 6 -16 14 -19 13 -33
-9 -17 -25 -12 -62 7 -50 6 4 7 1 3 -6 -6 -9 -12 -9 -25 3 -21 19 -31 20 -31
4 0 -6 3 -8 7 -5 7 7 32 -22 33 -37 0 -6 -7 -1 -15 10 -8 10 -15 15 -15 10 0
-5 -6 -3 -14 3 -16 14 -32 -2 -20 -20 4 -7 1 -10 -7 -7 -8 3 -14 10 -14 15 0
6 -3 14 -7 18 -8 9 -5 -16 5 -31 7 -12 -1 -24 -15 -24 -5 0 -7 4 -3 9 3 5 1
12 -4 15 -5 4 -8 -2 -6 -11 2 -10 4 -18 5 -18 1 0 3 -12 5 -27 4 -28 -8 -37
-21 -16 -5 7 -3 8 6 3 9 -6 11 -4 6 4 -6 9 -12 8 -26 -4 -11 -10 -24 -14 -31
-9 -7 4 -10 3 -5 -4 3 -6 -3 -17 -14 -25 -18 -13 -19 -15 -5 -21 10 -4 14 -2
9 6 -4 7 -3 8 4 4 7 -4 12 -11 12 -17 0 -13 -34 -11 -50 4 -8 6 -5 0 8 -14 24
-28 28 -39 11 -39 -5 0 -8 4 -5 8 2 4 -4 13 -15 20 -15 10 -19 10 -17 0 2 -7
-3 -12 -10 -10 -9 2 -11 -2 -6 -10 12 -18 14 -39 4 -33 -9 6 -32 -19 -28 -31
2 -5 0 -10 -4 -12 -4 -1 -19 -14 -32 -27 -27 -27 -46 -32 -46 -13 0 6 -7 3
-15 -8 -17 -22 -20 -12 -4 19 10 21 10 21 -5 3 -19 -23 -20 -32 -6 -41 12 -7
4 -25 -11 -25 -6 0 -7 5 -4 10 3 6 1 10 -5 10 -6 0 -9 -8 -6 -17 3 -10 1 -25
-5 -33 -9 -13 -10 -13 -6 2 4 11 0 15 -11 14 -9 -2 -18 -8 -20 -14 -3 -9 -10
-9 -25 -1 -21 10 -21 10 -3 -5 18 -14 15 -20 -6 -17 -4 0 -4 -7 -1 -17 6 -15
5 -16 -13 -2 -15 11 -16 11 -6 0 13 -16 17 -34 4 -26 -4 2 -14 0 -22 -5 -11
-7 -7 -8 13 -5 15 3 27 0 27 -5 0 -8 -48 -14 -73 -10 -5 1 -6 -3 -3 -8 3 -5
-1 -12 -9 -15 -14 -5 -14 -9 0 -37 9 -17 12 -28 6 -25 -6 4 -21 0 -33 -8 -12
-9 -27 -16 -33 -16 -5 0 -4 4 4 9 9 6 5 9 -13 9 -30 0 -42 -13 -25 -24 8 -5 9
-3 4 6 -5 8 -3 11 5 8 8 -2 14 -14 15 -26 1 -11 -2 -19 -7 -16 -4 3 -8 1 -8
-5 0 -5 3 -11 8 -14 4 -2 1 -2 -6 0 -8 2 -16 -6 -19 -18 -4 -15 -8 -17 -14 -8
-10 17 -37 20 -46 6 -11 -18 -12 -38 -2 -31 5 3 6 11 3 17 -4 7 -4 9 1 5 4 -4
13 -4 19 2 8 6 12 2 13 -13 2 -17 0 -19 -7 -7 -9 13 -14 8 -11 -12 1 -11 -30
-2 -41 13 -8 11 -9 10 -4 -5 4 -10 1 -25 -6 -33 -9 -11 -9 -16 3 -24 9 -5 10
-9 2 -9 -6 0 -19 10 -27 22 -9 12 -16 18 -16 12 0 -5 8 -21 17 -34 9 -14 13
-22 8 -17 -5 4 -17 -1 -27 -10 -15 -14 -21 -14 -27 -4 -6 10 -10 9 -14 -3 -4
-9 -2 -16 3 -16 6 0 10 -8 10 -17 0 -11 -3 -14 -8 -7 -4 6 -15 13 -24 17 -25
9 -12 -18 15 -32 22 -11 22 -11 1 -6 -16 4 -28 -2 -42 -20 -16 -20 -21 -22
-26 -9 -3 8 -2 12 4 9 6 -3 10 -4 10 -1 0 3 -9 10 -19 15 -14 8 -22 7 -32 -7
-13 -16 -13 -16 5 -2 18 14 19 13 13 -2 -3 -10 -2 -20 3 -23 14 -9 12 -20 -7
-42 -10 -10 -14 -13 -10 -7 8 12 -7 54 -19 54 -2 0 0 -8 5 -19 10 -18 6 -31
-11 -31 -5 0 -7 4 -3 9 3 5 0 13 -6 17 -8 4 -9 3 -5 -5 4 -6 0 -14 -8 -17 -9
-3 -13 -11 -10 -16 4 -6 9 -6 14 2 5 8 9 7 13 -5 5 -11 3 -14 -5 -9 -8 5 -9 2
-5 -9 3 -9 2 -19 -4 -22 -5 -4 -9 -3 -8 2 3 19 -2 31 -16 37 -8 3 -14 2 -14
-2 3 -21 -2 -32 -13 -26 -7 5 -8 3 -2 -7 12 -21 15 -49 5 -49 -6 0 -13 5 -17
12 -4 7 -3 8 4 4 8 -5 10 -1 5 10 -4 10 -8 13 -10 7 -3 -7 -10 -11 -16 -9 -7
1 -9 1 -4 -1 20 -12 -9 -51 -43 -57 -8 -2 -7 -41 2 -53 6 -7 5 -14 -3 -19 -7
-4 -9 -3 -5 4 4 6 -4 17 -16 23 -28 15 -59 19 -52 7 4 -5 12 -7 19 -4 8 3 19
-2 26 -10 10 -12 9 -13 -5 -8 -12 5 -15 2 -10 -12 3 -11 2 -15 -3 -8 -4 6 -19
16 -33 23 -23 11 -24 11 -6 -3 23 -18 15 -48 -11 -40 -10 3 -4 -3 12 -15 17
-11 25 -21 20 -21 -6 0 -16 5 -23 12 -7 7 -12 8 -12 4 0 -5 -6 -3 -14 3 -11 9
-16 9 -22 0 -4 -8 -3 -9 5 -5 6 4 14 0 17 -8 3 -9 10 -13 15 -10 5 3 6 -3 2
-12 -4 -11 -8 -13 -11 -6 -2 7 -9 9 -14 6 -7 -5 -8 -2 -3 6 5 8 4 11 -3 6 -6
-3 -15 2 -21 11 -6 10 -11 13 -11 8 0 -6 5 -16 12 -23 6 -6 8 -15 4 -19 -4 -4
-11 -1 -16 7 -8 13 -11 13 -22 1 -11 -11 -11 -13 1 -6 9 5 12 3 9 -6 -3 -8
-11 -13 -17 -11 -7 1 -10 -2 -6 -8 3 -5 -10 -19 -29 -31 -20 -12 -36 -22 -36
-23 0 -1 9 -2 19 -2 11 0 17 4 15 8 -3 4 -1 8 4 8 11 0 25 -30 17 -38 -3 -3
-5 -1 -5 5 0 5 -7 10 -15 10 -9 0 -14 -6 -11 -14 3 -8 2 -12 -3 -8 -5 3 -11 2
-14 -2 -2 -5 -2 -3 -1 4 2 6 -3 14 -11 17 -10 4 -11 -2 -5 -25 9 -29 -3 -49
-16 -28 -5 8 -3 9 7 4 12 -8 12 -6 0 8 -7 9 -19 17 -25 17 -6 0 -4 -5 4 -10
12 -8 12 -10 1 -10 -8 0 -2 -11 15 -26 l29 -27 -39 22 c-22 13 -34 16 -28 8
12 -14 7 -27 -10 -27 -5 0 -7 4 -4 9 3 5 -2 15 -12 22 -15 13 -16 12 -3 -3 11
-15 11 -19 -4 -24 -15 -6 -14 -9 6 -20 23 -12 22 -13 -14 -10 -31 3 -36 1 -27
-9 6 -8 18 -11 26 -8 8 3 14 1 14 -4 0 -13 -32 -13 -50 1 -8 6 -6 0 5 -13 l20
-24 -24 13 c-19 10 -22 10 -16 -1 6 -9 3 -11 -9 -6 -10 4 -15 3 -11 -3 4 -6
-4 -14 -17 -19 -13 -6 -17 -10 -10 -10 7 -1 10 -5 7 -11 -3 -6 1 -7 9 -4 9 3
14 10 11 15 -3 4 3 13 14 18 14 8 20 7 25 -4 3 -8 0 -17 -6 -21 -7 -4 -8 -3
-4 4 4 7 1 12 -8 12 -9 0 -13 -7 -11 -19 3 -15 0 -18 -12 -14 -13 5 -15 2 -10
-11 4 -9 3 -15 -2 -11 -5 3 -12 1 -16 -5 -4 -6 -15 -4 -30 6 -18 11 -25 12
-31 3 -5 -8 -3 -9 6 -4 8 5 11 3 8 -6 -3 -8 -11 -13 -17 -11 -7 1 -9 -2 -6 -8
5 -8 13 -6 25 5 15 14 18 14 23 1 4 -10 1 -13 -7 -10 -8 3 -17 1 -21 -5 -3 -6
-14 -11 -25 -11 -10 0 -21 -7 -24 -16 -3 -8 -11 -12 -17 -8 -8 5 -9 3 -4 -6 6
-10 4 -12 -8 -7 -14 5 -15 3 -5 -18 6 -13 15 -22 21 -18 5 3 4 9 -3 13 -8 5
-8 10 -2 14 5 3 12 -1 16 -9 3 -8 1 -17 -5 -20 -5 -4 -7 -10 -5 -14 3 -4 -1
-8 -9 -8 -8 0 -12 4 -10 8 3 3 -2 12 -10 19 -8 7 -15 9 -15 4 0 -5 -5 -2 -11
6 -9 13 -10 13 -6 0 2 -8 9 -14 15 -13 6 2 10 -9 8 -25 -1 -15 -8 -26 -14 -24
-7 1 -15 -5 -18 -13 -4 -8 -11 -15 -16 -15 -6 0 -5 6 2 15 9 10 9 15 1 15 -6
0 -11 -5 -11 -11 0 -5 -5 -7 -12 -3 -7 5 -8 3 -3 -6 6 -10 4 -12 -8 -7 -9 3
-19 1 -23 -5 -4 -7 -3 -8 4 -4 7 4 12 2 12 -5 0 -8 4 -9 13 0 10 8 18 7 32 -3
15 -11 16 -13 1 -13 -9 0 -16 4 -16 9 0 5 -5 6 -10 3 -6 -4 -7 -12 -4 -18 5
-8 3 -8 -7 0 -22 22 -33 14 -13 -9 10 -12 14 -18 7 -15 -6 4 -13 4 -16 0 -2
-5 -2 -3 -1 4 2 6 -3 14 -10 16 -9 4 -11 -2 -8 -19 3 -16 -1 -26 -12 -30 -9
-3 -14 -10 -11 -14 6 -10 -24 -22 -36 -14 -5 3 -17 0 -26 -6 -17 -11 -17 -11
0 -6 12 4 16 2 11 -6 -5 -8 -2 -9 9 -5 9 3 19 1 23 -5 4 -7 3 -8 -5 -4 -7 5
-26 -7 -47 -28 -20 -20 -39 -36 -43 -36 -3 0 -14 -12 -25 -26 l-19 -26 24 6
c21 6 22 6 6 -4 -10 -7 -21 -9 -24 -6 -3 3 -14 1 -25 -5 -16 -9 -17 -13 -6
-27 12 -16 11 -16 -6 -2 -18 14 -18 13 -12 -10 4 -14 4 -20 -1 -13 -6 8 -12 8
-25 -1 -10 -7 -15 -15 -12 -18 2 -3 -2 -8 -11 -12 -12 -4 -14 -2 -6 13 13 23
-11 63 -24 41 -5 -8 -4 -11 2 -7 6 4 13 0 17 -8 3 -8 1 -15 -3 -15 -5 0 -8
-11 -7 -25 2 -14 -1 -22 -6 -18 -6 3 -8 -4 -4 -18 6 -24 6 -24 -5 -2 -8 15
-19 21 -33 18 -12 -2 -25 -4 -30 -4 -5 -1 -3 -7 3 -15 8 -10 9 -16 1 -21 -5
-3 -10 -12 -10 -18 0 -7 7 -4 15 6 7 11 11 26 8 34 -5 13 -3 13 16 1 17 -10
18 -14 6 -16 -16 -4 -20 -17 -7 -25 4 -2 2 -3 -5 -1 -17 4 -24 -8 -13 -21 7
-8 5 -12 -5 -12 -8 0 -12 4 -9 9 3 4 -2 8 -11 8 -9 0 -14 4 -11 8 3 5 -1 9 -9
9 -11 0 -9 -7 6 -29 11 -15 16 -28 10 -28 -6 0 -11 6 -11 13 -1 6 -7 1 -15
-13 -8 -14 -14 -19 -15 -12 0 7 -5 10 -12 6 -7 -4 -8 -3 -4 5 4 6 11 9 16 6
16 -10 18 24 2 37 -8 7 -13 8 -9 2 4 -7 -2 -22 -12 -35 -11 -14 -17 -36 -16
-54 2 -16 1 -24 -2 -17 -2 6 -9 12 -14 12 -6 0 -7 -5 -4 -10 3 -5 -1 -10 -9
-10 -10 0 -13 6 -10 15 4 8 1 15 -6 15 -6 0 -8 -5 -5 -10 3 -5 1 -10 -5 -10
-6 0 -8 -5 -4 -12 5 -8 2 -9 -10 -5 -10 4 -15 3 -11 -3 3 -5 -4 -14 -15 -20
-11 -6 -20 -18 -20 -26 0 -11 -5 -14 -17 -9 -13 4 -15 3 -7 -5 15 -15 44 -2
37 17 -5 13 -3 14 18 3 34 -18 37 -22 14 -18 -14 2 -19 -2 -17 -14 1 -9 -2
-19 -8 -23 -6 -3 -7 0 -4 9 3 9 1 16 -5 16 -6 0 -12 -4 -12 -10 -1 -5 -2 -14
-3 -19 0 -5 -5 -13 -10 -18 -5 -5 -6 -3 -2 5 8 13 -4 16 -20 4 -5 -4 -1 1 9
11 16 14 16 17 4 17 -8 0 -17 3 -20 8 -2 4 -2 1 0 -6 4 -16 -56 -102 -70 -102
-5 0 -4 7 3 15 7 8 9 15 4 15 -4 0 1 7 12 16 18 14 18 15 -4 4 -12 -6 -20 -15
-17 -21 4 -5 2 -9 -3 -9 -14 0 -24 -29 -15 -43 13 -21 11 -35 -4 -41 -8 -3
-12 -10 -8 -15 3 -5 0 -13 -6 -17 -8 -4 -9 -3 -5 4 4 7 2 12 -4 12 -7 0 -9 7
-6 17 4 10 4 14 0 10 -4 -4 -13 -2 -20 4 -8 7 -14 7 -19 -1 -4 -6 -1 -9 6 -8
6 2 14 -3 17 -11 3 -8 0 -11 -7 -7 -7 5 -11 -4 -12 -26 0 -27 -2 -29 -8 -13
-5 11 -7 23 -5 27 2 3 -6 4 -18 0 -16 -4 -18 -7 -7 -11 8 -3 14 -13 14 -21 0
-8 4 -19 10 -23 6 -5 3 -7 -8 -3 -9 3 -17 0 -17 -6 0 -6 -3 -8 -6 -5 -4 4 -1
13 5 21 10 12 8 17 -11 26 -21 10 -21 10 -6 -3 10 -8 15 -17 11 -20 -3 -4 -12
-2 -20 4 -10 9 -10 6 1 -16 8 -15 12 -34 9 -42 -6 -16 -39 -13 -36 3 1 6 -5
11 -12 11 -11 0 -12 -4 -3 -14 6 -7 8 -17 4 -20 -4 -4 -12 -1 -17 7 -9 13 -10
13 -6 0 2 -9 15 -15 31 -14 14 1 24 -1 21 -4 -2 -3 1 -12 8 -20 10 -13 9 -14
-3 -7 -8 5 -24 11 -35 12 -20 3 -20 2 0 -10 22 -13 26 -29 12 -44 -5 -4 -8 -3
-7 2 6 26 -1 33 -27 29 -16 -3 -32 -9 -37 -14 -5 -5 1 -6 15 -3 22 6 23 5 9
-11 -16 -20 -23 -49 -9 -40 5 3 9 0 9 -5 0 -6 5 -11 12 -11 6 0 8 3 5 7 -4 3
-2 12 4 20 8 9 8 13 1 13 -6 0 -10 9 -9 19 0 11 5 17 9 15 5 -3 6 -9 3 -14 -3
-5 -1 -11 5 -15 6 -4 8 -11 5 -16 -4 -5 -1 -9 6 -9 7 0 4 -7 -7 -16 -16 -13
-16 -15 -2 -10 11 3 17 0 15 -7 -1 -7 4 -11 11 -9 8 1 11 -2 7 -8 -5 -8 -11
-8 -20 0 -8 7 -20 8 -26 4 -8 -5 -10 -3 -4 7 5 8 5 11 0 7 -4 -4 -17 -2 -29 4
-20 10 -20 9 2 -11 12 -12 26 -20 31 -17 4 3 16 -3 26 -14 10 -11 15 -20 11
-20 -4 0 -2 -9 4 -20 6 -10 16 -18 23 -16 6 1 9 1 4 -1 -4 -3 3 -14 15 -25 13
-11 17 -16 9 -12 -9 4 -12 2 -9 -7 3 -8 12 -13 22 -11 20 4 21 -4 1 -12 -10
-3 -26 12 -49 47 -23 34 -42 53 -55 53 -11 0 -17 -4 -14 -9 3 -5 11 -6 17 -4
13 5 41 -31 32 -41 -4 -3 -13 3 -22 14 -14 18 -15 18 -4 -4 7 -14 17 -21 26
-18 14 5 40 -29 26 -37 -4 -2 -2 -2 5 -1 14 3 34 -19 37 -43 2 -10 8 -19 14
-19 7 -1 17 -2 23 -3 5 0 8 -5 5 -9 -2 -4 5 -9 17 -9 18 -2 16 1 -11 19 -33
21 -38 34 -8 22 9 -3 16 -10 16 -15 0 -5 7 -9 16 -9 11 0 14 -5 10 -16 -11
-28 11 -53 43 -49 23 3 31 -1 40 -22 6 -14 9 -28 6 -31 -3 -3 -5 -1 -5 4 0 6
-6 18 -13 28 -12 16 -13 16 -14 -4 -1 -11 2 -18 8 -15 12 8 11 -1 -2 -28 -8
-19 -8 -20 3 -7 16 18 48 25 48 10 0 -5 -6 -10 -14 -10 -8 0 -17 -7 -20 -16
-4 -11 2 -9 25 7 l31 22 -12 -23 c-8 -15 -8 -20 -1 -16 10 7 16 -6 12 -27 -1
-5 4 -5 10 -1 9 5 10 2 6 -9 -3 -10 -2 -17 2 -17 5 0 11 5 13 12 2 6 11 12 20
14 19 2 17 -23 -3 -38 -11 -7 -9 -8 6 -3 11 4 31 9 45 11 19 3 22 2 10 -6 -11
-7 -11 -10 -2 -10 7 0 10 -5 6 -11 -3 -6 -9 -7 -13 -3 -9 13 -31 16 -31 4 0
-6 6 -10 14 -10 15 0 29 -27 21 -39 -6 -10 33 -7 42 4 5 4 2 5 -6 0 -10 -6
-12 -4 -6 5 6 9 4 11 -5 5 -9 -6 -11 -4 -5 5 5 9 4 11 -3 6 -7 -4 -12 -2 -12
3 0 6 10 9 23 7 23 -3 26 -21 12 -61 -4 -12 -3 -15 2 -8 6 8 16 1 33 -25 30
-45 50 -66 55 -60 3 2 -4 14 -15 26 -11 12 -20 26 -20 32 0 5 -5 10 -11 10 -5
0 -7 5 -3 12 4 6 3 8 -3 5 -6 -4 -13 0 -17 8 -3 8 0 17 6 21 7 4 8 3 4 -4 -4
-7 -2 -12 3 -12 18 0 26 5 23 13 -1 5 2 6 8 2 8 -5 8 -11 0 -20 -13 -15 -4
-39 10 -30 5 3 11 1 15 -5 4 -6 11 -7 17 -4 7 4 8 2 4 -5 -6 -9 -11 -9 -22 0
-8 7 -14 7 -14 1 0 -28 64 -49 89 -29 14 10 14 10 3 -5 -9 -11 -10 -18 -2 -23
5 -3 10 0 10 7 0 7 9 4 22 -9 19 -19 20 -24 7 -39 -8 -10 -9 -15 -2 -11 6 4
13 1 16 -5 2 -7 8 -9 13 -5 5 4 3 12 -5 16 -9 6 -6 13 13 28 14 11 22 24 18
28 -4 5 -1 5 7 0 12 -7 11 -10 -2 -20 -20 -14 -12 -25 17 -25 17 0 18 -2 6
-10 -12 -8 -12 -10 -1 -10 11 0 11 -3 0 -17 -9 -11 -3 -9 15 5 20 15 33 19 40
12 5 -5 15 -10 20 -10 6 0 3 5 -7 11 -15 9 -16 13 -5 27 10 12 10 14 0 8 -6
-4 -12 -3 -12 3 0 10 -25 9 -36 -2 -4 -4 4 -7 17 -7 18 0 20 -3 10 -9 -9 -6
-21 -5 -32 2 -17 11 -17 12 -1 21 22 13 33 14 54 4 10 -5 19 -4 23 2 3 5 12
10 18 9 9 0 8 -2 -1 -6 -17 -7 -36 -43 -22 -43 5 0 10 7 10 15 0 18 11 19 30
3 12 -11 12 -10 2 3 -11 14 -9 17 12 17 16 0 23 -5 20 -13 -3 -7 -1 -15 4 -18
4 -3 8 10 7 29 -1 18 2 34 7 34 5 0 6 4 3 10 -3 5 -2 10 4 10 5 0 12 -6 15
-12 3 -7 4 -4 3 6 -1 13 6 22 23 27 14 4 20 7 13 8 -6 1 -19 4 -29 8 -12 4
-15 3 -10 -5 4 -7 -3 -16 -18 -23 -15 -7 -23 -18 -21 -30 3 -12 -2 -17 -15
-16 -23 1 -34 23 -18 33 7 4 8 3 4 -4 -4 -7 -1 -12 9 -12 9 0 14 4 10 9 -3 5
-1 12 5 16 6 4 8 10 5 15 -3 4 5 6 17 3 23 -4 23 -4 3 13 -17 14 -18 16 -2 10
12 -4 26 3 42 18 13 13 26 22 28 20 2 -3 10 3 18 13 12 15 12 16 -6 10 -20 -7
-20 -7 -1 8 17 13 22 13 42 0 24 -15 34 -11 34 15 0 19 33 53 43 45 4 -3 5 -2
2 2 -3 3 9 15 26 25 17 10 27 23 23 29 -4 7 -16 1 -31 -16 -14 -14 -28 -23
-32 -19 -3 4 0 9 7 11 6 3 12 9 12 14 0 6 -5 7 -12 3 -7 -4 -8 -3 -4 4 4 6 14
8 23 5 12 -5 14 -3 8 7 -5 9 -4 11 3 6 7 -4 13 -2 13 3 1 6 3 16 4 21 1 6 3
13 4 17 0 4 15 -6 33 -23 18 -16 27 -22 20 -13 -7 9 -8 19 -2 25 5 5 5 15 1
23 -6 9 -11 10 -15 2 -4 -6 -2 -11 4 -11 6 0 8 -5 4 -11 -5 -8 -9 -8 -14 2
-16 27 -15 32 8 35 12 2 22 -1 22 -8 0 -9 3 -9 11 -1 6 6 19 9 28 6 14 -4 14
-3 1 6 -8 6 -11 11 -6 11 5 0 1 10 -10 22 -10 13 -12 17 -4 11 17 -13 45 -12
57 2 4 4 2 5 -4 1 -8 -4 -13 -1 -13 8 0 9 6 13 14 10 8 -3 17 0 21 6 6 9 10 9
17 -1 7 -11 8 -9 6 5 -2 14 4 21 20 25 13 3 23 10 22 14 -1 5 6 14 16 21 15
12 14 13 -7 10 -13 -1 -26 -3 -28 -3 -2 -1 2 -8 9 -16 10 -12 10 -15 -4 -15
-18 0 -22 25 -6 35 6 4 8 16 5 28 -5 19 -5 20 5 5 16 -26 33 -23 19 3 -8 15
-8 19 0 15 6 -4 14 0 17 9 6 14 9 14 16 3 7 -9 8 -7 5 9 -5 22 -4 22 24 8 21
-12 27 -12 24 -2 -5 12 47 51 56 42 3 -2 6 8 7 22 1 15 -1 23 -5 19 -5 -4 -8
-13 -8 -19 0 -7 -9 -11 -19 -9 -10 2 -15 -1 -12 -7 11 -17 -31 -34 -52 -21
-14 9 -13 10 7 4 16 -4 21 -3 17 5 -5 7 -1 9 9 5 9 -4 15 -3 13 2 -1 5 10 21
25 36 17 17 25 33 21 45 -5 14 -4 15 4 3 6 -8 8 -19 4 -24 -3 -6 11 0 32 12
21 12 42 20 47 16 5 -3 9 -2 8 3 -3 19 2 34 10 29 5 -3 12 1 15 10 3 8 10 13
15 9 5 -3 13 0 17 6 5 8 3 9 -6 4 -10 -6 -12 -4 -7 9 4 9 3 15 -2 12 -5 -3 -8
5 -7 17 1 24 26 30 53 14 6 -4 15 -2 19 4 4 7 3 10 -2 6 -5 -3 -18 1 -29 9
-19 14 -19 14 5 12 17 -2 25 3 28 16 2 11 0 16 -7 11 -6 -3 -8 -12 -5 -18 4
-8 2 -7 -7 1 -12 11 -12 14 1 22 22 14 42 12 34 -2 -4 -7 7 0 23 15 22 21 32
25 36 15 4 -10 6 -10 6 0 1 7 5 10 11 7 6 -3 7 1 4 9 -8 20 -13 20 -36 -1 -18
-16 -18 -16 -12 0 3 9 10 17 16 17 5 0 6 5 2 12 -4 7 -3 8 4 4 12 -7 35 28 24
38 -3 4 1 4 11 0 18 -7 24 11 7 19 -6 3 -5 4 2 3 7 -2 13 -12 13 -23 0 -12 4
-25 8 -29 4 -5 5 -1 2 8 -4 9 -1 19 5 23 7 4 8 11 1 18 -6 8 -4 16 4 24 10 10
14 9 19 -3 3 -9 1 -12 -4 -9 -14 9 -12 -7 4 -28 12 -16 14 -16 20 -2 3 9 2 14
-3 11 -4 -3 -8 8 -9 24 0 17 4 30 9 30 6 0 8 -4 5 -8 -2 -4 0 -14 6 -22 8 -12
9 -12 4 2 -5 17 9 35 17 21 2 -5 3 -3 1 3 -3 15 34 36 49 27 8 -5 8 -2 -1 9
-9 11 -10 18 -2 23 5 3 10 15 10 25 0 13 5 17 15 14 11 -5 14 -1 9 12 -5 17
-4 17 12 -1 l17 -20 -7 20 c-13 35 -12 39 12 41 23 1 30 -10 12 -21 -6 -3 -10
-1 -10 4 0 6 -5 11 -11 11 -8 0 -8 -5 1 -15 17 -21 25 -19 38 10 8 18 8 26 0
31 -7 4 -8 3 -4 -4 5 -8 1 -10 -10 -5 -11 4 -13 8 -6 11 7 2 9 9 5 15 -3 6 4
3 18 -6 36 -26 44 -20 12 8 -15 13 -22 25 -15 25 6 0 12 -4 12 -9 0 -5 9 -11
19 -14 14 -3 18 -1 14 9 -3 8 -10 11 -16 7 -5 -3 -7 -1 -3 5 3 5 3 12 -1 15
-5 2 -2 2 4 1 7 -2 17 4 22 14 9 15 11 15 31 -3 13 -12 20 -14 18 -6 -2 7 3
16 11 19 9 3 11 0 6 -8 -6 -9 -4 -11 4 -6 9 6 8 13 -6 26 -18 18 -30 20 -49 8
-6 -4 -11 -1 -11 6 0 7 10 13 21 12 14 -1 21 5 20 16 -1 10 3 15 8 12 5 -3 7
-12 4 -20 -3 -7 -1 -16 3 -19 13 -8 20 30 9 51 -9 18 -8 18 5 2 18 -23 31 -23
23 -1 -6 15 -4 14 14 -2 16 -15 20 -16 15 -3 -4 9 -1 19 6 24 7 4 10 3 5 -4
-3 -6 -1 -14 6 -18 7 -4 10 -4 6 1 -10 10 11 37 23 29 5 -3 9 0 9 5 0 14 -13
14 -28 -1 -9 -9 -12 -9 -12 2 0 11 -3 11 -12 2 -15 -15 -28 -16 -28 -2 0 6 3
9 8 9 4 -1 10 0 15 1 4 1 10 3 15 4 16 2 57 52 55 66 -2 10 0 10 3 2 3 -6 11
-9 17 -5 7 4 5 -1 -3 -11 -21 -27 -20 -42 4 -43 19 -2 19 -1 3 8 -14 8 -16 14
-6 25 6 7 15 12 19 9 5 -3 12 0 16 6 5 8 3 9 -6 4 -10 -6 -12 -4 -7 9 6 14 3
17 -10 12 -15 -6 -16 -5 -5 6 15 15 49 -2 44 -22 -1 -6 2 -9 8 -5 8 5 8 11 0
20 -7 9 -6 16 5 25 8 7 15 18 15 25 0 18 25 26 40 12 9 -9 11 -9 7 -1 -4 7 0
15 8 18 8 3 15 9 14 13 -4 23 2 43 11 38 6 -3 10 -1 10 5 0 7 -8 9 -20 5 -13
-4 -20 -2 -20 6 0 7 3 9 6 6 11 -10 45 13 38 25 -4 6 -3 8 3 5 6 -4 13 -1 16
7 3 8 16 12 31 11 14 -2 26 1 26 6 0 5 5 9 11 9 5 0 8 -4 5 -8 -3 -5 1 -9 8
-9 7 0 13 6 13 13 0 12 -35 13 -55 0 -6 -3 -14 -1 -18 5 -4 8 -3 9 4 5 7 -4
12 -2 12 4 0 6 5 8 10 5 6 -3 11 -1 11 4 1 6 2 17 3 24 1 6 10 11 20 9 10 -2
16 1 13 5 -3 5 -1 15 5 23 8 12 9 12 5 -2 -4 -12 0 -16 13 -15 13 1 16 5 10
11 -16 16 -12 22 27 52 20 15 34 23 30 18 -3 -6 2 -15 12 -21 14 -9 18 -8 18
3 0 7 -4 11 -9 8 -4 -3 -8 2 -8 10 0 9 -6 16 -12 16 -7 0 -5 5 5 11 9 6 15 14
12 20 -4 5 -2 9 3 9 6 0 13 -7 16 -16 4 -10 2 -13 -6 -8 -7 5 -8 3 -3 -6 6 -9
4 -11 -5 -5 -8 5 -11 4 -6 -3 14 -23 36 -1 31 32 -4 23 -3 27 5 16 9 -14 14
-7 11 13 -1 4 8 3 19 -3 11 -6 17 -16 14 -22 -4 -7 -2 -8 5 -4 8 6 9 12 2 20
-6 7 -7 17 -3 21 4 5 2 5 -5 1 -6 -3 -15 -1 -19 6 -4 7 -4 10 1 6 4 -4 14 0
22 10 9 10 11 11 7 2 -7 -13 -5 -13 9 -1 14 11 17 11 17 0 1 -10 3 -9 10 3 6
10 19 14 32 12 22 -4 22 -4 2 5 -12 5 -24 17 -28 27 -5 14 -4 15 9 4 12 -10
18 -10 32 1 32 25 45 39 35 39 -5 0 -15 -7 -22 -15 -7 -8 -17 -12 -23 -8 -6 4
-7 1 -2 -7 5 -9 4 -11 -3 -6 -9 5 -8 12 1 27 6 10 13 15 15 9 2 -6 8 -7 13 -4
6 3 5 12 -3 22 -10 12 -10 14 0 8 11 -7 17 6 12 29 -1 5 2 6 7 2 11 -12 11
-30 -2 -40 -6 -5 -3 -7 8 -3 11 4 17 0 18 -12 0 -11 2 -12 6 -4 3 7 18 27 34
45 31 33 36 47 18 47 -5 0 -7 -5 -3 -12 5 -7 3 -8 -6 -3 -9 6 -11 4 -5 -5 6
-9 4 -11 -5 -5 -9 6 -11 4 -5 -5 5 -8 4 -11 -3 -6 -6 3 -14 1 -18 -5 -4 -8 -3
-9 4 -5 7 4 12 3 12 -2 0 -6 -7 -12 -15 -16 -24 -9 -18 22 10 46 13 11 22 25
19 29 -3 5 3 6 12 2 11 -4 15 -3 10 5 -3 6 -1 14 5 18 8 4 9 3 5 -4 -4 -7 -2
-12 4 -12 6 0 8 -6 4 -12 -6 -10 -4 -10 7 0 17 16 32 16 23 0 -4 -7 -3 -10 1
-5 13 11 17 47 5 47 -5 0 -14 -8 -19 -17 -9 -16 -10 -16 -11 -2 0 16 26 34 43
30 4 0 19 10 33 24 14 14 30 23 35 20 15 -10 10 2 -8 16 -14 12 -16 12 -8 0 5
-10 4 -12 -3 -7 -7 4 -12 2 -12 -5 0 -8 -4 -8 -15 1 -10 9 -15 9 -15 1 0 -6 5
-11 11 -11 5 0 7 -5 3 -11 -5 -8 -10 -6 -16 5 -11 20 -2 37 16 30 8 -3 21 4
29 16 l15 22 7 -21 c6 -21 25 -29 25 -11 0 6 -4 10 -10 10 -5 0 -10 5 -10 11
0 17 49 84 63 84 6 0 11 9 9 20 -2 17 -1 17 7 5 6 -8 11 -10 12 -5 1 6 3 15 4
20 2 6 3 14 4 19 0 5 9 2 18 -5 15 -12 16 -12 10 4 -4 12 -1 25 10 35 20 21
16 21 44 -3 l23 -20 -18 30 -19 30 21 -18 c20 -18 21 -18 37 12 9 18 20 29 24
26 5 -2 14 2 21 10 7 8 17 12 24 8 6 -3 8 -3 4 2 -4 4 -1 14 7 21 14 15 10 48
-5 39 -5 -3 -12 0 -16 6 -4 7 -3 9 4 5 6 -3 15 1 20 10 8 15 10 15 15 0 5 -11
3 -15 -5 -10 -6 4 -8 3 -5 -4 9 -13 42 -9 43 6 3 25 5 27 15 12 8 -12 9 -11 7
5 -2 12 2 19 10 17 6 -1 11 1 11 5 -5 32 5 50 34 63 17 8 35 13 40 12 17 -5 5
16 -15 27 -15 7 -16 10 -4 6 13 -4 17 -1 13 9 -4 11 1 13 23 11 26 -4 50 18
35 33 -3 3 -5 0 -5 -7 0 -7 -5 -9 -12 -5 -7 5 -8 3 -3 -7 7 -11 6 -12 -6 -3
-8 6 -25 10 -39 8 -18 -3 -21 -2 -10 5 8 5 17 8 21 5 4 -2 10 0 14 6 4 6 11 8
16 4 13 -7 41 15 33 27 -3 5 0 8 8 7 8 -2 12 5 10 21 -3 28 0 26 18 -8 10 -19
9 -22 -1 -16 -8 6 -10 4 -4 -5 6 -9 4 -11 -5 -5 -9 6 -11 4 -5 -5 5 -8 4 -11
-1 -7 -6 3 -11 -3 -11 -14 -1 -10 2 -19 8 -19 5 0 8 6 7 13 -2 6 5 11 14 11
11 -1 14 4 11 14 -4 10 -2 13 5 8 6 -3 4 7 -4 24 -19 38 -10 55 18 36 16 -11
25 -12 38 -4 16 10 16 13 3 26 -12 13 -12 17 4 34 16 18 18 18 24 1 7 -17 8
-16 8 2 1 14 4 16 9 7 11 -16 37 30 29 50 -3 9 4 15 20 16 13 1 22 -1 20 -6
-3 -4 5 -7 18 -7 13 0 21 3 18 8 -2 4 -11 7 -19 7 -9 0 -12 5 -8 12 4 6 3 9
-2 6 -5 -3 -18 -2 -29 3 -19 7 -19 8 -1 8 16 1 17 3 5 19 -13 16 -13 16 7 0
11 -10 24 -18 29 -18 4 0 1 8 -6 18 -13 16 -12 16 7 -1 18 -15 23 -16 33 -3 7
8 18 14 24 12 7 -1 9 -1 4 1 -4 3 -4 9 -1 14 4 6 11 6 19 -1 9 -8 15 -8 20 0
4 6 1 9 -6 8 -6 -2 -14 3 -17 11 -2 8 0 11 6 7 6 -3 14 -1 18 5 4 7 3 9 -3 6
-6 -4 -14 0 -17 8 -3 9 1 18 9 21 8 4 13 10 10 14 -3 5 4 6 15 3 11 -3 17 -9
14 -14 -3 -5 -10 -7 -15 -4 -5 4 -9 1 -9 -4 0 -16 15 -13 33 7 10 11 13 22 7
32 -11 17 -4 30 16 30 8 0 12 -5 9 -10 -4 -6 -12 -7 -18 -4 -7 4 -8 3 -4 -1
12 -14 37 -15 34 -2 -1 7 3 11 10 10 13 -3 6 27 -8 37 -4 3 0 12 9 20 14 13
15 12 9 -2 -3 -9 1 -22 9 -29 12 -10 13 -9 7 7 -6 17 -5 18 12 4 18 -15 19
-14 2 10 -23 33 -22 48 2 22 18 -22 38 -31 26 -13 -3 5 -1 12 5 16 6 4 8 11 4
16 -3 6 2 16 12 23 10 8 15 20 11 30 -6 15 -5 15 19 0 13 -9 27 -14 31 -10 3
3 1 6 -6 6 -7 0 -9 5 -6 10 4 6 10 8 15 5 5 -3 7 4 5 16 -3 14 0 19 9 16 7 -3
13 1 13 8 0 8 -9 12 -26 9 -19 -3 -22 -2 -11 5 8 5 18 7 22 5 4 -3 8 2 8 10 0
9 4 16 10 16 5 0 7 -7 4 -15 -4 -8 -1 -15 5 -15 6 0 11 7 11 16 0 14 2 15 17
3 15 -13 15 -12 4 8 -7 15 -17 20 -29 17 -14 -5 -15 -4 -2 5 11 7 20 5 37 -11
13 -12 23 -16 23 -10 0 7 -4 12 -8 12 -5 0 -14 12 -21 28 -9 22 -9 24 1 12 7
-8 21 -21 31 -29 16 -13 16 -9 -3 25 -15 26 -16 33 -5 19 17 -20 17 -20 12 3
-5 19 -3 21 9 11 8 -7 12 -21 9 -33 -5 -19 -4 -19 6 2 7 12 17 22 23 22 6 0 5
4 -3 9 -15 10 -7 31 12 31 8 0 8 -3 -1 -9 -11 -6 -10 -10 4 -15 9 -3 19 -4 22
-1 3 3 0 5 -7 5 -7 0 -10 4 -6 9 3 5 1 12 -5 16 -7 4 -7 12 0 25 13 25 13 33
-2 24 -7 -4 -8 -3 -4 4 4 6 14 8 23 5 10 -4 14 -2 9 5 -3 6 -2 13 3 17 6 3 7
13 4 22 -5 13 -3 13 14 -3 11 -10 18 -23 15 -28 -2 -4 -8 -3 -12 4 -5 9 -9 9
-14 1 -4 -6 -2 -11 5 -11 6 0 1 -9 -12 -21 -17 -14 -20 -22 -11 -25 6 -3 10
-9 8 -13 -3 -4 2 -8 10 -8 10 0 11 4 4 11 -5 5 -10 17 -10 25 0 8 3 12 6 9 3
-3 15 4 27 16 20 19 20 22 7 36 -9 8 -11 12 -5 9 5 -4 18 -5 29 -3 22 3 45 23
25 21 -8 -1 -14 2 -14 8 0 5 4 9 9 7 5 -2 4 4 -4 12 -11 15 -7 20 12 17 4 0 5
6 1 15 -3 9 -9 12 -12 7 -3 -5 -17 -3 -31 5 -23 13 -23 13 -3 9 13 -3 26 -1
29 4 3 5 -1 9 -8 10 -43 2 -91 19 -54 19 9 0 14 5 11 10 -4 6 -11 8 -16 5 -5
-3 -6 2 -2 11 4 12 3 15 -5 10 -8 -5 -10 -1 -5 10 5 13 3 15 -7 9 -9 -5 -11
-4 -6 3 10 17 14 15 31 -18 8 -16 25 -34 36 -40 18 -10 19 -10 10 8 -6 11 -7
23 -3 27 4 5 1 5 -6 1 -7 -4 -9 -12 -6 -18 5 -7 2 -8 -5 -4 -7 5 -10 15 -7 23
3 8 1 11 -4 8 -9 -6 -14 8 -11 28 1 5 -3 6 -9 2 -5 -3 -10 -2 -10 4 0 5 6 12
13 15 6 3 3 4 -8 3 -12 -1 -21 5 -23 17 -3 13 0 16 9 11 8 -5 10 -4 5 4 -4 6
-11 9 -16 6 -16 -10 -39 6 -33 23 4 14 3 15 -5 3 -8 -11 -5 -21 14 -38 26 -24
30 -33 14 -33 -5 0 -10 7 -10 17 0 15 -1 15 -18 0 -15 -14 -19 -15 -19 -2 0 8
5 11 10 8 5 -3 7 0 5 8 -3 8 -14 13 -24 11 -14 -2 -15 0 -6 6 7 5 15 22 17 38
2 25 1 26 -10 10 -8 -10 -16 -13 -19 -7 -4 5 -2 12 4 16 6 4 8 11 4 16 -3 5
-10 7 -15 3 -5 -3 -7 -10 -4 -15 3 -5 -1 -6 -10 -3 -12 5 -13 10 -6 17 14 14
14 27 0 27 -5 0 -8 -4 -5 -9 3 -5 -1 -11 -9 -15 -8 -3 -17 -1 -20 5 -4 5 -11
7 -16 3 -5 -3 -6 -10 -3 -16 5 -7 2 -8 -5 -3 -9 5 -10 10 -2 18 15 15 14 30
-1 21 -6 -4 -8 -3 -5 2 3 6 2 16 -4 24 -6 11 -9 12 -9 2 0 -7 -5 -10 -11 -6
-8 4 -7 9 2 14 15 10 41 1 33 -11 -3 -5 2 -12 10 -15 9 -3 14 -10 11 -14 -3
-5 0 -12 7 -16 7 -4 10 -4 6 1 -4 4 -3 14 4 22 6 7 8 16 4 20 -3 3 -6 1 -6 -5
0 -6 -7 -9 -15 -6 -8 4 -12 10 -9 15 3 5 -6 14 -20 21 -20 9 -23 14 -15 25 6
7 8 14 3 15 -5 0 -13 2 -19 3 -5 2 -16 3 -22 4 -7 0 -13 6 -13 12 0 5 5 7 12
3 7 -4 8 -3 4 5 -6 9 -11 9 -23 0 -12 -11 -11 -14 9 -25 13 -8 19 -14 13 -14
-5 0 -2 -7 8 -14 15 -12 15 -14 2 -19 -8 -4 -14 -3 -13 1 3 14 -14 42 -23 36
-5 -3 -9 -1 -9 4 0 5 -12 21 -26 36 -15 14 -28 37 -30 51 -3 36 -21 54 -47 48
-21 -4 -20 -3 3 12 l25 16 -24 -7 c-13 -3 -21 -2 -18 3 3 5 -4 10 -15 10 -16
2 -18 -1 -9 -10 6 -6 11 -15 11 -21 0 -14 -29 26 -30 41 0 7 6 11 13 9 6 -1 9
-1 4 1 -4 3 -4 10 0 16 4 8 1 7 -9 -1 -25 -20 -55 -2 -49 31 1 5 -8 6 -19 2
-12 -4 -20 -2 -20 6 0 8 -5 7 -17 -2 -14 -12 -14 -11 1 13 16 25 16 29 3 43
-17 17 -31 20 -22 5 3 -5 1 -10 -5 -10 -6 0 -8 -5 -4 -11 5 -8 9 -8 14 1 4 7
10 8 13 4 3 -5 -1 -14 -8 -21 -10 -10 -14 -9 -19 2 -3 9 -12 12 -23 8 -17 -5
-17 -5 0 8 20 16 14 54 -7 42 -6 -4 -24 -8 -41 -8 -16 0 -30 -6 -30 -12 0 -6
-3 -14 -7 -17 -5 -3 -6 -3 -3 0 2 4 0 16 -6 27 -8 14 -8 18 0 12 7 -4 18 -2
26 5 8 7 15 7 19 1 8 -12 36 -3 36 11 0 5 -4 7 -9 4 -5 -4 -12 0 -14 6 -4 10
-6 10 -6 0 -1 -10 -6 -10 -22 -2 -11 6 -25 9 -32 6 -7 -2 -4 -5 6 -5 9 -1 17
-6 17 -12 0 -6 -6 -9 -14 -6 -16 6 -40 -16 -29 -27 4 -4 -1 -4 -10 0 -19 7
-17 31 2 27 6 -2 11 2 11 7 0 6 -7 10 -15 10 -8 0 -15 -5 -15 -11 0 -5 -5 -7
-10 -4 -6 4 -8 11 -5 16 10 16 -1 10 -20 -11z m13 -13 c-1 -2 3 -11 10 -20 12
-14 11 -16 -7 -12 -15 3 -25 -4 -36 -23 -8 -15 -14 -23 -15 -19 0 5 5 17 10
28 8 14 7 19 -1 19 -6 0 -1 9 12 19 21 17 38 22 27 8z m172 -21 c0 -3 -4 -8
-10 -11 -5 -3 -10 -1 -10 4 0 6 5 11 10 11 6 0 10 -2 10 -4z m-260 -56 c-5
-10 -6 -21 -2 -25 4 -5 2 -5 -5 -1 -15 8 -13 43 3 43 9 0 10 -6 4 -17z m-47
-65 c4 -8 3 -16 -1 -19 -4 -3 -9 4 -9 15 -2 23 3 25 10 4z m-60 -38 c7 3 8 2
4 -2 -4 -5 -20 -11 -35 -13 -26 -3 -26 -3 -7 12 11 8 22 10 23 5 2 -5 9 -6 15
-2z m595 -38 c9 -13 9 -16 -3 -16 -8 0 -11 5 -8 10 3 5 0 7 -8 5 -8 -3 -12
-12 -11 -19 2 -8 0 -10 -4 -6 -11 11 -14 38 -4 32 5 -3 12 0 15 6 4 5 8 9 9 7
1 -2 7 -10 14 -19z m-648 -24 c5 3 11 2 13 -2 3 -5 -8 -9 -25 -10 -21 0 -26 2
-17 8 11 7 11 9 1 9 -7 0 -10 5 -6 11 5 8 10 6 16 -5 5 -9 13 -14 18 -11z
m785 -95 c-3 -5 -11 -10 -16 -10 -6 0 -7 5 -4 10 3 6 11 10 16 10 6 0 7 -4 4
-10z m-50 -19 c3 -5 2 -12 -3 -15 -5 -3 -9 1 -9 9 0 17 3 19 12 6z m-940 -91
c3 -5 1 -10 -4 -10 -6 0 -11 5 -11 10 0 6 2 10 4 10 3 0 8 -4 11 -10z m480 0
c-3 -6 1 -13 10 -16 13 -6 14 -8 3 -15 -10 -7 -10 -9 0 -9 7 0 17 10 22 23 7
17 9 18 9 5 1 -10 6 -18 12 -18 5 0 7 5 3 12 -4 7 -3 8 5 4 15 -10 3 -29 -14
-22 -7 2 -16 -1 -19 -9 -3 -10 0 -12 11 -8 9 4 21 -1 29 -12 8 -10 14 -14 14
-9 0 6 -5 15 -12 22 -9 9 -9 12 3 13 7 1 17 1 22 0 4 0 7 5 7 12 0 8 3 8 9 -2
5 -8 7 -20 4 -28 -4 -11 -8 -10 -20 4 -13 15 -13 14 0 -7 9 -14 21 -24 27 -22
7 1 19 -3 28 -10 14 -11 15 -10 8 7 -5 14 -4 17 3 10 12 -12 3 -57 -10 -49 -5
3 -7 9 -4 14 3 5 0 12 -6 16 -8 4 -9 3 -5 -4 4 -7 2 -12 -3 -12 -6 0 -3 -8 7
-18 9 -10 19 -15 22 -12 3 3 12 5 20 5 8 -1 22 4 30 9 13 10 13 9 1 -6 -15
-20 -2 -25 17 -6 9 9 12 9 12 0 0 -7 -5 -12 -11 -12 -5 0 -7 -5 -3 -11 4 -7
-1 -7 -16 1 -12 6 -24 9 -27 6 -3 -3 3 -9 13 -13 31 -11 44 -35 31 -53 -11
-13 -10 -13 7 0 18 14 19 13 12 -5 -4 -11 -4 -16 0 -13 3 4 13 0 21 -8 20 -20
8 -31 -14 -13 -16 13 -17 12 -5 -3 10 -13 10 -17 0 -22 -7 -3 -2 -3 12 1 22 5
23 4 11 -11 -7 -9 -10 -16 -5 -16 4 0 0 -6 -11 -13 -14 -11 -15 -16 -5 -22 9
-5 11 -4 6 3 -9 16 7 15 22 0 9 -9 11 -7 8 8 -3 15 2 20 17 21 20 2 21 1 5
-11 -13 -9 -14 -16 -6 -24 9 -9 6 -10 -11 -7 -17 3 -21 0 -17 -11 3 -9 -1 -17
-12 -21 -25 -10 -42 -29 -34 -38 4 -5 2 -6 -3 -2 -14 8 -40 -9 -40 -25 0 -8
-13 -13 -32 -14 -18 0 -36 -4 -40 -9 -5 -4 0 -5 9 -2 12 4 16 1 15 -12 0 -9
-10 -18 -21 -19 -16 -1 -17 1 -7 7 10 6 6 9 -13 8 -22 -2 -24 -4 -11 -14 10
-6 12 -14 6 -17 -5 -4 -12 -2 -16 4 -11 18 -23 2 -18 -25 3 -15 10 -22 17 -18
6 3 3 -3 -7 -14 -9 -11 -14 -23 -10 -26 3 -4 1 -7 -5 -7 -8 0 -10 11 -7 29 3
17 1 33 -5 36 -6 4 -7 -1 -3 -12 6 -16 4 -16 -18 2 l-24 20 18 -21 c22 -26 22
-41 0 -23 -15 12 -14 11 1 -13 l18 -27 -31 9 c-20 6 -33 5 -37 -2 -4 -7 -2 -8
4 -4 7 4 12 2 12 -4 0 -6 5 -8 12 -4 7 5 8 3 3 -5 -4 -7 -16 -11 -26 -8 -10 3
-18 2 -17 -2 2 -19 -3 -32 -11 -27 -11 7 -9 25 4 46 8 13 7 13 -8 1 -10 -8
-15 -16 -12 -19 3 -3 -2 -13 -11 -23 -15 -17 -15 -18 5 -14 11 2 21 0 21 -6 0
-5 -7 -9 -16 -9 -8 0 -12 -5 -9 -10 4 -6 11 -7 17 -4 6 4 8 3 5 -2 -3 -6 -18
-10 -34 -9 -21 0 -28 5 -26 19 1 13 -2 15 -10 7 -7 -7 -6 -15 3 -26 14 -17 0
-21 -17 -4 -9 9 -11 7 -9 -6 2 -17 36 -32 36 -16 0 4 9 7 20 8 11 1 20 -3 20
-8 0 -6 -4 -8 -9 -4 -6 3 -19 -5 -31 -17 -19 -21 -21 -21 -14 -3 7 18 6 18 -9
6 -13 -10 -14 -17 -6 -27 8 -9 7 -18 -1 -31 -10 -17 -11 -16 -6 2 5 17 1 20
-29 21 -38 1 -41 -3 -24 -26 9 -13 10 -12 5 3 -3 11 -2 16 4 12 14 -8 13 -18
-5 -41 -15 -19 -15 -19 -8 1 6 18 5 18 -10 6 -14 -11 -15 -16 -5 -29 12 -14
10 -14 -12 0 -30 17 -55 18 -56 1 -1 -7 -2 -21 -3 -30 -1 -13 -3 -15 -9 -5 -6
9 -12 5 -22 -13 -11 -20 -11 -28 -1 -38 10 -9 12 -9 11 3 -4 28 0 41 10 35 5
-3 15 5 21 18 11 24 31 29 46 12 4 -4 2 -5 -4 -1 -7 4 -13 2 -13 -4 0 -6 -4
-9 -9 -5 -5 3 -12 -4 -16 -15 -3 -11 -13 -20 -20 -20 -8 0 -12 -6 -9 -14 8
-20 -12 -28 -26 -11 -10 12 -16 13 -28 3 -14 -11 -15 -10 -9 7 7 18 6 19 -6 3
-8 -10 -16 -15 -19 -12 -4 3 -9 0 -14 -7 -4 -7 -3 -10 3 -6 6 4 14 -1 17 -10
6 -15 7 -15 19 1 11 15 14 15 32 1 11 -9 15 -14 8 -11 -15 8 -44 -4 -37 -15 3
-5 -3 -6 -12 -2 -13 5 -15 3 -9 -7 5 -9 4 -11 -3 -6 -7 4 -12 3 -12 -3 0 -5 8
-12 18 -15 12 -3 11 -4 -4 -3 -11 1 -28 -4 -37 -12 -10 -7 -17 -10 -17 -5 0 5
-4 3 -9 -5 -8 -12 -12 -13 -26 -1 -9 7 -14 18 -11 25 2 6 -1 12 -8 12 -6 0
-12 -8 -12 -18 0 -10 5 -15 11 -12 5 3 3 -2 -7 -12 -16 -17 -44 -12 -33 6 4 5
1 9 -4 9 -6 0 -11 -5 -11 -12 0 -6 -3 -9 -6 -5 -3 3 -2 13 4 23 6 11 11 13 16
5 4 -6 13 -11 19 -11 7 0 3 7 -7 15 -17 13 -22 13 -37 -1 -16 -15 -17 -14 -12
5 3 12 10 21 16 21 7 0 7 4 -1 12 -9 9 -15 9 -24 -1 -11 -11 -10 -12 2 -6 13
8 13 7 0 -11 -22 -29 -23 -30 -18 -14 5 16 -14 40 -32 40 -6 0 -8 -6 -4 -12 4
-7 3 -9 -1 -5 -15 13 -14 35 2 41 8 3 11 1 8 -4 -3 -6 -1 -10 4 -10 16 0 13
14 -8 37 -11 12 -17 25 -13 29 4 5 -1 2 -10 -5 -20 -15 -24 -26 -6 -15 7 5 8
3 3 -6 -5 -8 -4 -11 3 -6 6 3 13 2 17 -3 3 -6 -6 -8 -21 -5 -18 3 -23 1 -18
-7 4 -8 3 -9 -4 -5 -9 5 -9 13 -1 27 7 15 7 24 -1 34 -7 9 -8 15 0 20 5 3 10
1 10 -6 0 -7 3 -10 6 -6 12 12 -7 28 -20 18 -7 -6 -17 -7 -22 -3 -5 4 -1 -3 9
-15 15 -17 16 -23 5 -29 -7 -4 -10 -4 -6 0 3 4 -5 21 -20 37 -19 22 -28 26
-34 17 -4 -8 -6 1 -3 19 2 23 -2 36 -13 44 -16 10 -16 10 1 5 12 -4 17 0 17
14 0 11 -4 20 -10 20 -5 0 -10 5 -10 12 0 6 11 1 25 -12 14 -13 28 -20 32 -17
3 4 1 7 -5 7 -15 0 -16 37 -1 45 6 4 8 14 4 24 -5 12 -4 13 6 4 10 -10 9 -15
-1 -28 -8 -9 -8 -15 -2 -15 16 0 21 12 24 54 1 21 6 40 10 42 5 3 8 2 7 -3 -4
-24 3 -25 17 -3 8 14 13 17 10 8 -7 -23 6 -23 34 0 18 14 19 19 7 19 -9 0 -14
-4 -11 -9 3 -4 0 -8 -6 -8 -7 0 -10 6 -7 13 2 6 9 11 15 10 14 -3 30 26 27 48
-2 9 4 16 14 16 41 0 47 3 31 13 -9 6 -10 10 -3 10 19 0 26 -20 9 -26 -17 -6
-22 -24 -8 -24 5 0 15 12 22 26 12 22 12 27 0 36 -12 8 -12 9 2 4 10 -3 20 -1
23 4 4 6 0 10 -7 10 -8 0 -6 5 5 11 13 8 22 7 33 -1 19 -17 18 -5 -2 14 -9 9
-11 16 -4 16 6 0 8 5 5 10 -3 6 -2 10 3 10 6 0 13 -7 16 -16 4 -10 2 -13 -6
-8 -7 4 -8 3 -4 -5 4 -6 11 -9 16 -6 5 3 10 0 13 -7 2 -7 3 -5 2 4 -4 21 20
44 30 28 8 -13 25 -13 25 0 0 6 -4 9 -9 8 -5 -2 -9 2 -9 7 0 6 4 9 9 8 4 -2 6
4 3 12 -5 12 -9 11 -23 -7 -14 -17 -18 -18 -18 -5 0 9 5 13 10 10 7 -4 8 1 3
13 -4 10 -4 15 0 11 5 -4 14 3 22 15 7 13 11 15 8 6 -6 -21 9 -24 17 -4 3 7 0
19 -6 25 -8 8 -8 11 1 11 7 0 12 -3 12 -8 0 -4 9 -13 19 -19 16 -10 22 -9 33
5 11 15 11 16 -3 4 -22 -16 -43 6 -27 28 8 12 9 12 4 -2 -3 -10 -1 -18 4 -18
6 0 10 5 10 12 0 6 3 9 6 5 4 -3 13 1 22 9 12 12 12 18 2 27 -10 9 -11 9 -6 0
5 -9 1 -11 -11 -7 -15 5 -16 4 -3 -6 12 -9 12 -11 1 -8 -8 2 -15 12 -17 21 -1
10 2 14 8 11 6 -4 14 0 19 7 7 12 9 12 9 0 0 -7 6 -11 14 -8 8 3 17 1 19 -6 2
-7 8 -8 13 -4 10 9 -16 28 -28 21 -4 -3 -8 -1 -8 5 0 17 25 19 44 2 11 -9 16
-10 12 -3 -4 6 -2 12 4 12 6 0 10 7 8 16 -2 10 3 19 11 22 8 2 11 0 8 -5 -3
-5 3 -9 14 -9 24 0 24 3 -2 16 -15 9 -24 8 -35 -1 -16 -13 -16 -13 -19 19 -1
12 2 22 7 22 5 0 6 -10 3 -21 l-7 -22 28 20 c51 35 60 38 39 12 l-19 -24 23
21 c23 22 21 51 -2 38 -7 -4 3 9 22 29 19 20 38 34 42 31 4 -2 10 0 14 6 3 5
1 10 -4 10 -6 0 -11 4 -11 9 0 6 9 8 20 6 14 -3 20 2 20 13 0 15 2 15 10 2 5
-8 10 -10 10 -5 0 6 10 -1 21 -15 19 -23 19 -23 9 -2 -6 12 -8 28 -4 34 4 7 3
8 -4 4 -7 -4 -20 -2 -29 4 -15 9 -14 10 6 4 16 -4 21 -3 17 5 -5 7 -1 8 11 4
15 -6 16 -4 6 9 -7 8 -10 18 -6 21 10 10 15 8 8 -3z m637 -44 c10 5 10 4 1 -6
-9 -10 -15 -10 -26 -2 -8 7 -18 8 -22 4 -5 -4 -5 -1 -1 6 6 10 11 10 21 2 8
-7 20 -8 27 -4z m-1215 -12 c-3 -4 -2 -15 3 -25 7 -12 6 -20 -2 -25 -7 -4 -8
-3 -4 4 4 7 3 12 -3 12 -5 0 -8 8 -6 18 5 23 4 22 12 22 3 0 3 -3 0 -6z m723
-8 c0 -2 -7 -7 -16 -10 -8 -3 -12 -2 -9 4 6 10 25 14 25 6z m-260 -32 c0 -8
-19 -13 -24 -6 -3 5 1 9 9 9 8 0 15 -2 15 -3z m320 -9 c0 -8 -2 -15 -4 -15 -2
0 -6 7 -10 15 -3 8 -1 15 4 15 6 0 10 -7 10 -15z m505 -25 c-3 -5 -12 -10 -18
-10 -7 0 -6 4 3 10 19 12 23 12 15 0z m-1327 -20 c-7 -10 -14 -17 -17 -15 -4
4 18 35 25 35 2 0 -1 -9 -8 -20z m874 -27 c-19 -7 -4 -23 16 -17 13 5 14 4 4
-4 -11 -7 -7 -12 15 -20 16 -5 30 -17 30 -25 0 -9 -4 -14 -9 -11 -4 3 -8 1 -8
-5 0 -5 6 -11 13 -14 6 -3 2 -4 -10 -4 -12 1 -19 5 -17 9 3 5 -8 26 -25 47
-23 28 -27 41 -19 49 7 7 14 9 17 5 3 -3 0 -8 -7 -10z m-432 2 c0 -2 -6 -8
-13 -14 -10 -8 -14 -7 -14 2 0 8 6 14 14 14 7 0 13 -1 13 -2z m-534 -27 c4 -7
3 -8 -4 -4 -7 4 -12 1 -12 -8 0 -10 -6 -13 -15 -10 -14 6 -13 8 2 20 22 16 20
16 29 2z m10 -26 c-17 -16 -18 -16 -5 5 7 12 15 20 18 17 3 -2 -3 -12 -13 -22z
m478 -34 c-3 -5 -12 -2 -20 6 -20 21 -17 28 5 14 11 -7 17 -16 15 -20z m-504
2 c0 -5 -2 -10 -4 -10 -3 0 -8 5 -11 10 -3 6 -1 10 4 10 6 0 11 -4 11 -10z
m1516 -25 c1 -8 -2 -18 -7 -21 -6 -3 -5 -11 2 -20 6 -8 9 -14 6 -14 -10 0 -37
31 -37 43 0 8 3 7 9 -2 6 -9 11 -10 15 -2 4 6 0 14 -9 17 -13 5 -14 9 -4 15
15 9 22 5 25 -16z m-1570 6 c-4 -5 -2 -11 3 -13 5 -1 3 -8 -4 -15 -10 -9 -12
-6 -12 13 0 13 4 24 9 24 5 0 7 -4 4 -9z m1084 -19 c0 -5 -7 -9 -15 -9 -8 0
-12 4 -9 9 3 4 9 8 15 8 5 0 9 -4 9 -8z m35 -2 c3 -6 -1 -7 -9 -4 -18 7 -21
14 -7 14 6 0 13 -4 16 -10z m-772 -145 c4 -8 3 -16 -1 -19 -4 -3 -9 4 -9 15
-2 23 3 25 10 4z m-563 -33 c-1 -17 -19 -34 -29 -28 -8 5 -8 13 -1 27 10 18
30 18 30 1z m1157 -24 c-3 -8 -6 -5 -6 6 -1 11 2 17 5 13 3 -3 4 -12 1 -19z
m-59 -34 c25 -4 23 -11 -2 -11 -14 0 -27 6 -30 14 -4 9 -2 11 7 6 6 -4 18 -8
25 -9z m-1173 -32 c-8 -2 -13 -8 -10 -13 4 -5 2 -9 -3 -9 -5 0 -9 11 -9 24 0
22 2 23 19 13 15 -10 16 -13 3 -15z m-41 -34 c-3 -31 -3 -30 -14 -23 -7 4 -7
13 0 26 14 25 17 24 14 -3z m1631 -20 c3 -3 -1 -11 -10 -18 -8 -7 -15 -11 -16
-9 -6 31 -5 37 7 35 7 -1 16 -5 19 -8z m-475 -12 c0 -3 -4 -8 -10 -11 -5 -3
-10 -1 -10 4 0 6 5 11 10 11 6 0 10 -2 10 -4z m-1213 -20 c-3 -8 -3 -17 1 -19
4 -2 1 -2 -5 -1 -7 2 -13 -2 -14 -9 0 -9 -2 -9 -6 1 -2 6 -10 9 -15 6 -7 -4
-8 -2 -4 5 4 6 11 9 16 6 4 -3 10 2 14 10 3 8 8 15 12 15 3 0 4 -6 1 -14z m53
-6 c0 -5 -5 -10 -11 -10 -5 0 -7 5 -4 10 3 6 8 10 11 10 2 0 4 -4 4 -10z
m1107 -6 c0 -7 -6 -10 -14 -7 -7 3 -13 8 -13 12 0 4 6 8 13 8 8 0 14 -6 14
-13z m466 3 c3 -7 -3 -13 -14 -14 -15 -1 -16 1 -6 12 15 18 14 18 20 2z m-23
-39 c0 -5 0 -10 0 -13 0 -3 -2 -5 -5 -5 -3 0 -4 2 -2 4 1 2 -7 14 -18 26 l-20
23 23 -14 c12 -8 22 -17 22 -21z m-1693 -50 c2 -17 0 -19 -7 -8 -5 8 -6 18 -4
22 8 12 10 10 11 -14z m1623 -28 c0 -5 -2 -10 -4 -10 -3 0 -8 5 -11 10 -3 6
-1 10 4 10 6 0 11 -4 11 -10z m-1640 -14 c0 -3 -4 -8 -10 -11 -5 -3 -10 -1
-10 4 0 6 5 11 10 11 6 0 10 -2 10 -4z m1591 -33 c13 -16 12 -17 -3 -4 -10 7
-18 15 -18 17 0 8 8 3 21 -13z m-1671 -53 c0 -5 -5 -10 -11 -10 -5 0 -7 5 -4
10 3 6 8 10 11 10 2 0 4 -4 4 -10z m-40 -14 c0 -8 -4 -17 -8 -20 -4 -2 -8 4
-8 15 0 10 4 19 8 19 4 0 8 -6 8 -14z m1641 -4 c-5 -9 -18 -25 -29 -36 -20
-17 -20 -17 -15 3 3 12 15 28 26 36 27 19 30 19 18 -3z m-966 -22 c3 -5 1 -10
-4 -10 -6 0 -11 5 -11 10 0 6 2 10 4 10 3 0 8 -4 11 -10z m469 2 c3 -5 -1 -9
-9 -9 -8 0 -12 4 -9 9 3 4 7 8 9 8 2 0 6 -4 9 -8z m-1149 -14 c5 4 5 2 1 -5
-8 -14 -36 -6 -36 9 0 7 5 6 13 -1 8 -6 18 -7 22 -3z m-89 -33 c-9 -7 -14 -19
-10 -29 3 -9 1 -16 -4 -16 -21 0 -21 17 1 48 12 17 24 26 26 20 2 -6 -4 -17
-13 -23z m54 5 c0 -5 -5 -10 -11 -10 -5 0 -7 5 -4 10 3 6 8 10 11 10 2 0 4 -4
4 -10z m1545 -72 c-6 -15 -35 -21 -35 -6 0 4 7 8 15 8 8 0 15 5 15 12 0 6 2 9
5 6 3 -3 3 -12 0 -20z m-1679 -45 c-3 -4 -6 -1 -6 7 0 10 -3 10 -14 1 -11 -9
-16 -9 -22 0 -4 7 -3 9 3 6 6 -4 14 1 18 11 6 16 7 16 17 -1 5 -10 7 -21 4
-24z m1174 23 c0 -3 -4 -8 -10 -11 -5 -3 -10 -1 -10 4 0 6 5 11 10 11 6 0 10
-2 10 -4z m-86 -25 c3 -5 -1 -14 -8 -20 -10 -9 -16 -9 -21 -1 -4 6 -1 9 7 8 7
-2 12 3 11 10 -3 14 3 16 11 3z m43 -6 c0 -8 -4 -12 -9 -9 -5 3 -6 10 -3 15 9
13 12 11 12 -6z m-1127 -11 c0 -8 -19 -13 -24 -6 -3 5 1 9 9 9 8 0 15 -2 15
-3z m1601 -11 c7 -7 7 -13 1 -17 -5 -3 -17 3 -27 13 -15 17 -15 19 -1 17 9 -1
21 -7 27 -13z m-1641 -33 c0 -5 -2 -10 -4 -10 -3 0 -8 5 -11 10 -3 6 -1 10 4
10 6 0 11 -4 11 -10z m1468 -144 c-2 -1 -12 -8 -22 -16 -13 -10 -17 -10 -12
-2 4 6 2 12 -3 12 -6 0 -11 -5 -11 -12 0 -6 -3 -9 -6 -5 -11 11 6 25 31 25 14
0 25 -1 23 -2z m-1628 -16 c0 -5 -2 -10 -4 -10 -3 0 -8 5 -11 10 -3 6 -1 10 4
10 6 0 11 -4 11 -10z m1555 -35 c-1 -14 -12 -36 -24 -49 -12 -12 -18 -26 -14
-31 5 -4 3 -5 -4 -2 -12 7 -13 32 -1 32 8 0 37 37 38 48 0 4 -8 7 -17 8 -15 0
-15 2 2 9 11 5 21 9 22 9 1 1 0 -10 -2 -24z m-101 -136 c-15 -16 -31 -26 -35
-23 -5 3 -17 -8 -27 -25 -18 -29 -18 -29 -31 -9 -10 16 -10 18 0 12 9 -5 11
-2 6 8 -4 11 0 15 11 13 27 -4 33 4 21 28 -9 20 -9 20 4 5 13 -16 14 -16 29 2
9 10 14 21 11 23 -3 3 5 3 17 0 21 -6 21 -6 -6 -34z m-1746 -74 c0 -14 -4 -25
-8 -25 -5 0 -7 8 -5 18 2 9 4 20 4 25 2 18 9 4 9 -18z m-45 -70 c-3 -9 -8 -14
-10 -11 -3 3 -2 9 2 15 9 16 15 13 8 -4z m-32 -23 c-7 -2 -18 1 -23 6 -8 8 -4
9 13 5 13 -4 18 -8 10 -11z m-1 -16 c0 -3 -4 -8 -10 -11 -5 -3 -10 -1 -10 4 0
6 5 11 10 11 6 0 10 -2 10 -4z m1557 -11 c0 -8 -4 -12 -9 -9 -5 3 -6 10 -3 15
9 13 12 11 12 -6z m-7 -31 c0 -8 -19 -13 -24 -6 -3 5 1 9 9 9 8 0 15 -2 15 -3z
m-1625 -44 c3 -6 -1 -7 -9 -4 -18 7 -21 14 -7 14 6 0 13 -4 16 -10z m1536 -67
c9 -11 10 -14 2 -9 -7 4 -23 2 -35 -5 l-23 -12 20 21 c11 11 21 21 21 21 1 1
8 -7 15 -16z m-1648 -8 c4 -8 1 -17 -5 -21 -7 -4 -8 -3 -4 4 10 17 -3 15 -20
-2 -16 -16 -8 -25 19 -21 9 2 15 0 12 -5 -6 -10 -24 -8 -43 4 -11 6 -9 13 9
32 27 28 25 28 32 9z m-78 -115 c-1 -11 -4 -22 -7 -25 -4 -5 -4 34 1 43 4 8 7
-1 6 -18z m-55 -50 c0 -5 -4 -10 -10 -10 -5 0 -10 5 -10 10 0 6 5 10 10 10 6
0 10 -4 10 -10z m1553 -63 c-2 -4 -5 -7 -8 -7 -3 0 -9 0 -15 0 -5 0 -10 4 -10
9 0 5 8 8 18 7 9 -2 16 -6 15 -9z m-1632 -20 c-10 -9 -11 -8 -5 6 3 10 9 15
12 12 3 -3 0 -11 -7 -18z m1579 7 c0 -8 -19 -13 -24 -6 -3 5 1 9 9 9 8 0 15
-2 15 -3z m-129 -137 c-10 -9 -11 -8 -5 6 3 10 9 15 12 12 3 -3 0 -11 -7 -18z
m-1626 3 c-3 -5 0 -10 7 -11 10 0 10 -2 0 -6 -6 -2 -9 -10 -5 -16 4 -7 -1 -6
-10 2 -13 10 -15 17 -6 27 13 16 23 19 14 4z m33 -15 c-3 -3 -9 2 -12 12 -6
14 -5 15 5 6 7 -7 10 -15 7 -18z m1442 -129 c0 -3 -4 -8 -10 -11 -5 -3 -10 -1
-10 4 0 6 5 11 10 11 6 0 10 -2 10 -4z m-61 -92 c4 3 7 -4 7 -14 0 -11 -7 -22
-14 -25 -10 -4 -12 0 -8 10 3 9 2 13 -3 10 -5 -3 -13 0 -17 6 -4 8 -3 9 4 5 7
-4 12 0 13 11 0 11 3 13 6 5 2 -6 8 -10 12 -8z m-62 -64 c-2 -11 -10 -26 -17
-33 -8 -6 -11 -8 -7 -3 4 5 2 15 -5 23 -9 11 -8 13 3 11 8 -2 13 3 12 10 -2 6
1 12 7 12 5 0 8 -9 7 -20z m-66 -33 c-10 -9 -11 -8 -5 6 3 10 9 15 12 12 3 -3
0 -11 -7 -18z m-161 -221 c0 -3 -4 -8 -10 -11 -5 -3 -10 -1 -10 4 0 6 5 11 10
11 6 0 10 -2 10 -4z m-1750 -97 c0 -5 -4 -9 -8 -9 -5 0 -9 7 -9 15 0 8 4 12 9
9 4 -3 8 -9 8 -15z m-69 -58 c-7 -5 -11 -13 -7 -19 4 -6 -2 -8 -15 -5 -21 6
-21 7 -4 20 11 7 24 13 29 13 6 0 5 -4 -3 -9z m39 5 c0 -2 -7 -9 -15 -16 -13
-11 -14 -10 -9 4 5 14 24 23 24 12z m1567 -51 c-9 -7 -14 -14 -12 -17 10 -10
-41 -36 -54 -28 -9 5 -10 10 -2 14 6 4 11 2 11 -4 0 -6 5 -8 10 -5 8 5 7 11
-1 21 -8 10 -8 14 0 14 6 0 11 -4 11 -10 0 -5 5 -10 11 -10 5 0 7 5 4 10 -3 6
1 13 9 16 9 3 13 11 9 17 -4 6 -1 7 7 2 10 -6 10 -11 -3 -20z m-1730 -95 c2
-23 -13 -35 -23 -19 -5 8 -3 9 6 4 10 -6 12 -4 7 7 -3 9 -3 19 0 22 9 8 9 8
10 -14z m-27 -39 c0 -9 -38 -12 -44 -3 -2 4 7 8 20 8 13 1 24 -1 24 -5z m1543
-61 c3 -11 0 -23 -6 -27 -7 -3 -9 -3 -5 1 4 5 3 19 -3 33 -5 13 -5 22 0 19 5
-3 11 -15 14 -26z m-1636 -35 c0 -8 -4 -12 -9 -9 -5 3 -6 10 -3 15 9 13 12 11
12 -6z m-50 -70 c0 -8 -4 -12 -9 -9 -5 3 -6 10 -3 15 9 13 12 11 12 -6z m1563
-4 c0 -5 -7 -12 -16 -15 -14 -5 -15 -4 -4 9 14 17 20 19 20 6z m1 -54 c-15
-15 -48 -16 -48 -1 0 10 4 11 12 4 9 -8 14 -4 19 12 5 19 8 20 16 8 5 -8 6
-18 1 -23z m-71 -21 c-7 -7 -13 -7 -20 0 -6 6 -3 10 10 10 13 0 16 -4 10 -10z
m39 -9 c-2 -1 -12 -9 -22 -16 -15 -12 -17 -12 -11 3 3 9 13 16 22 16 8 0 13
-1 11 -3z m-52 -22 c0 -8 -4 -12 -9 -9 -5 3 -6 10 -3 15 9 13 12 11 12 -6z
m-1587 -25 c0 -5 -2 -10 -4 -10 -3 0 -8 5 -11 10 -3 6 -1 10 4 10 6 0 11 -4
11 -10z m1530 -14 c0 -3 -4 -8 -10 -11 -5 -3 -10 -1 -10 4 0 6 5 11 10 11 6 0
10 -2 10 -4z m-45 -26 c3 -5 1 -10 -4 -10 -6 0 -11 5 -11 10 0 6 2 10 4 10 3
0 8 -4 11 -10z m-124 -143 c-10 -9 -11 -8 -5 6 3 10 9 15 12 12 3 -3 0 -11 -7
-18z m-5 -33 c-3 -21 -28 -44 -40 -37 -6 4 -14 8 -18 8 -3 0 -9 3 -13 7 -9 9
17 4 34 -6 11 -7 13 -5 8 7 -4 12 -2 14 11 10 14 -6 15 -4 5 8 -10 13 -10 16
1 16 8 0 13 -6 12 -13z m-1190 -13 c1 -6 0 -7 -3 -1 -3 6 -11 6 -25 -1 -13 -7
-18 -7 -14 -1 3 6 0 12 -6 15 -7 3 0 4 17 2 16 -1 30 -7 31 -14z m1121 -46 c0
-8 -4 -12 -9 -9 -5 3 -6 10 -3 15 9 13 12 11 12 -6z m-1067 -25 c-13 -9 -13
-10 0 -11 8 -1 22 0 30 1 22 3 6 -10 -18 -15 -11 -2 -23 2 -26 10 -5 15 2 25
18 25 6 0 4 -5 -4 -10z m1050 -15 c0 -12 -19 -12 -23 0 -4 9 -1 12 9 8 7 -3
14 -7 14 -8z m-930 -61 c0 -8 -19 -13 -24 -6 -3 5 1 9 9 9 8 0 15 -2 15 -3z
m23 -51 c-21 -8 -15 -22 7 -16 11 3 20 3 20 0 0 -2 -9 -7 -20 -10 -14 -3 -24
1 -31 15 -7 13 -7 18 -1 14 6 -3 14 -1 17 5 4 5 10 7 14 3 3 -4 0 -9 -6 -11z
m742 0 c-1 -10 2 -23 6 -29 6 -7 3 -16 -7 -25 -22 -18 -41 -20 -41 -3 0 11 3
11 16 1 12 -10 14 -9 8 5 -4 13 -2 15 11 11 13 -5 15 -4 6 8 -9 12 -10 24 -5
44 3 14 9 3 6 -12z m-60 -73 c-3 -5 -14 -10 -23 -9 -14 0 -13 2 3 9 27 11 27
11 20 0z m35 -26 c0 -14 -3 -14 -15 -4 -8 7 -15 14 -15 16 0 2 7 4 15 4 8 0
15 -7 15 -16z m-110 -48 c0 -3 -4 -8 -10 -11 -5 -3 -10 -1 -10 4 0 6 5 11 10
11 6 0 10 -2 10 -4z m-260 -116 c0 -5 -5 -10 -11 -10 -5 0 -7 5 -4 10 3 6 8
10 11 10 2 0 4 -4 4 -10z"/>
<path d="M3941 4857 c-8 -10 -7 -14 2 -14 8 0 14 6 14 14 0 7 -1 13 -2 13 -2
0 -8 -6 -14 -13z"/>
<path d="M3990 4361 c0 -6 4 -13 10 -16 6 -3 7 1 4 9 -7 18 -14 21 -14 7z"/>
<path d="M3950 4341 c0 -6 -9 -8 -20 -6 -11 2 -18 0 -15 -4 5 -10 -19 -34 -27
-26 -2 3 -15 -6 -28 -20 -25 -27 -22 -35 4 -9 11 10 16 11 16 3 0 -7 8 -3 18
9 13 15 22 18 29 11 8 -8 13 -7 18 0 3 6 3 10 -2 9 -4 -2 -9 2 -10 7 -2 6 2
10 9 10 6 0 13 6 16 13 2 6 1 12 -2 12 -3 0 -6 -4 -6 -9z"/>
<path d="M4028 4343 c7 -3 16 -2 19 1 4 3 -2 6 -13 5 -11 0 -14 -3 -6 -6z"/>
<path d="M4066 4322 c-2 -4 4 -8 14 -8 10 0 16 4 14 8 -3 4 -9 8 -14 8 -5 0
-11 -4 -14 -8z"/>
<path d="M3872 4246 c7 -8 15 -12 17 -11 5 6 -10 25 -20 25 -5 0 -4 -6 3 -14z"/>
<path d="M3856 4222 c-3 -5 1 -9 9 -9 8 0 12 4 9 9 -3 4 -7 8 -9 8 -2 0 -6 -4
-9 -8z"/>
<path d="M4193 4215 c0 -8 4 -12 9 -9 5 3 6 10 3 15 -9 13 -12 11 -12 -6z"/>
<path d="M4215 4050 c4 -22 -5 -26 -22 -9 -7 7 -12 6 -16 -5 -3 -8 0 -19 7
-25 10 -8 18 -6 31 9 10 11 24 20 32 20 8 0 11 5 8 10 -4 6 -11 8 -16 5 -5 -4
-9 -1 -9 4 0 6 -4 11 -9 11 -6 0 -8 -9 -6 -20z m-15 -30 c0 -5 -2 -10 -4 -10
-3 0 -8 5 -11 10 -3 6 -1 10 4 10 6 0 11 -4 11 -10z"/>
<path d="M3633 4019 c-2 -23 3 -25 10 -4 4 8 3 16 -1 19 -4 3 -9 -4 -9 -15z"/>
<path d="M4120 4000 c0 -5 5 -10 11 -10 5 0 7 5 4 10 -3 6 -8 10 -11 10 -2 0
-4 -4 -4 -10z"/>
<path d="M4160 4000 c10 -6 11 -10 3 -10 -7 0 -13 -7 -13 -15 0 -8 5 -15 11
-15 5 0 8 4 4 9 -3 5 -1 12 5 16 13 8 3 25 -13 25 -7 0 -6 -4 3 -10z"/>
<path d="M3496 3912 c2 -3 -1 -11 -7 -18 -7 -8 -6 -14 2 -20 7 -4 9 -3 5 4 -3
5 0 12 6 15 9 3 10 7 2 15 -6 5 -9 7 -8 4z"/>
<path d="M3406 3841 c-4 -6 -2 -11 5 -11 8 0 6 -6 -4 -18 -10 -10 -14 -22 -10
-25 3 -4 -2 -15 -11 -26 -13 -14 -14 -21 -5 -27 7 -4 10 -3 6 3 -4 6 0 16 9
23 8 7 13 19 10 26 -3 8 2 17 11 22 11 7 13 14 6 27 -7 12 -13 14 -17 6z"/>
<path d="M3470 3846 c0 -2 7 -7 16 -10 8 -3 12 -2 9 4 -6 10 -25 14 -25 6z"/>
<path d="M3426 3778 c3 -5 10 -6 15 -3 13 9 11 12 -6 12 -8 0 -12 -4 -9 -9z"/>
<path d="M3300 3729 c0 -4 7 -10 16 -13 8 -3 13 -2 9 3 -3 5 1 11 7 14 7 3 3
4 -9 4 -13 -1 -23 -4 -23 -8z"/>
<path d="M3799 3673 c-13 -16 -12 -17 4 -4 16 13 21 21 13 21 -2 0 -10 -8 -17
-17z"/>
<path d="M3814 3655 c-4 -8 -11 -12 -18 -8 -6 3 -7 2 -3 -2 14 -16 33 -13 34
6 2 23 -5 25 -13 4z"/>
<path d="M3750 3615 c5 -23 -1 -36 -12 -29 -7 5 -8 3 -3 -5 6 -10 11 -9 23 3
13 13 14 18 3 28 -7 7 -12 9 -11 3z"/>
<path d="M3240 3600 c12 -8 13 -10 1 -10 -8 0 -12 -2 -9 -5 7 -7 38 5 38 14 0
4 -10 8 -22 8 -18 2 -20 0 -8 -7z"/>
<path d="M3251 3571 c-9 -6 -8 -11 4 -21 13 -11 14 -10 8 6 -6 17 -5 17 10 5
9 -7 17 -9 17 -3 0 14 -24 22 -39 13z"/>
<path d="M3635 3520 c-3 -5 -1 -10 4 -10 6 0 11 5 11 10 0 6 -2 10 -4 10 -3 0
-8 -4 -11 -10z"/>
<path d="M3380 3456 c0 -2 7 -7 16 -10 8 -3 12 -2 9 4 -6 10 -25 14 -25 6z"/>
<path d="M3375 3430 c3 -5 8 -10 11 -10 2 0 4 5 4 10 0 6 -5 10 -11 10 -5 0
-7 -4 -4 -10z"/>
<path d="M3567 3424 c3 -9 -1 -14 -11 -14 -9 0 -19 -7 -22 -15 -4 -8 -10 -13
-14 -10 -5 3 -11 1 -14 -4 -4 -5 -2 -12 3 -15 5 -4 12 -2 16 4 4 6 11 7 17 4
8 -5 9 -1 5 10 -5 13 -3 17 6 13 7 -3 19 3 25 13 9 14 8 19 -3 24 -9 3 -12 0
-8 -10z"/>
<path d="M4260 4195 c0 -10 29 -24 34 -17 3 6 -3 12 -14 15 -11 3 -20 4 -20 2z"/>
<path d="M3654 2948 l-19 -23 23 19 c12 11 22 21 22 23 0 8 -8 2 -26 -19z"/>
<path d="M2573 4871 c0 -11 5 -18 9 -15 4 3 5 11 1 19 -7 21 -12 19 -10 -4z"/>
<path d="M2640 4876 c0 -2 7 -7 16 -10 8 -3 12 -2 9 4 -6 10 -25 14 -25 6z"/>
<path d="M834 4858 c3 -10 1 -20 -4 -23 -6 -4 -10 -2 -10 3 0 5 -11 12 -25 14
-13 3 -22 1 -19 -3 3 -5 12 -9 20 -9 8 0 13 -4 9 -9 -3 -5 0 -13 6 -17 8 -5 9
-3 4 6 -6 10 -4 11 6 4 19 -12 32 -12 48 0 12 10 12 8 0 -12 -8 -12 -15 -18
-17 -12 -2 6 -8 7 -13 4 -6 -4 -6 -11 1 -19 7 -9 6 -16 -7 -26 -16 -12 -17
-12 -6 2 10 12 9 18 -7 32 -11 9 -28 17 -38 17 -14 0 -15 2 -2 10 8 5 10 10 4
10 -5 0 -19 -6 -30 -14 -10 -8 -24 -11 -29 -8 -6 4 -3 0 7 -9 9 -9 14 -20 10
-24 -4 -5 -2 -5 4 -2 7 4 15 0 18 -9 3 -8 2 -12 -4 -9 -6 3 -10 1 -10 -4 0 -6
-4 -11 -10 -11 -6 0 -9 3 -9 8 3 19 -2 30 -18 36 -17 7 -17 6 -1 -10 16 -16
16 -18 0 -30 -16 -12 -16 -12 2 -11 11 1 20 -5 21 -16 2 -9 -1 -15 -6 -11 -5
3 -7 11 -3 17 3 7 0 5 -8 -4 -7 -9 -15 -16 -18 -16 -20 0 -49 -16 -44 -24 3
-6 -2 -9 -12 -7 -12 2 -23 -6 -29 -19 -5 -13 -13 -23 -18 -23 -4 0 -5 6 -1 13
5 8 3 8 -9 -2 -20 -16 -13 -33 11 -24 15 6 15 5 3 -10 -13 -17 -15 -16 -34 0
-19 18 -20 17 -6 -4 8 -13 17 -23 21 -23 13 0 38 32 33 41 -4 5 -2 9 4 9 5 0
13 -4 16 -10 3 -5 1 -10 -4 -10 -6 0 -11 -4 -11 -10 0 -5 8 -7 18 -4 10 4 13
3 6 -3 -11 -8 -34 -47 -34 -58 0 -3 5 -3 12 1 7 4 8 3 4 -5 -6 -9 -11 -9 -22
0 -11 9 -11 13 1 26 19 19 19 34 0 27 -8 -4 -12 -11 -8 -17 3 -5 1 -7 -4 -4
-6 4 -13 0 -17 -8 -3 -8 -11 -15 -17 -15 -8 0 -8 4 1 15 7 9 8 15 2 15 -20 0
-21 -30 -2 -40 11 -6 18 -16 16 -23 -1 -6 -1 -8 2 -4 2 4 11 2 20 -5 10 -7 6
0 -7 15 -28 31 -20 36 15 8 13 -10 20 -22 16 -26 -4 -5 -1 -5 6 -1 7 4 10 11
8 15 -3 4 0 13 6 21 8 12 9 12 4 -2 -3 -12 0 -18 9 -18 8 0 15 7 15 15 0 8 4
15 10 15 5 0 6 -7 3 -17 -4 -11 -3 -14 5 -9 9 5 9 0 2 -21 l-10 -28 25 30 c16
19 23 23 19 11 -5 -13 -4 -17 4 -12 6 3 14 1 18 -5 4 -8 3 -9 -4 -5 -7 4 -12
2 -12 -3 0 -6 5 -12 10 -12 6 -1 14 -2 19 -3 5 0 13 -5 18 -9 4 -5 3 -8 -2 -7
-25 5 -26 -2 -2 -20 15 -12 33 -18 44 -14 13 4 15 3 4 -4 -8 -6 -10 -12 -3
-16 6 -4 15 2 21 11 6 10 11 13 11 7 0 -5 -5 -15 -11 -21 -9 -9 -2 -11 25 -9
21 2 43 9 49 15 9 9 8 11 -7 5 -15 -6 -17 -4 -11 6 5 9 4 11 -4 6 -6 -4 -9
-12 -6 -17 4 -5 4 -9 1 -9 -3 0 -10 8 -15 18 -9 16 -6 18 19 17 16 -1 28 2 27
6 -1 4 3 6 8 6 6 -1 9 -6 7 -10 -1 -5 2 -6 8 -2 8 5 8 11 0 20 -13 15 -3 45
15 45 7 0 15 -6 18 -12 3 -7 5 -4 4 8 -1 16 -7 20 -24 18 -13 -1 -21 2 -17 7
3 5 10 6 16 3 6 -4 14 0 19 7 6 10 9 11 9 2 0 -7 9 -13 21 -13 13 0 18 -4 13
-12 -5 -7 -3 -8 5 -4 7 5 10 14 8 20 -8 20 8 37 26 30 9 -3 14 -11 11 -16 -4
-6 -9 -6 -14 2 -5 9 -9 9 -14 1 -4 -6 -2 -11 4 -11 8 0 8 -6 0 -22 -11 -23
-11 -23 5 -3 9 11 21 19 26 17 6 -1 8 2 4 8 -3 5 0 10 8 10 8 0 18 8 22 18 5
14 4 15 -6 5 -17 -17 -34 -17 -20 0 8 10 7 17 -1 25 -16 16 4 15 22 0 8 -7 2
1 -13 18 -15 17 -24 34 -20 38 4 4 -1 4 -12 0 -11 -4 -17 -4 -13 1 10 11 -16
34 -38 32 -10 -1 -22 -6 -26 -12 -5 -6 -8 -5 -8 3 0 7 -5 10 -11 7 -6 -4 -5 2
3 14 12 20 31 30 26 14 -2 -5 1 -9 6 -11 6 -1 11 4 12 11 1 8 -3 14 -10 15 -6
1 -23 3 -39 6 -15 2 -25 0 -22 -4 3 -5 12 -7 20 -3 22 8 18 -5 -5 -17 -16 -8
-20 -8 -18 2 2 7 -3 12 -11 10 -11 -2 -12 0 -3 10 17 21 8 67 -16 84 -17 12
-20 19 -12 33 8 15 5 18 -15 15 -15 -1 -29 5 -36 14 -10 16 -10 16 -5 0z m31
-27 c-9 -8 -36 -10 -30 -2 2 4 11 8 20 8 8 0 13 -3 10 -6z m-95 -33 c0 -6 3
-8 7 -5 8 8 33 -12 33 -26 0 -6 -7 -2 -16 9 -15 19 -16 19 -9 -1 6 -19 5 -19
-14 2 -23 25 -26 33 -11 33 6 0 10 -5 10 -12z m150 -27 c3 -2 -3 -1 -12 2 -10
4 -18 2 -18 -2 0 -5 -7 -11 -15 -15 -19 -7 -19 -1 1 18 8 9 11 16 5 16 -6 0
-11 5 -11 12 0 6 10 3 23 -8 12 -10 24 -21 27 -23z m-15 -49 c-11 -9 -14 -10
-7 -2 15 18 16 34 0 24 -7 -5 -8 -3 -3 5 5 9 10 10 18 2 8 -8 6 -16 -8 -29z
m-101 20 c2 -4 -5 -9 -17 -9 -17 -2 -19 0 -7 7 18 12 18 12 24 2z m-119 -66
c-10 -7 -15 -18 -11 -24 5 -8 1 -10 -10 -5 -11 4 -15 3 -11 -4 5 -7 0 -9 -13
-6 -22 6 -26 18 -8 29 7 4 8 3 4 -4 -14 -22 10 -12 33 14 12 14 25 23 29 20 3
-3 -3 -12 -13 -20z m45 3 c0 -5 -4 -9 -8 -9 -5 0 -9 7 -9 15 0 8 4 12 9 9 4
-3 8 -9 8 -15z m335 -89 c-3 -5 -1 -11 5 -15 6 -4 8 -10 5 -15 -8 -14 -46 12
-41 27 3 7 1 15 -5 18 -5 4 -7 11 -4 16 4 5 1 9 -4 9 -6 0 -11 7 -11 16 0 11
9 6 30 -16 16 -18 28 -36 25 -40z m-51 13 c4 -9 4 -18 1 -21 -3 -3 -5 0 -5 7
0 7 -5 9 -12 5 -7 -4 -10 -4 -6 1 4 4 3 14 -4 22 -8 11 -7 12 5 7 8 -3 18 -13
21 -21z m-84 -123 c0 -5 -5 -10 -11 -10 -5 0 -8 -4 -4 -9 3 -5 0 -13 -6 -17
-8 -4 -9 -3 -5 4 4 7 2 12 -4 12 -7 0 -6 5 2 15 15 17 28 19 28 5z m-116 -38
c3 -5 -1 -9 -9 -9 -8 0 -15 4 -15 9 0 4 4 8 9 8 6 0 12 -4 15 -8z"/>
<path d="M1037 4609 c7 -9 11 -18 8 -21 -3 -3 3 -11 12 -19 16 -12 17 -12 6 2
-7 9 -11 18 -8 21 3 3 -3 11 -12 19 -16 12 -17 12 -6 -2z"/>
<path d="M2680 4862 c0 -19 -32 -43 -50 -37 -10 3 -21 1 -24 -4 -4 -5 -15 -8
-26 -6 -10 2 -25 -4 -32 -13 -12 -15 -11 -16 5 -3 14 11 17 11 17 0 0 -11 2
-11 10 1 8 13 10 13 10 1 0 -12 3 -12 12 -3 15 15 28 16 28 2 0 -5 -3 -9 -7
-9 -5 1 -10 1 -13 -1 -3 -1 -16 -4 -29 -6 -32 -6 -40 -14 -13 -14 11 0 24 -4
27 -10 4 -6 -1 -7 -11 -3 -10 4 -20 0 -26 -10 -5 -9 -16 -14 -26 -11 -14 5
-15 4 -2 -5 13 -10 13 -13 -2 -22 -10 -5 -18 -19 -18 -29 0 -11 -5 -20 -11
-20 -8 0 -8 -4 0 -14 9 -11 9 -16 0 -22 -7 -4 -9 -3 -5 4 3 6 2 13 -4 17 -6 4
-7 12 -3 18 14 22 11 33 -11 34 -11 1 -15 -1 -8 -4 20 -8 -6 -33 -26 -26 -14
4 -15 3 -2 -5 8 -6 18 -8 22 -6 16 10 8 -34 -9 -47 -15 -13 -15 -12 -4 10 7
13 8 21 3 17 -6 -3 -13 0 -16 6 -4 7 -5 4 -2 -8 2 -12 0 -28 -5 -36 -12 -21
21 -19 39 2 11 13 12 12 4 -5 -5 -11 -7 -27 -5 -35 3 -8 -1 -6 -10 5 -23 30
-29 13 -7 -22 10 -17 25 -31 32 -29 23 3 39 17 32 28 -4 7 -2 8 5 4 9 -6 9
-11 -1 -24 -11 -14 -10 -15 7 -8 11 4 16 4 12 0 -4 -4 -2 -13 3 -20 6 -6 9
-18 8 -25 -2 -8 2 -14 7 -13 6 1 19 -8 29 -19 16 -17 17 -19 3 -14 -42 17 -50
17 -24 0 23 -15 27 -23 23 -48 -2 -16 -2 -24 1 -17 2 6 10 12 15 12 6 0 8 -3
5 -7 -10 -9 13 -33 33 -33 9 0 22 10 29 23 11 20 11 21 8 1 -3 -12 1 -21 8
-21 7 0 11 7 8 15 -3 8 0 18 7 22 11 7 10 13 -3 33 -15 23 -15 25 9 38 14 7
23 18 20 24 -6 18 11 40 31 40 22 0 43 13 43 26 0 6 -4 8 -9 4 -5 -3 -12 -1
-15 4 -11 18 24 5 39 -15 14 -18 16 -18 19 9 1 6 7 11 14 9 7 -1 15 5 18 13 8
19 21 19 21 0 0 -8 -5 -12 -11 -9 -6 3 0 -4 14 -15 14 -11 30 -21 35 -20 6 0
2 4 -7 10 -10 5 -18 15 -18 20 0 6 4 8 9 4 22 -13 21 17 -1 35 -13 11 -18 19
-12 20 5 0 16 -6 24 -12 12 -11 12 -10 1 5 -9 11 -21 15 -35 12 -21 -6 -21 -6
-2 9 16 13 17 16 4 16 -23 0 -30 -28 -10 -40 12 -8 13 -10 2 -7 -8 2 -20 -2
-25 -10 -9 -11 -13 -11 -30 2 -20 16 -20 16 2 6 15 -8 22 -7 26 2 6 16 -3 38
-13 32 -11 -7 -7 22 5 32 4 4 5 3 1 -4 -3 -6 -1 -15 5 -18 7 -5 10 0 7 11 -2
11 -10 19 -18 20 -24 2 -50 15 -50 26 0 7 5 6 13 -1 8 -6 18 -7 22 -3 5 4 5 1
0 -7 -5 -10 -4 -12 4 -7 6 4 9 12 5 17 -3 5 -9 7 -13 4 -12 -7 -42 30 -34 41
5 5 -1 1 -12 -8 -13 -10 -26 -14 -34 -9 -9 6 -10 11 -2 15 6 4 11 1 11 -6 0
-8 5 -6 11 5 16 27 3 32 -28 12 -22 -15 -25 -15 -15 -3 11 13 11 17 0 21 -7 2
-6 3 3 2 11 -2 16 4 14 14 -1 9 3 20 9 24 7 6 4 7 -6 3 -17 -5 -26 8 -10 17 4
2 1 2 -5 1 -7 -2 -13 1 -13 6 0 6 6 10 13 10 8 0 7 3 -3 9 -21 14 -32 3 -20
-20 6 -11 8 -25 4 -31 -4 -6 -3 -8 4 -4 6 3 13 3 16 -2 2 -4 -4 -9 -16 -9 -14
-1 -18 3 -14 14 5 12 3 13 -7 5 -16 -13 -42 1 -32 17 5 9 10 9 21 0 10 -8 14
-8 14 0 0 6 -5 11 -10 11 -7 0 -7 7 0 21 7 11 9 23 6 27 -3 3 -6 0 -6 -6z
m-57 -97 c-3 -9 -8 -14 -10 -11 -3 3 -2 9 2 15 9 16 15 13 8 -4z m42 6 c3 -5
2 -12 -3 -15 -5 -3 -9 1 -9 9 0 17 3 19 12 6z m-99 -50 c-10 -11 -15 -25 -10
-32 4 -8 3 -10 -4 -5 -7 4 -12 10 -12 15 0 10 34 50 39 45 2 -2 -4 -13 -13
-23z m17 -16 c-3 -9 -8 -14 -10 -11 -3 3 -2 9 2 15 9 16 15 13 8 -4z m199 -13
c-7 -2 -9 -9 -6 -14 4 -7 2 -8 -4 -4 -6 4 -9 13 -6 21 4 8 11 12 17 8 8 -5 7
-8 -1 -11z m-243 -22 c11 -24 11 -24 -3 -6 -9 11 -16 24 -16 30 0 12 5 7 19
-24z m211 10 c0 -5 -2 -10 -4 -10 -3 0 -8 5 -11 10 -3 6 -1 10 4 10 6 0 11 -4
11 -10z m159 -113 c8 -10 7 -14 -2 -14 -8 0 -14 6 -14 14 0 7 1 13 2 13 2 0 8
-6 14 -13z m-322 -100 c1 -11 1 -18 0 -16 -2 2 -8 11 -15 20 -9 12 -9 16 1 16
7 0 14 -9 14 -20z m118 -7 c-3 -5 -14 -10 -23 -9 -14 0 -13 2 3 9 27 11 27 11
20 0z m-81 -52 c-5 -8 -1 -9 12 -4 14 5 16 4 8 -4 -6 -6 -19 -8 -28 -4 -14 5
-15 9 -4 15 18 12 20 11 12 -3z m66 -13 c7 -8 10 -16 6 -16 -3 -1 -10 -2 -16
-3 -5 0 -15 -10 -23 -20 -11 -15 -17 -17 -33 -8 -10 6 -15 12 -10 12 5 0 2 8
-5 18 -13 16 -13 16 5 2 17 -13 20 -12 35 7 19 27 25 28 41 8z"/>
<path d="M2649 4373 l-24 -28 26 23 c14 12 29 19 34 15 4 -5 5 -2 1 5 -9 16
-9 16 -37 -15z"/>
<path d="M4190 4863 c0 -6 8 -17 18 -24 16 -13 16 -13 2 6 -8 11 -16 22 -17
24 -2 2 -3 0 -3 -6z"/>
<path d="M2590 4834 c0 -8 5 -12 10 -9 6 3 10 10 10 16 0 5 -4 9 -10 9 -5 0
-10 -7 -10 -16z"/>
<path d="M3835 4840 c-2 -3 5 -7 16 -7 10 -1 19 2 19 6 0 9 -29 10 -35 1z"/>
<path d="M4197 4805 c-4 -8 -3 -16 1 -19 4 -3 9 4 9 15 2 23 -3 25 -10 4z"/>
<path d="M4226 4801 c-3 -5 1 -11 9 -14 9 -4 12 -1 8 9 -6 16 -10 17 -17 5z"/>
<path d="M2760 4780 c-8 -5 -12 -12 -9 -15 4 -3 12 1 19 10 14 17 11 19 -10 5z"/>
<path d="M3775 4771 c-3 -5 -2 -12 3 -15 5 -3 9 1 9 9 0 17 -3 19 -12 6z"/>
<path d="M4230 4766 c0 -2 6 -9 14 -15 11 -9 16 -9 22 0 4 8 3 9 -4 5 -7 -4
-12 -2 -12 3 0 6 -4 11 -10 11 -5 0 -10 -2 -10 -4z"/>
<path d="M3746 4718 c3 -5 10 -6 15 -3 13 9 11 12 -6 12 -8 0 -12 -4 -9 -9z"/>
<path d="M1036 4702 c-3 -5 1 -9 9 -9 8 0 12 4 9 9 -3 4 -7 8 -9 8 -2 0 -6 -4
-9 -8z"/>
<path d="M1673 4698 c4 -11 0 -21 -11 -27 -9 -6 -12 -11 -5 -11 7 0 10 -6 7
-14 -3 -8 0 -17 7 -22 9 -5 10 -2 6 9 -3 9 -2 19 3 22 9 6 5 44 -6 54 -4 3 -4
-2 -1 -11z"/>
<path d="M1795 4700 c3 -5 8 -10 11 -10 2 0 4 5 4 10 0 6 -5 10 -11 10 -5 0
-7 -4 -4 -10z"/>
<path d="M2846 4698 c3 -5 10 -6 15 -3 13 9 11 12 -6 12 -8 0 -12 -4 -9 -9z"/>
<path d="M1710 4690 c-13 -8 -13 -11 -1 -22 8 -8 11 -8 7 -1 -6 11 17 12 53 2
7 -2 16 3 18 11 4 13 3 13 -6 0 -9 -12 -11 -13 -11 -1 0 8 -3 11 -6 8 -4 -3
-14 -2 -23 3 -10 5 -23 5 -31 0z"/>
<path d="M1833 4675 c0 -8 4 -12 9 -9 5 3 6 10 3 15 -9 13 -12 11 -12 -6z"/>
<path d="M2860 4665 c8 -11 15 -21 16 -23 1 -2 5 5 8 15 4 9 4 14 0 10 -4 -4
-14 -1 -23 6 -14 11 -15 10 -1 -8z"/>
<path d="M1055 4660 c3 -5 8 -10 11 -10 2 0 4 5 4 10 0 6 -5 10 -11 10 -5 0
-7 -4 -4 -10z"/>
<path d="M1720 4653 c-14 -10 -20 -11 -15 -3 5 8 3 11 -6 8 -8 -3 -14 -11 -15
-19 -2 -28 -4 -30 -25 -18 -16 8 -20 8 -14 -1 4 -6 -1 -21 -12 -33 -15 -19
-16 -20 0 -8 20 15 23 2 5 -18 -9 -10 -10 -12 -1 -7 16 9 37 -30 22 -40 -9 -5
-7 -11 5 -20 11 -8 13 -14 7 -19 -6 -3 -11 -1 -11 5 0 6 -5 8 -11 4 -8 -4 -8
-9 0 -17 6 -6 11 -16 11 -21 0 -6 -7 0 -16 13 -14 19 -14 25 -3 32 8 5 10 9 5
9 -5 0 -3 6 3 14 9 11 9 16 -1 22 -7 4 -10 4 -6 0 4 -5 -5 -27 -19 -50 -15
-24 -19 -35 -10 -27 18 14 22 8 18 -31 -1 -10 4 -18 11 -18 8 0 6 -5 -5 -11
-14 -8 -15 -14 -7 -24 7 -8 7 -15 1 -19 -5 -4 -12 -2 -16 4 -10 16 -35 12 -29
-5 4 -8 10 -12 15 -9 5 3 9 0 9 -6 0 -6 5 -8 12 -4 7 4 8 3 4 -4 -14 -23 -69
19 -59 45 3 7 1 13 -5 13 -11 0 -10 -25 1 -36 13 -13 7 -23 -10 -18 -15 5 -16
4 -3 -5 13 -10 13 -13 -3 -22 -13 -8 -15 -14 -7 -28 7 -15 5 -22 -12 -33 -17
-11 -19 -16 -8 -23 9 -6 11 -4 5 6 -5 8 -5 11 -1 7 4 -3 15 1 25 10 14 14 15
19 3 31 -7 7 -10 16 -7 19 3 3 14 -4 25 -16 20 -21 20 -21 -1 -27 -11 -4 -18
-9 -15 -13 3 -3 -3 -12 -14 -19 -11 -8 -18 -19 -15 -24 4 -5 1 -9 -5 -9 -7 0
-10 6 -7 14 3 8 -1 17 -9 20 -9 3 -12 10 -9 16 10 16 -1 11 -16 -7 -12 -14
-12 -16 0 -8 11 6 13 4 8 -9 -4 -9 -3 -15 2 -11 5 3 8 -2 7 -11 -3 -18 -26
-35 -38 -28 -4 3 -8 -3 -8 -13 -1 -11 -6 -5 -15 15 -16 37 -20 39 -22 12 -1
-11 2 -18 6 -16 4 3 8 -5 8 -16 2 -20 1 -20 -13 -2 -14 18 -14 18 -8 -1 5 -16
4 -17 -5 -5 -6 8 -8 24 -6 35 3 11 -2 6 -11 -11 -12 -22 -24 -31 -41 -31 -13
0 -30 -9 -38 -19 -13 -17 -13 -15 -2 14 6 18 13 28 15 22 2 -5 8 -10 13 -10 6
0 7 6 3 13 -6 9 -4 9 8 -1 11 -9 18 -10 23 -2 3 5 3 10 -1 10 -3 0 -2 6 4 13
8 10 6 13 -7 13 -11 0 -17 -6 -14 -13 5 -12 -26 -11 -46 1 -5 4 -7 -3 -4 -13
3 -13 -2 -23 -16 -31 -12 -6 -19 -16 -15 -23 5 -9 3 -8 -7 1 -14 13 -33 17
-26 5 3 -5 -5 -9 -18 -9 -18 -1 -21 1 -12 10 6 7 17 13 24 14 7 1 20 3 28 4 8
1 15 10 15 20 0 17 -2 16 -21 -3 -20 -20 -21 -20 -42 -2 -15 13 -18 13 -9 2
13 -17 9 -23 -27 -44 -11 -6 -13 -4 -8 8 3 10 2 17 -4 17 -6 0 -9 -8 -7 -17 2
-10 10 -17 17 -15 7 1 10 -2 6 -8 -4 -6 -1 -18 7 -27 11 -14 11 -16 -1 -8 -11
6 -13 4 -8 -10 4 -9 2 -24 -4 -31 -6 -8 -8 -14 -3 -14 5 0 4 -4 -3 -8 -8 -5
-7 -12 4 -27 12 -16 14 -16 10 -3 -3 10 -1 20 5 24 6 4 8 3 5 -3 -4 -6 8 -11
31 -11 63 -2 72 -3 72 -12 0 -9 -20 -7 -55 6 -15 5 -17 4 -9 -5 6 -7 21 -13
33 -14 11 -1 21 -6 21 -12 0 -5 5 -3 10 5 9 13 10 13 10 0 0 -10 3 -11 8 -4 9
14 62 24 62 13 0 -5 -4 -9 -9 -9 -6 0 -9 -9 -8 -19 0 -11 5 -17 9 -15 5 3 6 8
4 12 -2 4 2 12 9 19 11 10 15 10 19 0 3 -9 8 -8 16 3 10 13 11 12 6 -3 -3 -10
-6 -21 -6 -24 0 -3 -6 -1 -13 5 -10 8 -13 6 -14 -11 -1 -12 1 -17 5 -12 12 17
35 17 29 1 -6 -16 29 -43 41 -32 3 3 0 6 -7 6 -7 0 -9 5 -5 11 4 7 10 7 16 1
6 -6 17 -8 24 -5 11 4 12 9 3 19 -22 27 0 14 31 -18 31 -32 32 -32 26 -8 -3
14 -3 19 0 12 3 -6 10 -10 15 -7 5 4 6 -2 2 -11 -4 -11 -2 -15 4 -11 6 4 19
-3 29 -14 16 -18 16 -19 1 -13 -9 3 -17 9 -17 13 0 4 -7 8 -15 8 -8 0 -15 -4
-15 -9 0 -4 5 -8 11 -8 5 0 7 -4 4 -10 -4 -6 1 -7 12 -3 16 6 16 4 -2 -17
l-20 -24 29 18 c16 10 25 13 22 7 -4 -6 -3 -11 2 -11 6 0 13 -7 16 -16 5 -13
3 -14 -6 -7 -18 13 -44 10 -41 -5 3 -11 -10 -16 -30 -13 -5 1 -6 -3 -2 -8 3
-6 12 -8 19 -5 9 4 13 -2 11 -20 -2 -14 -6 -29 -9 -34 -3 -5 1 -9 8 -9 8 0 12
6 9 12 -3 9 4 11 21 8 14 -3 26 -9 26 -14 0 -5 6 -9 14 -9 20 0 29 -17 15 -26
-8 -4 -9 -3 -5 4 5 8 -2 11 -23 9 -17 -2 -34 -6 -37 -10 -3 -3 6 -4 20 -3 14
2 23 -1 20 -5 -5 -8 10 -13 29 -10 4 0 7 -4 7 -10 0 -6 -6 -9 -12 -6 -7 3 -21
8 -30 12 -11 4 -18 3 -18 -4 0 -6 3 -10 8 -10 16 3 32 -1 31 -8 -3 -19 2 -27
10 -15 5 9 8 3 9 -17 0 -17 -3 -31 -8 -31 -5 0 -7 7 -4 15 4 9 0 15 -10 15
-20 0 -21 -14 -1 -30 13 -10 12 -15 -8 -32 -20 -18 -19 -18 10 1 35 24 43 26
43 10 0 -5 -5 -7 -11 -4 -6 4 -10 1 -8 -6 4 -30 -2 -37 -23 -32 -16 3 -13 -1
10 -13 17 -9 32 -21 32 -26 0 -5 -9 -4 -20 2 -28 15 -25 6 4 -14 32 -20 43 -3
16 24 -11 11 -16 20 -12 20 5 0 12 -3 16 -7 4 -4 15 -8 23 -8 9 0 18 -7 20
-15 4 -13 3 -13 -6 0 -5 8 -13 11 -18 7 -4 -5 -1 -12 6 -16 9 -6 10 -11 2 -15
-6 -4 -11 -12 -11 -19 0 -6 7 -1 16 11 8 12 23 22 32 22 15 -1 15 -2 -2 -15
-17 -13 -18 -15 -3 -15 9 0 17 5 17 11 0 5 5 7 10 4 6 -4 7 -11 4 -17 -5 -7
-2 -8 5 -4 9 6 8 12 -4 26 -9 10 -12 21 -7 24 6 3 12 -1 16 -9 3 -8 11 -15 18
-15 9 0 8 3 -2 10 -8 5 -11 10 -6 10 6 0 1 6 -9 14 -21 15 -40 12 -30 -5 4 -5
1 -9 -4 -9 -10 0 -15 14 -12 34 1 4 -3 14 -9 21 -8 9 -8 15 0 20 6 4 10 3 9
-2 -3 -20 2 -27 12 -13 8 11 9 9 3 -10 -6 -22 -5 -23 9 -12 9 8 13 20 11 27
-7 18 32 40 42 23 5 -7 3 -8 -6 -3 -9 5 -11 4 -6 -3 5 -8 2 -10 -8 -6 -9 3
-16 1 -16 -6 0 -6 4 -9 8 -6 5 3 9 -1 9 -9 0 -8 -5 -11 -10 -8 -6 4 -7 1 -2
-7 6 -9 4 -11 -6 -5 -11 6 -12 5 -2 -5 14 -15 23 -10 27 15 1 9 8 20 16 25 11
6 9 15 -7 42 -15 25 -17 35 -7 35 7 0 11 -4 8 -8 -7 -12 11 -19 26 -9 16 10
22 40 8 40 -6 0 -7 -7 -4 -16 4 -10 2 -14 -6 -11 -7 2 -12 9 -11 15 2 6 -5 9
-15 6 -9 -2 -7 1 6 7 12 7 22 16 22 21 0 11 -14 10 -26 -2 -7 -7 -11 -6 -11 3
0 12 12 14 50 8 5 0 5 -7 1 -13 -5 -9 -2 -9 9 1 18 14 22 22 10 20 -22 -4 -31
3 -35 25 -4 17 -1 23 8 19 7 -3 12 -10 11 -15 -1 -6 5 -13 13 -15 12 -4 12 -3
1 5 -9 7 -10 12 -2 16 6 4 8 12 5 18 -5 7 -2 9 7 6 10 -4 15 1 16 13 2 18 1
18 -19 -1 -23 -21 -40 -18 -36 8 2 11 -3 16 -12 14 -8 -2 -11 0 -7 5 5 4 14 8
19 8 6 0 13 6 16 14 3 9 0 11 -9 5 -12 -7 -12 -5 0 9 11 14 11 20 0 34 -10 11
-10 14 -1 9 7 -4 12 -2 12 8 0 19 47 16 60 -4 13 -20 13 -4 0 21 -7 13 -7 19
0 19 5 0 10 -4 10 -10 0 -5 8 -6 18 -3 15 6 16 5 2 -13 -14 -17 -14 -18 2 -6
10 8 15 23 13 42 -3 24 -1 28 16 25 16 -3 19 0 15 13 -4 12 -1 11 13 -5 10
-12 21 -19 25 -16 3 3 1 12 -5 20 -15 17 -2 17 16 -1 10 -10 11 -16 2 -25 -13
-13 -37 -15 -37 -3 0 5 -6 9 -14 9 -8 0 -13 -11 -13 -25 0 -20 1 -22 9 -9 5 9
15 14 24 10 8 -3 25 4 38 16 12 12 26 18 31 14 4 -5 5 -3 1 4 -4 7 2 17 14 23
11 6 20 8 20 4 0 -3 7 -1 16 7 13 10 17 10 25 -2 5 -8 9 -9 9 -3 0 6 -7 17
-15 24 -8 7 -15 18 -15 24 0 6 5 3 11 -6 5 -10 15 -18 21 -18 7 0 6 5 -2 15
-11 13 -9 14 16 0 19 -10 32 -11 40 -4 9 7 15 5 22 -7 18 -32 39 -25 36 12 -1
19 2 34 7 34 6 0 8 -4 5 -8 -2 -4 -1 -14 4 -22 7 -12 12 -12 22 -2 9 9 9 12
-2 12 -11 1 -10 3 3 11 17 10 15 29 -4 29 -6 0 -7 -4 -4 -10 3 -6 -1 -7 -10
-4 -14 6 -14 7 0 18 15 11 14 14 -4 30 -20 18 -30 11 -13 -10 4 -5 1 -4 -7 3
-11 9 -11 15 3 34 22 32 20 42 -6 33 -20 -6 -21 -5 -10 9 10 12 10 17 1 23 -7
4 -9 3 -5 -4 3 -6 1 -14 -5 -18 -9 -5 -7 -11 5 -20 9 -6 13 -15 8 -18 -6 -3
-13 1 -16 10 -3 8 -11 12 -17 8 -7 -4 -10 -3 -6 2 3 5 -1 18 -9 29 -13 18 -14
17 -9 -15 l6 -35 -15 34 c-9 18 -13 38 -9 44 4 6 1 7 -6 2 -7 -4 -10 -16 -8
-27 4 -12 1 -18 -6 -15 -7 3 -11 9 -10 15 1 5 -7 8 -19 4 -20 -5 -20 -6 -3
-19 11 -7 14 -13 8 -13 -7 0 -14 4 -18 10 -3 5 -13 6 -21 3 -13 -5 -15 -1 -9
15 6 21 -2 28 -29 23 -4 -1 -15 4 -24 11 -12 10 -14 10 -8 1 4 -8 1 -13 -9
-13 -9 0 -13 -4 -10 -10 3 -5 1 -10 -5 -10 -6 0 -8 -6 -4 -12 4 -7 3 -10 -1
-5 -11 9 -14 48 -4 41 4 -2 11 1 15 7 5 8 -1 10 -19 7 -18 -3 -24 -1 -19 6 12
19 10 33 -4 33 -7 0 -10 -5 -7 -10 3 -5 0 -7 -8 -5 -8 3 -20 -2 -28 -11 -7 -9
-6 -3 3 12 17 28 14 48 -7 46 -9 0 -9 -2 1 -6 19 -7 14 -20 -9 -26 -13 -4 -18
-10 -13 -18 4 -8 3 -10 -5 -5 -6 4 -8 12 -5 18 5 8 1 9 -10 5 -11 -4 -15 -3
-11 4 4 6 14 8 22 5 10 -4 13 -2 10 8 -7 17 16 39 28 28 5 -4 5 -1 1 6 -6 11
-13 9 -30 -7 -25 -23 -45 -29 -27 -7 6 7 8 22 4 32 -6 16 -4 17 8 7 13 -10 16
-10 16 2 0 7 -3 13 -6 12 -3 -1 -6 3 -6 8 0 6 4 9 8 7 5 -1 6 2 2 8 -3 6 -10
8 -15 5 -5 -3 -11 4 -15 15 -3 11 -10 20 -15 20 -11 0 -7 19 9 48 7 13 10 26
7 30 -3 3 -6 0 -6 -7 0 -7 -4 -9 -10 -6 -6 4 -7 -1 -4 -12 5 -16 4 -16 -8 -2
-7 9 -20 14 -28 12 -8 -2 -3 3 13 12 28 16 37 28 14 19 -8 -3 -14 2 -15 11 -1
8 -3 21 -4 28 -1 8 -7 14 -15 14 -8 0 -10 -4 -3 -12 11 -13 3 -25 -14 -25 -6
0 -4 5 4 10 12 7 12 10 1 10 -7 0 -11 6 -7 15 3 8 -4 21 -17 30 -29 20 -13 19
18 -1 13 -9 30 -14 37 -11 8 4 6 6 -4 6 -21 1 -24 17 -5 25 6 3 3 4 -8 1 -11
-2 -27 0 -35 6 -13 9 -12 10 2 5 10 -3 20 0 24 6 4 6 3 8 -4 4 -5 -3 -13 0
-16 6 -3 9 -9 7 -20 -6 -9 -11 -16 -15 -16 -9 0 7 5 15 11 18 6 4 8 13 5 21
-3 7 0 16 6 20 6 4 8 3 4 -4 -11 -18 10 -22 30 -7 17 14 17 14 1 9 -10 -4 -17
-3 -16 2 3 21 -2 26 -15 15 -11 -9 -20 -9 -34 -2 -14 7 -25 6 -42 -6z m24 -8
c-4 -8 -11 -15 -16 -15 -6 0 -5 6 2 15 7 8 14 15 16 15 2 0 1 -7 -2 -15z m26
-25 c0 -5 -4 -10 -10 -10 -5 0 -10 5 -10 10 0 6 5 10 10 10 6 0 10 -4 10 -10z
m-70 -39 c3 -2 -3 -1 -12 2 -10 4 -18 2 -18 -3 0 -6 6 -10 13 -11 9 0 9 -2 -1
-6 -6 -2 -9 -10 -5 -16 5 -8 2 -8 -8 0 -13 10 -16 33 -10 62 1 3 24 -13 41
-28z m25 20 c3 -5 2 -12 -3 -15 -5 -3 -9 1 -9 9 0 17 3 19 12 6z m25 -24 c0
-2 -8 -11 -18 -20 -15 -14 -19 -15 -19 -2 0 8 4 12 8 9 4 -2 10 0 14 6 6 10
15 14 15 7z m-50 -51 c0 -2 -8 -10 -17 -17 -16 -13 -17 -12 -4 4 13 16 21 21
21 13z m147 -51 c0 -8 -4 -15 -9 -15 -10 0 -11 14 -1 23 9 10 10 9 10 -8z m18
-57 c3 -3 -3 -8 -13 -10 -11 -3 -19 0 -19 7 0 13 21 14 32 3z m2 -25 c-4 -3 0
-14 8 -23 19 -21 28 -60 13 -60 -7 0 -6 -6 2 -15 10 -13 8 -21 -3 -12 -2 1
-10 -3 -18 -10 -12 -10 -15 -8 -15 6 0 10 5 17 12 14 23 -9 9 42 -16 55 -23
13 -23 13 -2 9 12 -3 22 -2 22 3 0 11 -30 21 -41 14 -5 -3 -9 -3 -9 1 0 3 10
10 23 15 28 11 32 12 24 3z m-276 -78 c5 4 6 -1 3 -9 -3 -9 -1 -16 5 -16 6 0
11 -5 11 -10 0 -6 -11 -3 -24 6 -16 10 -23 21 -19 32 4 10 8 12 11 4 2 -7 8
-10 13 -7z m54 -35 c3 -5 1 -10 -4 -10 -6 0 -11 5 -11 10 0 6 2 10 4 10 3 0 8
-4 11 -10z m-40 -48 c-3 -3 -11 0 -18 7 -9 10 -8 11 6 5 10 -3 15 -9 12 -12z
m365 -66 c0 -2 -7 -7 -16 -10 -8 -3 -12 -2 -9 4 6 10 25 14 25 6z m100 -6 c0
-5 -5 -10 -11 -10 -5 0 -7 5 -4 10 3 6 8 10 11 10 2 0 4 -4 4 -10z m33 -16
c-4 -12 -8 -13 -14 -3 -9 15 -2 32 11 24 5 -3 6 -13 3 -21z m-716 -26 c-3 -8
-6 -5 -6 6 -1 11 2 17 5 13 3 -3 4 -12 1 -19z m-177 -32 c0 -3 -4 -8 -10 -11
-5 -3 -10 -1 -10 4 0 6 5 11 10 11 6 0 10 -2 10 -4z m1074 -44 c3 -5 -1 -9 -9
-9 -8 0 -12 4 -9 9 3 4 7 8 9 8 2 0 6 -4 9 -8z m-1020 -48 c3 -8 2 -12 -4 -9
-6 3 -10 10 -10 16 0 14 7 11 14 -7z m1021 -14 c3 -5 1 -10 -4 -10 -6 0 -11 5
-11 10 0 6 2 10 4 10 3 0 8 -4 11 -10z m-955 -14 c0 -2 -7 -6 -15 -10 -8 -3
-15 -1 -15 4 0 6 7 10 15 10 8 0 15 -2 15 -4z m814 -17 c-3 -5 -10 -7 -15 -3
-5 3 -7 10 -3 15 3 5 10 7 15 3 5 -3 7 -10 3 -15z m-43 -3 c17 10 9 -3 -13
-22 -13 -10 -18 -12 -11 -5 6 7 10 19 9 25 -2 6 -1 8 1 3 3 -4 9 -5 14 -1z
m-31 -6 c0 -5 -2 -10 -4 -10 -3 0 -8 5 -11 10 -3 6 -1 10 4 10 6 0 11 -4 11
-10z m-595 -49 c4 -11 3 -11 -9 -2 -10 8 -16 9 -21 1 -3 -5 -12 -10 -18 -10
-7 0 -3 7 7 15 18 14 15 20 -7 16 -5 -1 -6 3 -2 9 7 12 42 -8 50 -29z m490
-11 c3 -5 1 -10 -4 -10 -6 0 -11 5 -11 10 0 6 2 10 4 10 3 0 8 -4 11 -10z
m-315 -76 c0 -8 -19 -13 -24 -6 -3 5 1 9 9 9 8 0 15 -2 15 -3z m-35 -71 c-2
-10 -4 -22 -4 -26 -1 -5 -7 -7 -13 -5 -7 3 -13 19 -14 36 0 26 2 29 17 21 9
-5 16 -17 14 -26z m37 24 c-6 -7 -9 -25 -8 -39 2 -15 0 -25 -5 -23 -16 11 0
75 18 75 3 0 1 -6 -5 -13z m135 -209 c-3 -8 -6 -5 -6 6 -1 11 2 17 5 13 3 -3
4 -12 1 -19z m-62 -8 c3 -5 1 -10 -4 -10 -6 0 -11 5 -11 10 0 6 2 10 4 10 3 0
8 -4 11 -10z m-16 -47 c-12 -15 -12 -16 4 -10 9 3 17 2 17 -3 0 -14 -27 -13
-36 1 -3 6 0 15 7 20 21 13 23 11 8 -8z"/>
<path d="M2380 4640 c-9 -6 -10 -10 -3 -10 6 0 15 5 18 10 8 12 4 12 -15 0z"/>
<path d="M1610 4619 c0 -5 5 -7 10 -4 6 3 10 8 10 11 0 2 -4 4 -10 4 -5 0 -10
-5 -10 -11z"/>
<path d="M2408 4620 c-2 -6 -11 -12 -20 -14 -27 -3 -31 -14 -6 -12 22 1 45 22
35 32 -3 3 -7 0 -9 -6z"/>
<path d="M3630 4620 c-13 -8 -12 -10 3 -10 9 0 17 5 17 10 0 12 -1 12 -20 0z"/>
<path d="M4386 4621 c-3 -5 6 -21 19 -35 18 -19 25 -23 25 -12 0 15 13 21 35
16 6 -1 7 2 2 6 -10 11 -47 13 -41 2 8 -13 -6 -9 -22 6 -11 11 -11 16 -1 19 9
4 9 6 0 6 -6 1 -14 -3 -17 -8z"/>
<path d="M1820 4616 c0 -2 7 -7 16 -10 8 -3 12 -2 9 4 -6 10 -25 14 -25 6z"/>
<path d="M2393 4554 c0 -17 2 -22 8 -13 4 7 5 17 2 23 -3 5 -1 6 6 2 6 -4 9
-12 5 -17 -3 -5 0 -16 6 -24 6 -8 9 -18 7 -22 -7 -12 50 -10 60 1 4 5 3 6 -4
3 -6 -4 -20 5 -32 20 -47 63 -58 68 -58 27z m52 -34 c10 -11 16 -20 13 -20 -3
0 -13 9 -23 20 -10 11 -16 20 -13 20 3 0 13 -9 23 -20z"/>
<path d="M2371 4554 c0 -11 3 -14 6 -6 3 7 2 16 -1 19 -3 4 -6 -2 -5 -13z"/>
<path d="M2325 4540 c-3 -6 1 -7 9 -4 18 7 21 14 7 14 -6 0 -13 -4 -16 -10z"/>
<path d="M1613 4525 c0 -8 4 -12 9 -9 5 3 6 10 3 15 -9 13 -12 11 -12 -6z"/>
<path d="M2846 4529 c2 -4 0 -10 -6 -14 -5 -3 -10 -12 -10 -18 0 -7 5 -4 11 6
8 13 14 15 29 7 28 -15 32 -12 13 8 -18 18 -47 26 -37 11z"/>
<path d="M3563 4524 c0 -9 4 -11 12 -4 7 5 14 9 16 7 2 -1 3 0 1 2 -7 11 -29
7 -29 -5z"/>
<path d="M1870 4520 c0 -5 5 -10 11 -10 5 0 7 5 4 10 -3 6 -8 10 -11 10 -2 0
-4 -4 -4 -10z"/>
<path d="M2373 4515 c0 -8 4 -12 9 -9 5 3 6 10 3 15 -9 13 -12 11 -12 -6z"/>
<path d="M4515 4520 c-3 -5 -1 -10 4 -10 6 0 11 5 11 10 0 6 -2 10 -4 10 -3 0
-8 -4 -11 -10z"/>
<path d="M2791 4506 c-9 -10 -7 -17 6 -27 16 -13 17 -12 5 3 -8 10 -9 19 -3
22 5 3 12 0 14 -6 4 -9 6 -10 6 -1 1 19 -16 24 -28 9z"/>
<path d="M2504 4501 c4 -6 2 -11 -3 -11 -6 0 -11 -5 -11 -11 0 -8 4 -8 15 1 8
6 19 9 25 5 5 -3 10 -4 10 -1 0 3 -10 10 -21 17 -15 8 -19 8 -15 0z"/>
<path d="M991 4484 c0 -11 3 -14 6 -6 3 7 2 16 -1 19 -3 4 -6 -2 -5 -13z"/>
<path d="M2395 4491 c-3 -5 -2 -12 3 -15 5 -3 9 1 9 9 0 17 -3 19 -12 6z"/>
<path d="M2736 4484 c-3 -8 -1 -16 4 -19 6 -4 10 -1 10 4 0 6 5 11 11 11 5 0
7 -5 3 -12 -4 -7 -3 -8 4 -4 15 9 5 33 -13 33 -8 0 -16 -6 -19 -13z"/>
<path d="M2851 4484 c0 -11 3 -14 6 -6 3 7 2 16 -1 19 -3 4 -6 -2 -5 -13z"/>
<path d="M706 4473 c-6 -14 -5 -15 5 -6 7 7 10 15 7 18 -3 3 -9 -2 -12 -12z"/>
<path d="M1575 4460 c3 -5 8 -10 11 -10 2 0 4 5 4 10 0 6 -5 10 -11 10 -5 0
-7 -4 -4 -10z"/>
<path d="M727 4443 c3 -7 9 -13 15 -13 5 0 6 -4 3 -10 -3 -6 1 -7 10 -4 10 4
14 2 10 -8 -4 -9 4 -20 20 -28 18 -10 22 -16 13 -22 -9 -5 -10 -8 -1 -8 6 0
15 5 18 10 4 6 11 7 18 3 16 -10 67 -11 61 -1 -3 5 -15 6 -26 2 -15 -4 -18 -3
-13 6 5 9 4 11 -3 6 -12 -7 -109 60 -105 73 1 4 -4 8 -12 8 -7 0 -11 -6 -8
-14z m93 -70 c0 -7 -39 17 -46 28 -3 6 5 3 20 -6 14 -10 26 -19 26 -22z"/>
<path d="M1615 4440 c-4 -6 -12 -7 -18 -3 -8 5 -8 2 0 -9 13 -15 8 -28 -9 -28
-5 0 -6 5 -2 12 4 7 3 8 -4 4 -16 -10 -16 -9 21 -36 17 -13 26 -17 19 -8 -9
12 -10 18 -2 23 8 5 8 11 1 19 -7 9 -7 16 1 24 7 7 9 12 6 12 -4 0 -10 -5 -13
-10z"/>
<path d="M2714 4435 c-19 -15 -19 -15 0 -30 11 -8 25 -15 30 -15 6 1 0 7 -14
15 -14 8 -20 14 -14 15 10 0 30 30 21 30 -2 0 -12 -7 -23 -15z"/>
<path d="M2747 4430 c-3 -11 -3 -20 -1 -20 2 0 8 9 14 20 6 11 7 20 2 20 -6 0
-12 -9 -15 -20z"/>
<path d="M3410 4420 c-9 -6 -10 -10 -3 -10 6 0 15 5 18 10 8 12 4 12 -15 0z"/>
<path d="M715 4410 c-3 -5 -1 -10 4 -10 6 0 11 5 11 10 0 6 -2 10 -4 10 -3 0
-8 -4 -11 -10z"/>
<path d="M1890 4400 c0 -5 5 -10 11 -10 5 0 7 5 4 10 -3 6 -8 10 -11 10 -2 0
-4 -4 -4 -10z"/>
<path d="M2548 4398 c5 -5 16 -8 23 -6 8 3 3 7 -10 11 -17 4 -21 3 -13 -5z"/>
<path d="M750 4370 c8 -5 20 -10 25 -10 6 0 3 5 -5 10 -8 5 -19 10 -25 10 -5
0 -3 -5 5 -10z"/>
<path d="M2710 4351 c0 -6 4 -12 8 -15 5 -3 9 1 9 9 0 8 -4 15 -9 15 -4 0 -8
-4 -8 -9z"/>
<path d="M736 4342 c-3 -5 1 -9 9 -9 8 0 12 4 9 9 -3 4 -7 8 -9 8 -2 0 -6 -4
-9 -8z"/>
<path d="M816 4342 c-2 -4 -1 -14 3 -20 6 -10 11 -9 21 3 11 13 10 14 -5 9
-13 -5 -16 -4 -11 4 4 7 5 12 2 12 -3 0 -7 -4 -10 -8z"/>
<path d="M3350 4340 c-13 -8 -12 -10 3 -10 9 0 17 5 17 10 0 12 -1 12 -20 0z"/>
<path d="M2592 4326 c7 -8 15 -12 17 -11 5 6 -10 25 -20 25 -5 0 -4 -6 3 -14z"/>
<path d="M3315 4321 c-3 -5 -1 -12 5 -16 6 -4 7 -11 4 -17 -4 -6 2 -5 15 2 24
12 19 33 -6 23 -11 -4 -14 -3 -9 5 4 7 5 12 2 12 -3 0 -7 -4 -11 -9z"/>
<path d="M3295 4291 c-3 -5 -2 -12 3 -15 5 -3 9 1 9 9 0 17 -3 19 -12 6z"/>
<path d="M1435 4211 c-3 -5 -1 -12 5 -16 6 -4 8 -10 5 -15 -3 -4 3 -7 12 -5
10 2 22 4 27 4 5 1 -1 10 -14 21 -27 23 -27 23 -35 11z m26 -18 c13 -16 12
-17 -3 -4 -10 7 -18 15 -18 17 0 8 8 3 21 -13z"/>
<path d="M2020 4216 c0 -2 7 -7 16 -10 8 -3 12 -2 9 4 -6 10 -25 14 -25 6z"/>
<path d="M2147 4172 c4 -10 9 -10 22 0 9 7 17 13 19 14 2 1 -8 1 -21 0 -15 0
-23 -6 -20 -14z"/>
<path d="M2126 4153 c-6 -14 -5 -15 5 -6 7 7 10 15 7 18 -3 3 -9 -2 -12 -12z"/>
<path d="M3116 4133 c-6 -14 -5 -15 5 -6 7 7 10 15 7 18 -3 3 -9 -2 -12 -12z"/>
<path d="M1093 4089 c-2 -23 3 -25 10 -4 4 8 3 16 -1 19 -4 3 -9 -4 -9 -15z"/>
<path d="M1128 4093 c6 -2 10 -9 6 -14 -3 -5 0 -9 6 -9 6 0 8 -5 5 -10 -5 -8
-12 -7 -23 2 -15 12 -16 11 -3 -4 15 -21 2 -24 -19 -5 -12 10 -12 9 -1 -5 9
-12 10 -18 2 -18 -6 0 -10 -6 -8 -12 1 -7 -4 -12 -11 -10 -8 1 -11 -2 -7 -8 3
-6 12 -7 18 -3 17 10 47 11 41 1 -3 -4 -1 -8 3 -8 5 0 14 9 21 21 10 16 10 24
1 35 -8 10 -8 14 0 14 6 0 3 9 -6 20 -10 11 -22 20 -28 19 -5 0 -4 -3 3 -6z
m26 -64 c-3 -5 -9 -7 -14 -4 -4 3 -10 -1 -13 -7 -2 -7 -8 -10 -12 -5 -5 4 0
14 11 21 20 15 39 12 28 -5z"/>
<path d="M2306 4091 c-3 -5 6 -19 20 -30 15 -12 23 -21 19 -21 -4 0 -2 -6 4
-14 8 -10 9 -16 1 -21 -6 -3 -8 -10 -5 -15 8 -12 -23 -33 -37 -24 -10 6 -11 5
-1 -8 7 -8 12 -17 10 -19 -1 -2 5 4 14 15 11 13 18 15 23 7 9 -14 29 -4 23 12
-2 7 0 20 5 31 6 10 6 16 1 13 -4 -3 -14 1 -21 9 -7 8 -10 14 -7 14 3 0 0 10
-6 23 -11 20 -11 21 5 7 17 -13 66 -27 54 -14 -3 3 -14 7 -25 9 -10 1 -17 7
-16 12 1 5 -3 10 -10 10 -7 0 -19 4 -28 7 -10 4 -20 3 -23 -3z m28 -17 c5 -14
4 -15 -9 -4 -17 14 -19 20 -6 20 5 0 12 -7 15 -16z m36 -74 c0 -5 -5 -10 -11
-10 -5 0 -7 5 -4 10 3 6 8 10 11 10 2 0 4 -4 4 -10z m0 -30 c0 -5 -2 -10 -4
-10 -3 0 -8 5 -11 10 -3 6 -1 10 4 10 6 0 11 -4 11 -10z"/>
<path d="M2380 4036 c0 -2 7 -7 16 -10 8 -3 12 -2 9 4 -6 10 -25 14 -25 6z"/>
<path d="M4745 4019 c-3 -4 2 -6 10 -5 21 3 28 13 10 13 -9 0 -18 -4 -20 -8z"/>
<path d="M1094 3978 c-5 -8 -2 -9 9 -5 10 4 20 0 25 -10 5 -9 15 -13 21 -9 6
4 9 12 5 17 -3 5 -10 7 -15 4 -5 -4 -9 -1 -9 4 0 15 -27 14 -36 -1z"/>
<path d="M1197 3963 c-11 -11 -8 -20 7 -20 8 0 12 6 9 14 -6 15 -7 15 -16 6z"/>
<path d="M2236 3962 c-3 -6 -15 -8 -26 -5 -11 3 -20 1 -20 -4 0 -6 12 -9 26
-7 28 3 41 11 32 20 -3 3 -9 1 -12 -4z"/>
<path d="M1494 3869 c-4 -7 -3 -10 2 -7 11 7 35 -17 27 -26 -4 -3 -1 -6 5 -6
18 0 14 15 -7 34 -14 13 -21 14 -27 5z"/>
<path d="M2060 3866 c0 -2 7 -7 16 -10 8 -3 12 -2 9 4 -6 10 -25 14 -25 6z"/>
<path d="M1473 3845 c0 -7 6 -11 14 -8 7 3 13 6 13 8 0 2 -6 5 -13 8 -8 3 -14
-1 -14 -8z"/>
<path d="M2011 3844 c0 -11 3 -14 6 -6 3 7 2 16 -1 19 -3 4 -6 -2 -5 -13z"/>
<path d="M1885 3830 c3 -5 -1 -11 -7 -13 -10 -4 -9 -6 1 -6 11 -1 11 -4 1 -16
-11 -13 -10 -14 3 -9 8 3 18 12 21 20 3 8 7 17 8 21 2 3 -5 7 -15 9 -9 1 -15
-1 -12 -6z"/>
<path d="M4570 3819 c0 -5 5 -7 10 -4 6 3 10 8 10 11 0 2 -4 4 -10 4 -5 0 -10
-5 -10 -11z"/>
<path d="M1535 3811 c-3 -5 -2 -12 3 -15 5 -3 9 1 9 9 0 17 -3 19 -12 6z"/>
<path d="M2776 3798 c3 -4 11 -5 19 -1 21 7 19 12 -4 10 -11 0 -18 -5 -15 -9z"/>
<path d="M1910 3780 c0 -5 5 -10 11 -10 5 0 7 5 4 10 -3 6 -8 10 -11 10 -2 0
-4 -4 -4 -10z"/>
<path d="M1873 3758 c-4 -7 -9 -21 -10 -31 -3 -17 -2 -17 13 -3 8 9 12 21 8
28 -5 8 -2 9 10 5 10 -4 15 -3 11 3 -8 14 -22 13 -32 -2z"/>
<path d="M2740 3760 c-9 -6 -10 -10 -3 -10 6 0 15 5 18 10 8 12 4 12 -15 0z"/>
<path d="M4473 3743 c4 -3 -1 -12 -11 -20 -15 -13 -15 -13 6 -3 19 9 23 30 5
30 -4 0 -3 -3 0 -7z"/>
<path d="M2679 3713 c-13 -16 -12 -17 4 -4 9 7 17 15 17 17 0 8 -8 3 -21 -13z"/>
<path d="M2668 3679 c13 -17 7 -29 -11 -25 -7 2 -9 1 -4 -1 14 -9 7 -25 -9
-19 -15 6 -15 4 -3 -11 12 -15 12 -16 -4 -10 -11 4 -16 3 -12 -3 4 -6 -4 -14
-17 -19 -13 -6 -17 -10 -10 -10 7 -1 10 -6 6 -12 -4 -8 0 -7 15 1 12 6 19 15
16 21 -6 8 8 13 27 10 4 0 5 5 2 13 -3 7 3 21 12 30 16 16 16 18 -2 34 -14 14
-16 14 -6 1z"/>
<path d="M4356 3593 c-6 -14 -5 -15 5 -6 7 7 10 15 7 18 -3 3 -9 -2 -12 -12z"/>
<path d="M1613 3585 c0 -8 4 -12 9 -9 5 3 6 10 3 15 -9 13 -12 11 -12 -6z"/>
<path d="M4210 3459 c0 -5 5 -7 10 -4 6 3 10 8 10 11 0 2 -4 4 -10 4 -5 0 -10
-5 -10 -11z"/>
<path d="M1630 3441 c0 -6 4 -13 10 -16 6 -3 7 1 4 9 -7 18 -14 21 -14 7z"/>
<path d="M4120 3406 c0 -8 4 -17 9 -20 5 -4 7 3 4 14 -6 23 -13 26 -13 6z"/>
<path d="M1673 3395 c0 -8 4 -12 9 -9 5 3 6 10 3 15 -9 13 -12 11 -12 -6z"/>
<path d="M4155 3391 c-3 -5 -2 -12 3 -15 5 -3 9 1 9 9 0 17 -3 19 -12 6z"/>
<path d="M1735 3380 c3 -5 8 -10 11 -10 2 0 4 5 4 10 0 6 -5 10 -11 10 -5 0
-7 -4 -4 -10z"/>
<path d="M4036 3341 c-3 -5 1 -11 9 -14 9 -4 12 -1 8 9 -6 16 -10 17 -17 5z"/>
<path d="M2330 3324 c-25 -15 -25 -15 -1 -8 18 5 22 3 15 -7 -7 -12 -5 -12 9
0 9 7 14 17 11 22 -6 11 -4 11 -34 -7z"/>
<path d="M4075 3329 c-4 -6 -5 -12 -2 -15 2 -3 7 2 10 11 7 17 1 20 -8 4z"/>
<path d="M3970 3290 c0 -6 7 -13 15 -16 8 -4 12 -11 8 -17 -4 -6 -1 -7 6 -3 9
6 8 13 -5 27 -20 22 -24 23 -24 9z"/>
<path d="M4035 3281 c-3 -5 -2 -12 3 -15 5 -3 9 1 9 9 0 17 -3 19 -12 6z"/>
<path d="M2254 3258 c-4 -7 -3 -8 4 -4 7 4 12 1 12 -8 0 -10 -6 -13 -15 -10
-8 4 -15 4 -15 1 0 -15 31 -14 40 2 7 14 6 20 -5 25 -8 3 -17 0 -21 -6z"/>
<path d="M3870 3160 c0 -5 5 -10 11 -10 5 0 7 5 4 10 -3 6 -8 10 -11 10 -2 0
-4 -4 -4 -10z"/>
<path d="M2115 3110 c-18 -8 -18 -9 -2 -9 12 -1 16 -5 11 -13 -5 -9 -3 -9 9 1
9 7 14 17 11 22 -3 5 -6 9 -7 8 -1 0 -11 -4 -22 -9z"/>
<path d="M3834 3098 c-4 -5 -3 -12 0 -15 3 -4 6 -1 6 6 0 7 4 10 9 6 5 -3 12
-2 15 3 3 5 -2 9 -10 9 -8 0 -17 -4 -20 -9z"/>
<path d="M2076 3083 c-6 -14 -5 -15 5 -6 7 7 10 15 7 18 -3 3 -9 -2 -12 -12z"/>
<path d="M3810 3070 c6 -11 13 -20 16 -20 2 0 0 9 -6 20 -6 11 -13 20 -16 20
-2 0 0 -9 6 -20z"/>
<path d="M2050 3036 c14 -18 13 -18 -10 -12 -14 4 -20 4 -15 -1 6 -5 13 -12
16 -16 3 -4 11 -1 18 6 9 11 7 17 -6 28 -17 13 -17 13 -3 -5z"/>
<path d="M4470 3040 c-9 -6 -10 -10 -3 -10 6 0 15 5 18 10 8 12 4 12 -15 0z"/>
<path d="M4430 3020 c0 -5 5 -10 10 -10 6 0 10 5 10 10 0 6 -4 10 -10 10 -5 0
-10 -4 -10 -10z"/>
<path d="M4497 3019 c7 -7 15 -10 18 -7 3 3 -2 9 -12 12 -14 6 -15 5 -6 -5z"/>
<path d="M4465 3011 c-6 -11 1 -15 18 -12 5 1 5 -4 1 -10 -5 -8 -3 -9 6 -4 10
6 10 4 2 -10 -11 -20 -42 -29 -42 -13 0 6 7 8 15 4 23 -8 18 12 -6 25 -15 8
-19 8 -15 0 6 -10 -5 -15 -26 -13 -3 1 -12 -5 -18 -13 -9 -11 -9 -15 -1 -15 6
0 11 4 11 8 0 5 7 9 15 9 11 0 12 -4 5 -11 -16 -16 -12 -26 8 -19 9 3 14 3 10
-1 -3 -4 -12 -8 -20 -10 -7 -1 -19 -5 -25 -9 -8 -5 -13 -4 -13 2 0 6 5 11 12
11 6 0 9 3 5 6 -3 3 -14 1 -24 -5 -10 -6 -13 -11 -8 -11 6 0 4 -4 -3 -9 -11
-7 -10 -9 3 -14 9 -4 14 -3 11 1 -2 4 4 8 15 8 19 0 20 -1 2 -14 -10 -7 -16
-19 -15 -25 2 -7 0 -9 -4 -5 -4 4 -13 0 -21 -10 -13 -16 -13 -15 -4 3 6 15 5
26 -6 40 -14 19 -14 19 -9 -5 7 -32 -14 -59 -50 -66 -16 -3 -34 -10 -41 -16
-9 -7 -13 -7 -13 0 0 14 35 34 44 25 3 -3 6 -1 6 6 0 8 7 11 15 7 13 -4 14 -2
5 14 -6 11 -13 20 -16 20 -3 0 -3 -4 1 -10 5 -8 -48 -43 -67 -45 -3 0 -9 -3
-12 -7 -3 -5 -3 -6 1 -3 3 3 12 -3 19 -13 9 -13 10 -20 1 -31 -9 -10 -6 -17
11 -32 13 -10 23 -22 23 -26 1 -17 8 -14 19 7 8 15 8 20 1 16 -6 -4 -18 -3
-27 2 -11 6 -13 12 -6 16 6 3 13 2 17 -3 3 -6 13 -7 21 -4 13 5 15 1 10 -15
-6 -17 -4 -21 8 -16 9 3 13 11 9 17 -4 6 -1 7 7 2 10 -6 9 -11 -4 -20 -9 -7
-16 -17 -15 -21 4 -22 -2 -35 -13 -28 -7 5 -8 3 -3 -6 6 -10 11 -9 21 5 7 10
11 22 7 27 -3 6 4 5 16 -1 12 -7 21 -8 21 -2 0 5 -6 12 -12 14 -10 4 -10 6 0
6 8 1 16 -8 19 -20 3 -12 11 -18 19 -15 15 6 38 -27 27 -38 -3 -3 -1 -6 6 -6
7 0 11 -6 8 -14 -3 -8 -1 -17 6 -19 7 -2 5 -3 -3 -2 -9 1 -22 -5 -30 -13 -13
-14 -12 -15 3 -9 16 6 30 -6 33 -30 1 -7 -2 -13 -7 -13 -5 0 -9 -4 -9 -8 0 -5
7 -9 15 -9 8 0 12 4 9 9 -11 17 9 7 25 -14 14 -17 18 -18 18 -5 0 9 -5 13 -10
10 -5 -3 -7 0 -5 8 3 8 11 13 17 11 7 -1 10 2 7 7 -3 5 1 14 8 20 11 10 17 8
25 -6 6 -11 11 -13 11 -5 0 7 4 11 9 8 5 -3 11 1 15 9 3 8 0 17 -6 21 -6 4 -8
3 -5 -3 4 -6 0 -13 -8 -17 -8 -3 -17 -1 -20 4 -4 6 -1 10 4 10 6 0 11 7 11 16
0 14 -3 13 -17 -3 -10 -10 -17 -17 -16 -14 2 2 -3 11 -10 20 -11 14 -10 15 7
1 18 -14 19 -13 13 2 -3 10 -3 17 1 17 20 -3 50 15 46 26 -8 21 12 26 27 7 13
-15 12 -16 -3 -3 -12 9 -18 10 -18 2 0 -6 6 -11 13 -12 6 0 -1 -6 -17 -13 -16
-7 -24 -16 -18 -20 6 -3 24 5 40 19 16 13 31 22 34 20 2 -3 4 13 3 36 -1 22 3
43 8 46 6 3 7 1 3 -5 -3 -6 -2 -13 4 -17 5 -3 11 -1 11 4 3 26 4 30 10 36 4 3
21 7 38 7 22 1 35 8 42 22 9 19 9 20 -4 4 -18 -23 -22 -23 -24 2 -1 12 3 18 8
14 6 -3 5 3 -3 15 -7 12 -16 21 -20 21 -5 0 -8 6 -8 14 0 8 -7 17 -16 20 -8 3
-13 10 -10 14 3 5 -1 9 -9 9 -12 0 -12 -4 2 -20 16 -18 16 -20 2 -14 -9 3 -22
0 -29 -6 -9 -8 -11 -9 -7 -1 9 15 -19 38 -34 28 -7 -4 -9 -3 -6 3 10 16 -25
39 -56 38 -22 -1 -25 1 -15 10 8 5 14 22 13 38 -1 15 2 27 7 27 4 0 8 5 8 11
0 8 -5 7 -15 -1 -13 -10 -19 -10 -34 4 -13 11 -21 14 -26 7z m48 -49 c-2 -10
-13 -24 -24 -31 -19 -11 -18 -9 2 18 26 36 29 37 22 13z m55 -87 c-3 -3 -9 2
-12 12 -6 14 -5 15 5 6 7 -7 10 -15 7 -18z m42 -30 c0 -8 -2 -15 -4 -15 -2 0
-6 7 -10 15 -3 8 -1 15 4 15 6 0 10 -7 10 -15z m89 -49 c-13 -14 -11 -28 4
-20 6 4 8 3 4 -1 -10 -12 -38 -15 -31 -4 10 18 13 49 3 54 -5 4 -9 11 -9 17 0
5 9 0 19 -13 12 -15 16 -28 10 -33z m-39 40 c0 -2 -7 -7 -16 -10 -8 -3 -12 -2
-9 4 6 10 25 14 25 6z m7 -35 c0 -11 -5 -18 -9 -15 -4 3 -5 11 -1 19 7 21 12
19 10 -4z m-377 -19 c-5 -2 -10 -8 -10 -13 0 -6 5 -7 12 -3 7 5 8 3 3 -6 -6
-10 -11 -9 -21 4 -11 16 -13 16 -23 -1 -6 -10 -11 -13 -11 -7 0 6 3 14 8 18 4
4 8 12 8 17 1 5 2 11 3 14 0 3 10 0 21 -7 11 -7 16 -14 10 -16z m370 -17 c0
-2 -6 -8 -13 -14 -10 -8 -14 -7 -14 2 0 8 6 14 14 14 7 0 13 -1 13 -2z m-56
-80 c-4 -8 -1 -15 6 -15 6 0 8 -5 4 -11 -5 -8 -10 -6 -16 5 -5 9 -6 21 -3 26
9 15 15 12 9 -5z m-76 -50 c-3 -3 -9 2 -12 12 -6 14 -5 15 5 6 7 -7 10 -15 7
-18z m-47 -42 c13 -16 12 -17 -3 -4 -17 13 -22 21 -14 21 2 0 10 -8 17 -17z
m-31 -24 c0 -5 5 -7 10 -4 6 3 10 0 10 -7 0 -10 3 -9 10 2 5 8 11 12 15 9 3
-3 -5 -14 -17 -25 -12 -10 -18 -13 -13 -5 6 11 4 13 -11 7 -10 -4 -15 -4 -11
0 4 4 2 13 -4 21 -9 9 -8 13 0 13 6 0 11 -5 11 -11z"/>
<path d="M4410 3000 c0 -5 5 -10 11 -10 5 0 7 5 4 10 -3 6 -8 10 -11 10 -2 0
-4 -4 -4 -10z"/>
<path d="M4537 2961 c-3 -15 -1 -18 12 -14 12 3 11 0 -4 -12 -14 -12 -15 -16
-5 -13 9 2 35 -12 58 -30 24 -19 39 -27 36 -18 -3 9 -10 16 -16 16 -5 0 -6 4
-3 10 4 6 -1 7 -12 3 -16 -6 -17 -5 -3 12 9 11 10 16 3 11 -7 -4 -13 -3 -13 3
0 5 6 12 13 15 6 3 2 3 -10 1 -14 -4 -26 1 -36 15 -14 20 -15 20 -20 1z m44
-38 c13 -16 12 -17 -3 -4 -17 13 -22 21 -14 21 2 0 10 -8 17 -17z"/>
<path d="M4316 2899 c3 -13 6 -29 6 -36 1 -7 5 -10 10 -7 4 3 3 15 -4 27 -6
12 -10 24 -9 25 2 2 0 6 -3 9 -3 3 -3 -5 0 -18z"/>
<path d="M4253 2865 c0 -8 4 -12 9 -9 5 3 6 10 3 15 -9 13 -12 11 -12 -6z"/>
<path d="M3537 2849 c-9 -6 -15 -14 -12 -20 12 -18 -6 -31 -23 -17 -13 11 -14
11 -8 0 10 -17 -32 -64 -48 -55 -6 3 -8 3 -5 -1 4 -4 -4 -19 -17 -33 -13 -14
-24 -31 -24 -37 0 -6 5 -3 11 7 6 9 14 15 19 12 5 -3 12 0 16 6 4 8 3 9 -4 5
-7 -4 -12 -2 -12 3 0 15 27 14 34 -1 3 -7 3 -2 -1 12 -5 23 -5 24 13 10 17
-14 18 -14 6 2 -9 11 -10 18 -2 23 5 3 10 1 10 -4 0 -6 4 -11 9 -11 6 0 8 9 6
21 -3 15 0 19 10 15 8 -3 14 -2 12 2 -3 12 29 52 37 45 4 -4 4 0 0 10 -3 9 -7
17 -8 17 0 0 -9 -5 -19 -11z"/>
<path d="M1830 2830 c-12 -7 -10 -9 7 -7 12 0 19 5 17 9 -6 10 -6 10 -24 -2z"/>
<path d="M3575 2820 c-3 -5 -1 -10 4 -10 6 0 11 5 11 10 0 6 -2 10 -4 10 -3 0
-8 -4 -11 -10z"/>
<path d="M1790 2780 c0 -5 5 -10 11 -10 5 0 7 5 4 10 -3 6 -8 10 -11 10 -2 0
-4 -4 -4 -10z"/>
<path d="M4190 2780 c0 -4 7 -7 15 -6 23 3 26 12 5 13 -11 1 -20 -2 -20 -7z"/>
<path d="M4663 2725 c0 -8 4 -15 8 -15 4 0 9 7 13 15 3 9 0 15 -8 15 -7 0 -13
-7 -13 -15z"/>
<path d="M4697 2727 c-3 -8 -2 -20 3 -26 5 -9 8 -4 8 13 0 29 -3 32 -11 13z"/>
<path d="M1696 2722 c-3 -5 1 -9 9 -9 8 0 12 4 9 9 -3 4 -7 8 -9 8 -2 0 -6 -4
-9 -8z"/>
<path d="M4641 2690 c-10 -6 -11 -12 -2 -26 11 -18 11 -18 9 0 -2 10 3 21 11
24 8 2 11 0 8 -5 -3 -5 0 -10 7 -10 7 0 13 5 13 12 0 13 -28 17 -46 5z"/>
<path d="M4335 2669 c-4 -6 -4 -13 -1 -16 3 -4 6 0 6 8 1 10 4 9 11 -4 5 -9 7
-23 4 -30 -4 -6 0 -4 9 7 8 10 22 16 30 13 10 -4 13 -1 9 8 -3 8 -9 12 -14 9
-5 -2 -17 0 -28 6 -14 7 -22 7 -26 -1z"/>
<path d="M4386 2625 c4 -8 12 -15 20 -15 20 0 17 7 -6 20 -16 9 -18 8 -14 -5z"/>
<path d="M4591 2610 c-31 -26 -17 -26 16 0 14 11 22 20 17 20 -5 -1 -20 -10
-33 -20z"/>
<path d="M3349 2583 c-13 -16 -12 -17 4 -4 16 13 21 21 13 21 -2 0 -10 -8 -17
-17z"/>
<path d="M4526 2522 c-3 -5 1 -9 9 -9 8 0 12 4 9 9 -3 4 -7 8 -9 8 -2 0 -6 -4
-9 -8z"/>
<path d="M1370 2400 c0 -5 5 -10 11 -10 5 0 7 5 4 10 -3 6 -8 10 -11 10 -2 0
-4 -4 -4 -10z"/>
<path d="M3090 2339 c0 -5 5 -7 10 -4 6 3 10 8 10 11 0 2 -4 4 -10 4 -5 0 -10
-5 -10 -11z"/>
<path d="M1330 2323 c1 -18 18 -35 24 -24 4 6 2 11 -4 11 -6 0 -8 5 -5 10 3 6
1 10 -4 10 -6 0 -11 -3 -11 -7z"/>
<path d="M3050 2320 c0 -5 5 -10 10 -10 6 0 10 5 10 10 0 6 -4 10 -10 10 -5 0
-10 -4 -10 -10z"/>
<path d="M3001 2286 c-9 -10 -8 -15 2 -19 8 -3 13 3 13 14 0 23 0 23 -15 5z"/>
<path d="M3035 2260 c3 -5 8 -10 11 -10 2 0 4 5 4 10 0 6 -5 10 -11 10 -5 0
-7 -4 -4 -10z"/>
<path d="M2917 2213 c-13 -12 -7 -22 12 -20 15 1 17 4 9 14 -12 15 -13 15 -21
6z"/>
<path d="M2888 2195 c-3 -6 0 -18 7 -28 11 -16 13 -16 19 -2 3 9 2 13 -3 10
-5 -3 -11 3 -13 12 -2 10 -6 13 -10 8z"/>
<path d="M1159 2153 c-13 -16 -12 -17 4 -4 9 7 17 15 17 17 0 8 -8 3 -21 -13z"/>
<path d="M1176 2142 c-3 -5 1 -9 9 -9 8 0 15 4 15 9 0 4 -4 8 -9 8 -6 0 -12
-4 -15 -8z"/>
<path d="M2823 2126 c0 -8 11 -13 24 -13 27 0 26 0 -3 15 -16 8 -21 8 -21 -2z"/>
<path d="M1069 2083 c-13 -16 -12 -17 4 -4 16 13 21 21 13 21 -2 0 -10 -8 -17
-17z"/>
<path d="M2762 2065 c4 -4 -2 -15 -14 -25 -24 -19 -13 -32 17 -19 19 7 19 8 1
8 -19 1 -19 1 -1 14 15 12 16 15 4 22 -8 5 -11 5 -7 0z"/>
<path d="M1067 2039 c4 -13 8 -18 11 -10 2 7 -1 18 -6 23 -8 8 -9 4 -5 -13z"/>
<path d="M1030 2043 c0 -6 6 -13 13 -16 9 -3 9 -7 -2 -20 -7 -10 -9 -17 -3
-17 18 0 23 33 7 49 -9 9 -15 11 -15 4z"/>
<path d="M977 1999 c7 -7 15 -10 18 -7 3 3 -2 9 -12 12 -14 6 -15 5 -6 -5z"/>
<path d="M977 1940 c-8 -11 -17 -17 -20 -13 -4 3 -7 -1 -7 -10 0 -23 2 -22 33
13 15 17 23 30 18 30 -6 0 -16 -9 -24 -20z"/>
<path d="M920 1940 c-8 -5 -10 -10 -5 -10 6 0 17 5 25 10 8 5 11 10 5 10 -5 0
-17 -5 -25 -10z"/>
<path d="M2651 1913 c0 -11 3 -13 6 -5 2 6 10 9 15 6 7 -4 8 -2 4 4 -11 18
-26 14 -25 -5z"/>
<path d="M922 1912 c-7 -5 -10 -16 -7 -24 4 -9 0 -18 -9 -21 -9 -4 -16 -12
-16 -19 0 -20 40 25 45 50 4 25 5 25 -13 14z"/>
<path d="M864 1848 c3 -11 -3 -23 -16 -32 -11 -8 -18 -20 -16 -26 2 -6 13 2
25 18 15 21 18 33 11 43 -8 11 -9 11 -4 -3z"/>
<path d="M814 1828 c0 -17 2 -17 12 -4 6 9 13 15 15 13 2 -1 3 0 1 2 -8 14
-28 6 -28 -11z"/>
<path d="M771 1754 c0 -11 3 -14 6 -6 3 7 2 16 -1 19 -3 4 -6 -2 -5 -13z"/>
<path d="M2440 1720 c-13 -8 -12 -10 3 -10 11 0 15 -4 11 -12 -4 -7 -3 -8 4
-4 6 4 9 13 5 21 -6 18 -4 17 -23 5z"/>
<path d="M2430 1691 c0 -6 4 -13 10 -16 6 -3 7 1 4 9 -7 18 -14 21 -14 7z"/>
<path d="M2352 1647 c-11 -13 -10 -17 7 -26 14 -8 22 -8 27 1 4 6 3 8 -4 4 -6
-3 -12 3 -14 16 -3 19 -4 20 -16 5z"/>
<path d="M616 1623 c-6 -14 -5 -15 5 -6 7 7 10 15 7 18 -3 3 -9 -2 -12 -12z"/>
<path d="M2235 1480 c-3 -5 -1 -10 4 -10 6 0 11 5 11 10 0 6 -2 10 -4 10 -3 0
-8 -4 -11 -10z"/>
<path d="M2180 1426 c0 -2 7 -7 16 -10 8 -3 12 -2 9 4 -6 10 -25 14 -25 6z"/>
<path d="M2037 1326 c-3 -8 0 -17 7 -19 10 -4 12 1 9 14 -6 23 -9 24 -16 5z"/>
<path d="M335 1315 c11 -9 19 -21 18 -26 -5 -17 6 -9 18 12 9 17 8 20 -3 17
-7 -3 -22 -1 -33 4 l-20 9 20 -16z"/>
<path d="M216 1202 c-3 -5 1 -9 9 -9 8 0 12 4 9 9 -3 4 -7 8 -9 8 -2 0 -6 -4
-9 -8z"/>
<path d="M230 1169 c0 -5 5 -7 10 -4 6 3 10 8 10 11 0 2 -4 4 -10 4 -5 0 -10
-5 -10 -11z"/>
<path d="M1881 1175 c0 -5 4 -17 9 -25 7 -11 10 -11 10 -2 0 7 5 10 12 6 7 -4
8 -3 4 5 -4 6 -11 9 -16 6 -4 -3 -11 1 -13 7 -3 7 -6 9 -6 3z"/>
<path d="M150 1118 c0 -4 7 -8 15 -8 8 0 15 4 15 8 0 5 -7 9 -15 9 -8 0 -15
-4 -15 -9z"/>
<path d="M1750 1018 c0 -4 4 -8 9 -8 6 0 12 4 15 8 3 5 -1 9 -9 9 -8 0 -15 -4
-15 -9z"/>
<path d="M1750 990 c0 -5 5 -10 11 -10 5 0 7 5 4 10 -3 6 -8 10 -11 10 -2 0
-4 -4 -4 -10z"/>
<path d="M186 961 c-3 -5 3 -11 15 -14 16 -4 18 -3 8 9 -13 16 -16 17 -23 5z"/>
<path d="M1695 940 c-3 -6 1 -7 9 -4 18 7 21 14 7 14 -6 0 -13 -4 -16 -10z"/>
<path d="M1636 914 c-3 -8 -10 -13 -15 -9 -5 3 -12 1 -15 -4 -6 -9 34 -24 43
-16 2 3 -1 5 -8 5 -7 0 -9 5 -6 10 4 7 12 7 25 0 13 -7 21 -7 26 2 4 6 3 8 -4
4 -6 -3 -17 0 -25 9 -13 13 -16 13 -21 -1z"/>
<path d="M257 807 c-3 -8 1 -14 8 -14 7 0 11 6 8 14 -3 7 -6 13 -8 13 -2 0 -5
-6 -8 -13z"/>
<path d="M346 723 c-6 -14 -5 -15 5 -6 7 7 10 15 7 18 -3 3 -9 -2 -12 -12z"/>
<path d="M359 708 c-5 -18 -6 -38 -1 -34 7 8 12 36 6 36 -2 0 -4 -1 -5 -2z"/>
<path d="M398 683 c7 -3 16 -2 19 1 4 3 -2 6 -13 5 -11 0 -14 -3 -6 -6z"/>
<path d="M1435 680 c-3 -5 -1 -10 4 -10 6 0 11 5 11 10 0 6 -2 10 -4 10 -3 0
-8 -4 -11 -10z"/>
<path d="M1363 649 c-1 -10 2 -19 8 -19 11 0 12 27 1 34 -4 2 -9 -4 -9 -15z"/>
<path d="M1393 615 c0 -8 4 -12 9 -9 5 3 6 10 3 15 -9 13 -12 11 -12 -6z"/>
<path d="M550 560 c0 -5 5 -10 11 -10 5 0 7 5 4 10 -3 6 -8 10 -11 10 -2 0 -4
-4 -4 -10z"/>
<path d="M1290 530 c-6 -11 -8 -20 -6 -20 3 0 10 9 16 20 6 11 8 20 6 20 -3 0
-10 -9 -16 -20z"/>
<path d="M1213 504 c4 -7 0 -17 -8 -24 -8 -7 -15 -18 -15 -24 0 -6 7 -2 16 9
8 11 17 19 20 17 15 -9 12 7 -3 19 -9 8 -14 9 -10 3z"/>
<path d="M1161 447 c-8 -10 -7 -14 4 -14 8 0 15 6 15 14 0 7 -2 13 -4 13 -2 0
-9 -6 -15 -13z"/>
<path d="M615 440 c-3 -6 1 -7 9 -4 18 7 21 14 7 14 -6 0 -13 -4 -16 -10z"/>
<path d="M1200 440 c-8 -5 -12 -12 -9 -15 4 -3 12 1 19 10 14 17 11 19 -10 5z"/>
<path d="M765 350 c3 -4 2 -10 -2 -13 -5 -2 -2 -2 5 -1 7 2 15 -3 19 -11 3 -9
15 -20 27 -26 19 -9 19 -9 4 4 -12 10 -14 17 -7 24 8 8 7 13 0 17 -18 11 -52
16 -46 6z m40 -18 c-3 -3 -11 0 -18 7 -9 10 -8 11 6 5 10 -3 15 -9 12 -12z"/>
<path d="M830 325 c0 -9 5 -15 11 -13 6 2 11 8 11 13 0 5 -5 11 -11 13 -6 2
-11 -4 -11 -13z"/>
<path d="M899 308 c7 -9 9 -23 5 -30 -6 -10 -4 -11 7 0 11 10 10 15 -6 30 -17
15 -18 15 -6 0z"/>
</g>
</svg>
