<svg id="svg" xmlns="http://www.w3.org/2000/svg" xmlns:xlink="http://www.w3.org/1999/xlink" width="400" height="374.0740740740741" viewBox="0, 0, 400,374.0740740740741"><g id="svgg"><path id="path0" d="M31.057 3.728 C 31.057 3.926,29.500 4.136,27.596 4.196 C 24.447 4.293,24.102 4.377,23.775 5.122 C 23.578 5.572,23.102 6.023,22.718 6.123 C 22.335 6.223,21.930 6.655,21.818 7.082 C 21.707 7.509,21.379 7.858,21.090 7.858 C 20.800 7.858,20.372 8.279,20.138 8.793 C 19.903 9.308,19.421 9.729,19.067 9.729 C 18.385 9.729,17.974 10.740,17.966 12.442 C 17.963 13.007,17.792 13.471,17.587 13.471 C 17.339 13.471,17.212 32.055,17.212 68.475 C 17.212 104.896,17.339 123.480,17.587 123.480 C 17.792 123.480,17.963 123.943,17.966 124.509 C 17.975 126.272,18.381 127.222,19.127 127.222 C 19.645 127.222,19.833 127.494,19.837 128.251 C 19.848 130.536,20.172 130.964,21.893 130.964 C 23.287 130.964,23.522 131.084,23.727 131.899 C 23.933 132.720,24.164 132.834,25.613 132.834 C 27.039 132.834,27.279 132.949,27.383 133.676 L 27.502 134.518 82.320 134.518 L 137.138 134.518 137.255 133.696 C 137.353 133.002,137.646 132.856,139.125 132.760 C 140.602 132.665,140.898 132.518,140.996 131.828 C 141.068 131.318,141.421 130.966,141.931 130.893 C 142.441 130.820,142.794 130.468,142.867 129.958 C 142.939 129.447,143.292 129.095,143.802 129.022 C 144.312 128.949,144.665 128.597,144.738 128.087 C 144.810 127.576,145.163 127.224,145.673 127.151 C 146.456 127.040,146.497 126.838,146.598 122.624 C 146.701 118.320,146.725 118.205,147.628 117.862 L 148.553 117.510 148.458 68.390 L 148.363 19.270 147.534 19.153 C 146.753 19.041,146.700 18.829,146.599 15.411 C 146.498 11.975,146.448 11.781,145.650 11.667 C 144.922 11.564,144.808 11.324,144.808 9.897 C 144.808 8.448,144.694 8.218,143.873 8.011 C 143.312 7.871,142.937 7.509,142.937 7.109 C 142.937 6.316,142.216 5.987,140.475 5.987 C 139.469 5.987,139.196 5.835,139.196 5.279 C 139.196 4.312,138.499 4.116,135.071 4.116 C 133.454 4.116,132.026 3.948,131.899 3.742 C 131.587 3.237,31.057 3.223,31.057 3.728 M180.543 3.742 C 180.415 3.948,179.072 4.116,177.558 4.116 C 174.469 4.116,173.620 4.328,173.620 5.100 C 173.620 5.391,173.199 5.821,172.685 6.055 C 172.170 6.289,171.749 6.624,171.749 6.798 C 171.749 6.972,171.328 7.480,170.814 7.928 C 170.299 8.375,169.878 8.963,169.878 9.235 C 169.878 9.507,169.560 9.729,169.170 9.729 C 168.338 9.729,168.007 10.428,168.007 12.192 C 168.007 13.197,167.856 13.471,167.299 13.471 C 166.148 13.471,166.137 13.701,166.137 37.418 C 166.137 61.136,166.148 61.366,167.299 61.366 C 167.874 61.366,168.007 61.643,168.007 62.836 C 168.007 64.204,168.731 65.482,169.506 65.482 C 169.683 65.482,169.935 65.819,170.065 66.230 C 170.196 66.642,170.617 66.978,171.000 66.978 C 171.438 66.978,171.742 67.291,171.817 67.820 C 171.915 68.515,172.206 68.682,173.475 68.775 C 174.688 68.864,175.103 69.082,175.433 69.807 L 175.852 70.726 200.087 70.629 L 224.322 70.533 224.684 69.709 C 224.956 69.089,225.420 68.857,226.555 68.773 C 227.780 68.683,228.086 68.508,228.180 67.843 C 228.253 67.333,228.605 66.981,229.116 66.908 C 229.626 66.835,229.978 66.483,230.051 65.972 C 230.124 65.462,230.476 65.110,230.987 65.037 C 231.676 64.939,231.823 64.644,231.919 63.167 C 232.014 61.687,232.160 61.394,232.854 61.296 L 233.676 61.179 233.676 37.418 L 233.676 13.658 232.854 13.541 C 232.160 13.442,232.014 13.149,231.919 11.670 C 231.822 10.177,231.680 9.898,230.964 9.796 C 230.434 9.721,230.122 9.418,230.122 8.980 C 230.122 8.596,229.785 8.176,229.373 8.045 C 228.962 7.914,228.625 7.662,228.625 7.485 C 228.625 6.754,227.366 5.987,226.166 5.987 C 225.460 5.987,224.883 5.831,224.883 5.639 C 224.883 4.721,223.619 4.116,221.698 4.116 C 220.593 4.116,219.585 3.948,219.457 3.742 C 219.308 3.500,212.414 3.368,200.000 3.368 C 187.586 3.368,180.692 3.500,180.543 3.742 M268.288 3.742 C 268.288 3.960,267.033 4.116,265.270 4.116 C 262.134 4.116,260.804 4.508,260.804 5.432 C 260.804 5.729,260.384 6.078,259.869 6.207 C 259.309 6.348,258.934 6.710,258.934 7.109 C 258.934 7.509,258.558 7.871,257.998 8.011 C 257.419 8.157,257.063 8.512,257.063 8.944 C 257.063 9.335,256.722 9.731,256.287 9.844 C 255.860 9.956,255.428 10.361,255.328 10.745 C 255.228 11.128,254.777 11.604,254.327 11.801 C 253.584 12.127,253.498 12.475,253.401 15.539 C 253.304 18.616,253.221 18.949,252.466 19.281 L 251.637 19.645 251.533 36.857 C 251.422 55.291,251.438 55.580,252.573 55.940 C 253.237 56.151,253.321 56.507,253.321 59.115 C 253.321 62.509,253.519 63.237,254.443 63.237 C 254.843 63.237,255.205 63.611,255.345 64.172 C 255.493 64.762,255.845 65.108,256.295 65.108 C 256.752 65.108,257.054 65.412,257.130 65.949 C 257.206 66.482,257.550 66.834,258.069 66.908 C 258.579 66.981,258.932 67.333,259.004 67.843 C 259.076 68.349,259.429 68.706,259.927 68.777 C 260.419 68.847,260.824 69.250,260.964 69.806 L 261.193 70.720 284.572 70.720 C 298.710 70.720,307.951 70.858,307.951 71.068 C 307.951 71.817,309.189 72.591,310.385 72.591 C 311.303 72.591,311.705 72.788,311.874 73.320 C 312.001 73.722,312.425 74.151,312.816 74.275 C 313.206 74.399,313.627 74.820,313.751 75.210 C 313.875 75.601,314.303 76.024,314.703 76.151 C 315.411 76.376,315.432 76.991,315.526 99.837 L 315.622 123.293 316.444 123.410 C 317.138 123.509,317.285 123.801,317.380 125.281 C 317.476 126.773,317.618 127.052,318.335 127.154 C 319.036 127.254,319.177 127.507,319.177 128.670 C 319.177 130.430,319.711 130.964,321.471 130.964 C 322.633 130.964,322.887 131.104,322.986 131.805 C 323.087 132.517,323.368 132.664,324.802 132.758 C 326.131 132.845,326.576 133.047,326.860 133.694 L 327.222 134.518 349.673 134.518 L 372.123 134.518 372.485 133.694 C 372.757 133.074,373.222 132.842,374.356 132.758 C 375.501 132.674,375.954 132.444,376.235 131.805 C 376.523 131.149,376.911 130.964,377.999 130.964 C 379.576 130.964,380.168 130.255,380.168 128.369 C 380.168 127.611,380.354 127.222,380.716 127.222 C 381.442 127.222,382.039 126.050,382.039 124.627 C 382.039 123.996,382.208 123.480,382.413 123.480 C 382.661 123.480,382.788 104.896,382.788 68.475 C 382.788 32.055,382.661 13.471,382.413 13.471 C 382.208 13.471,382.039 12.954,382.039 12.323 C 382.039 10.919,381.444 9.729,380.742 9.729 C 380.454 9.729,380.115 9.401,379.987 8.999 C 379.860 8.598,379.428 8.166,379.027 8.039 C 378.626 7.912,378.297 7.563,378.297 7.263 C 378.297 6.964,377.877 6.527,377.362 6.293 C 376.848 6.059,376.427 5.647,376.427 5.379 C 376.427 4.456,374.971 4.116,371.026 4.116 C 368.639 4.116,367.072 3.968,367.072 3.742 C 367.072 3.494,350.359 3.368,317.680 3.368 C 285.002 3.368,268.288 3.494,268.288 3.742 M204.303 23.938 C 204.303 24.603,206.486 25.444,208.213 25.444 C 209.150 25.444,209.916 25.616,209.916 25.827 C 209.916 26.037,210.337 26.401,210.851 26.635 C 211.366 26.869,211.787 27.258,211.787 27.499 C 211.787 27.740,212.208 28.162,212.722 28.438 L 213.658 28.938 213.658 37.438 C 213.658 45.724,213.638 45.942,212.881 46.140 C 212.455 46.252,212.018 46.677,211.911 47.085 C 211.805 47.492,211.384 47.913,210.976 48.020 C 210.568 48.127,210.143 48.563,210.031 48.990 C 209.720 50.181,190.084 50.216,190.084 49.025 C 190.084 48.546,189.753 48.200,189.149 48.049 C 188.634 47.920,188.213 47.581,188.213 47.297 C 188.213 47.012,187.877 46.569,187.465 46.312 C 186.753 45.867,186.717 45.439,186.717 37.437 L 186.717 29.030 188.596 27.237 C 190.329 25.585,190.623 25.444,192.351 25.444 C 193.850 25.444,194.394 25.264,195.055 24.548 C 195.940 23.592,204.303 23.040,204.303 23.938 M102.593 40.131 C 102.692 40.827,102.982 40.992,104.267 41.086 C 105.560 41.180,105.861 41.354,106.052 42.115 C 106.193 42.679,106.551 43.031,106.982 43.031 C 107.418 43.031,107.772 43.385,107.918 43.966 C 108.047 44.481,108.395 44.902,108.692 44.902 C 109.004 44.902,109.427 45.572,109.695 46.492 C 109.951 47.367,110.337 48.203,110.552 48.349 C 111.328 48.878,111.073 89.771,110.290 90.343 C 109.930 90.606,109.635 91.004,109.635 91.227 C 109.635 91.450,109.305 91.863,108.902 92.145 C 108.475 92.445,108.065 93.311,107.919 94.225 C 107.674 95.758,107.638 95.790,106.185 95.790 C 105.050 95.790,104.658 95.955,104.518 96.490 C 104.381 97.014,103.864 97.246,102.469 97.411 C 101.443 97.533,100.084 97.891,99.449 98.208 C 97.737 99.062,64.972 99.076,64.119 98.223 C 63.810 97.914,63.106 97.660,62.555 97.659 C 60.875 97.656,58.746 96.915,58.746 96.334 C 58.746 96.004,58.380 95.790,57.811 95.790 C 57.128 95.790,56.876 95.590,56.876 95.049 C 56.876 94.575,56.546 94.225,55.962 94.079 C 55.405 93.939,55.003 93.534,54.933 93.042 C 54.860 92.536,54.504 92.191,53.976 92.116 C 53.195 92.005,53.134 91.808,53.134 89.403 C 53.134 86.887,53.106 86.810,52.198 86.810 L 51.263 86.810 51.263 69.658 L 51.263 52.506 52.198 52.079 C 53.055 51.689,53.134 51.451,53.134 49.239 C 53.134 47.020,53.202 46.815,53.976 46.705 C 54.599 46.617,54.850 46.295,54.942 45.463 C 55.090 44.135,55.980 43.031,56.903 43.031 C 58.059 43.031,58.746 42.598,58.746 41.868 C 58.746 41.362,59.014 41.160,59.682 41.160 C 60.430 41.160,60.617 40.973,60.617 40.225 L 60.617 39.289 81.546 39.289 L 102.474 39.289 102.593 40.131 M69.337 52.367 C 69.219 52.816,68.547 53.295,67.594 53.609 C 66.211 54.065,66.005 54.290,65.691 55.685 C 65.497 56.546,65.206 57.250,65.045 57.250 C 63.891 57.250,63.611 59.539,63.611 68.991 L 63.611 78.524 64.546 79.260 C 65.216 79.787,65.482 80.356,65.482 81.267 C 65.482 82.814,67.843 85.211,69.720 85.571 C 70.373 85.696,71.354 86.110,71.901 86.491 C 73.464 87.582,89.517 87.537,91.674 86.436 C 92.481 86.024,93.457 85.688,93.842 85.688 C 94.633 85.688,96.956 83.544,98.503 81.388 L 99.532 79.954 99.532 68.771 C 99.532 57.583,99.294 55.379,98.086 55.379 C 97.919 55.379,97.590 54.958,97.355 54.443 C 97.121 53.929,96.692 53.508,96.403 53.508 C 96.113 53.508,95.601 53.087,95.264 52.572 L 94.651 51.637 82.089 51.637 C 69.947 51.637,69.521 51.661,69.337 52.367 M234.170 84.004 C 233.892 84.614,233.439 84.939,232.868 84.939 C 232.184 84.939,231.993 85.143,231.993 85.875 C 231.993 86.447,231.780 86.810,231.444 86.810 C 230.257 86.810,230.122 88.244,230.122 100.791 C 230.122 113.718,230.209 114.500,231.645 114.500 C 231.836 114.500,231.993 114.818,231.993 115.207 C 231.993 115.645,232.340 116.002,232.903 116.144 C 233.404 116.269,233.917 116.697,234.043 117.095 C 234.541 118.665,258.605 118.789,259.921 117.228 C 260.793 116.194,262.675 115.667,262.675 116.457 C 262.675 116.755,262.254 117.190,261.740 117.425 L 260.804 117.851 260.804 132.265 C 260.804 144.288,260.719 146.679,260.287 146.679 C 260.002 146.679,259.681 146.342,259.574 145.931 C 259.383 145.202,259.063 145.182,247.581 145.182 C 236.113 145.182,235.778 145.203,235.547 145.931 C 235.417 146.342,235.090 146.679,234.820 146.679 C 234.551 146.679,233.805 146.784,233.162 146.913 C 231.804 147.185,231.434 146.159,232.740 145.744 C 233.861 145.388,233.893 144.917,233.781 130.776 C 233.677 117.710,233.674 117.679,232.857 117.321 C 232.407 117.123,231.957 116.647,231.856 116.264 C 231.756 115.880,231.340 115.479,230.932 115.373 C 230.524 115.266,230.114 114.884,230.020 114.524 C 229.539 112.686,201.447 112.892,200.605 114.739 C 200.384 115.225,199.965 115.622,199.674 115.622 C 199.036 115.622,198.690 116.423,198.690 117.898 C 198.690 118.498,198.534 118.990,198.343 118.990 C 196.923 118.990,196.819 119.841,196.819 131.543 L 196.819 142.920 197.734 143.519 C 198.377 143.941,198.683 144.527,198.763 145.492 C 198.845 146.481,199.107 146.967,199.696 147.226 C 200.147 147.423,200.597 147.899,200.698 148.282 C 200.798 148.666,201.229 149.071,201.656 149.183 C 202.083 149.294,202.432 149.558,202.432 149.769 C 202.432 151.018,203.640 151.145,215.555 151.157 L 227.367 151.169 228.181 150.234 C 230.092 148.036,230.105 148.120,230.211 163.611 L 230.309 177.923 231.151 178.043 C 231.760 178.129,231.993 178.414,231.993 179.072 C 231.993 179.786,232.188 179.981,232.902 179.981 C 233.560 179.981,233.844 180.214,233.931 180.823 L 234.051 181.665 247.521 181.665 L 260.992 181.665 261.361 180.823 C 261.564 180.360,262.024 179.981,262.383 179.981 C 262.767 179.981,263.132 179.596,263.270 179.046 C 263.399 178.531,263.733 178.110,264.012 178.110 C 265.165 178.110,265.295 176.584,265.295 162.981 C 265.295 151.068,265.367 149.298,265.856 149.298 C 266.165 149.298,266.417 149.490,266.417 149.725 C 266.417 151.467,288.364 152.048,290.061 150.351 C 290.511 149.900,291.479 149.436,292.213 149.318 C 293.108 149.175,293.667 148.830,293.915 148.266 C 294.118 147.805,294.491 147.428,294.743 147.428 C 295.361 147.428,295.978 146.207,295.978 144.985 C 295.978 144.321,296.215 143.928,296.691 143.803 C 298.512 143.327,298.414 120.861,296.592 120.861 C 296.208 120.861,296.022 120.193,295.908 118.403 C 295.736 115.701,295.398 115.263,293.477 115.254 C 292.648 115.250,292.219 115.036,292.065 114.552 C 291.524 112.845,265.092 112.827,264.646 114.533 C 264.287 115.907,263.424 115.674,263.424 114.202 C 263.424 113.113,263.609 112.725,264.266 112.437 L 265.108 112.067 265.108 100.468 L 265.108 88.868 264.285 88.751 C 263.592 88.652,263.445 88.360,263.350 86.880 L 263.237 85.126 261.459 85.012 C 259.855 84.909,259.682 84.809,259.682 83.983 L 259.682 83.068 247.139 83.068 L 234.596 83.068 234.170 84.004 M26.032 154.751 C 25.709 155.074,25.444 155.495,25.444 155.686 C 25.444 155.877,24.867 156.034,24.161 156.034 C 22.961 156.034,21.703 156.801,21.703 157.532 C 21.703 157.709,21.366 157.961,20.954 158.092 C 20.543 158.222,20.206 158.574,20.206 158.873 C 20.206 159.173,19.785 159.609,19.270 159.844 C 18.615 160.142,18.335 160.567,18.335 161.261 C 18.335 161.806,18.088 162.579,17.786 162.978 C 16.960 164.069,16.960 210.112,17.786 211.203 C 18.088 211.603,18.335 212.407,18.335 212.990 C 18.335 213.760,18.577 214.142,19.219 214.387 C 19.706 214.571,20.195 215.072,20.307 215.500 C 20.418 215.927,20.751 216.277,21.046 216.277 C 21.341 216.277,21.774 216.698,22.009 217.212 C 22.356 217.975,22.702 218.148,23.880 218.148 C 25.057 218.148,25.403 218.321,25.750 219.083 L 26.177 220.019 50.226 220.013 C 74.474 220.007,74.882 219.987,75.320 218.803 C 75.475 218.382,75.955 218.148,76.665 218.148 C 78.234 218.148,78.952 217.796,78.952 217.026 C 78.952 216.626,79.327 216.264,79.888 216.123 C 80.402 215.994,80.823 215.635,80.823 215.326 C 80.823 215.017,81.244 214.572,81.759 214.338 C 82.596 213.956,82.694 213.690,82.694 211.792 C 82.694 210.015,82.845 209.530,83.630 208.793 L 84.565 207.914 84.565 187.053 L 84.565 166.191 83.630 165.455 C 82.845 164.838,82.694 164.404,82.694 162.765 C 82.694 160.814,80.704 157.905,79.370 157.905 C 79.140 157.905,78.952 157.658,78.952 157.356 C 78.952 156.660,77.796 156.034,76.510 156.034 C 75.845 156.034,75.453 155.796,75.328 155.320 C 75.032 154.187,74.731 154.173,50.073 154.168 C 29.247 154.163,26.554 154.229,26.032 154.751 M146.399 154.411 C 146.141 154.514,145.931 154.904,145.931 155.276 C 145.931 155.686,145.562 156.045,144.995 156.187 C 144.414 156.333,144.060 156.687,144.060 157.123 C 144.060 157.559,143.705 157.913,143.120 158.059 L 142.180 158.295 142.278 171.664 L 142.376 185.033 143.218 185.402 C 143.681 185.605,144.060 186.031,144.060 186.347 C 144.060 187.296,141.308 186.862,140.861 185.842 C 140.312 184.594,117.774 184.370,117.112 185.607 C 116.885 186.031,116.272 186.541,115.750 186.739 C 115.228 186.937,114.718 187.419,114.616 187.809 C 114.514 188.199,114.110 188.602,113.718 188.704 C 113.327 188.807,112.896 189.201,112.761 189.581 C 112.626 189.961,112.298 190.526,112.033 190.837 C 110.244 192.938,110.277 212.922,112.071 214.260 C 112.378 214.489,112.629 214.926,112.629 215.232 C 112.629 216.767,113.793 218.148,115.088 218.148 C 116.097 218.148,116.370 218.299,116.370 218.856 C 116.370 219.975,116.874 220.019,129.654 220.019 C 142.383 220.019,142.937 219.971,142.937 218.882 C 142.937 218.459,143.258 218.154,143.779 218.080 C 144.288 218.008,144.664 217.660,144.730 217.201 C 144.790 216.783,145.211 216.278,145.665 216.078 C 146.491 215.716,146.492 215.706,146.591 203.238 L 146.689 190.761 145.749 190.021 C 145.206 189.594,144.808 188.898,144.808 188.373 C 144.808 187.231,145.633 187.190,146.123 188.307 L 146.492 189.149 160.796 189.247 L 175.100 189.345 175.336 188.405 C 175.483 187.820,175.837 187.465,176.273 187.465 C 176.708 187.465,177.062 187.111,177.208 186.529 C 177.354 185.948,177.709 185.594,178.144 185.594 C 179.214 185.594,179.263 184.895,179.150 171.001 L 179.046 158.092 178.204 157.972 C 177.666 157.896,177.362 157.594,177.362 157.137 C 177.362 156.686,177.016 156.335,176.427 156.187 C 175.866 156.047,175.491 155.685,175.491 155.285 C 175.491 154.918,175.225 154.515,174.899 154.390 C 174.193 154.119,147.073 154.138,146.399 154.411 M319.645 154.411 C 319.387 154.514,319.177 154.904,319.177 155.276 C 319.177 155.686,318.808 156.045,318.241 156.187 C 317.691 156.325,317.306 156.691,317.306 157.075 C 317.306 157.433,316.927 157.893,316.464 158.096 L 315.622 158.466 315.622 171.749 L 315.622 185.033 316.441 185.392 C 316.891 185.590,317.342 186.065,317.442 186.449 C 317.542 186.832,317.938 187.228,318.322 187.329 C 318.705 187.429,319.181 187.879,319.379 188.330 C 319.800 189.289,347.107 189.849,348.226 188.920 C 348.635 188.580,348.737 188.686,348.737 189.451 C 348.737 190.157,348.517 190.438,347.895 190.526 L 347.053 190.645 346.955 202.526 L 346.856 214.406 347.776 214.406 C 348.608 214.406,348.707 214.576,348.810 216.183 C 348.906 217.684,349.052 217.979,349.743 218.077 C 350.253 218.150,350.606 218.503,350.679 219.013 L 350.795 219.832 365.949 219.930 C 382.811 220.040,382.039 220.156,382.039 217.515 C 382.039 216.834,382.208 216.277,382.413 216.277 C 383.094 216.277,382.908 188.714,382.226 188.452 C 381.918 188.334,381.665 188.006,381.665 187.724 C 381.665 187.442,381.244 187.019,380.730 186.785 C 380.215 186.550,379.794 186.120,379.794 185.829 C 379.794 184.905,378.891 184.846,364.796 184.846 C 352.767 184.846,350.982 184.773,350.982 184.284 C 350.982 183.976,351.214 183.723,351.497 183.723 C 352.344 183.723,352.479 181.893,352.474 170.486 C 352.468 158.758,352.406 158.071,351.322 157.787 C 350.929 157.684,350.608 157.359,350.608 157.064 C 350.608 156.769,350.187 156.336,349.673 156.102 C 349.158 155.867,348.737 155.437,348.737 155.146 C 348.737 154.855,348.471 154.515,348.145 154.390 C 347.439 154.119,320.319 154.138,319.645 154.411 M60.702 175.593 C 61.263 176.163,61.901 176.963,62.119 177.370 C 62.336 177.777,62.761 178.110,63.063 178.110 C 63.529 178.110,63.611 179.454,63.611 187.091 C 63.611 194.728,63.529 196.071,63.063 196.071 C 62.761 196.071,62.314 196.450,62.068 196.913 C 61.822 197.376,61.311 197.975,60.932 198.244 C 60.553 198.513,60.243 198.976,60.243 199.273 C 60.243 199.730,58.751 199.813,50.575 199.813 L 40.906 199.813 40.480 198.877 C 40.245 198.363,39.824 197.942,39.544 197.942 C 39.264 197.942,38.843 197.521,38.609 197.007 C 38.374 196.492,38.011 196.071,37.800 196.071 C 37.551 196.071,37.418 193.019,37.418 187.294 L 37.418 178.517 39.494 176.425 L 41.571 174.332 50.626 174.444 L 59.682 174.556 60.702 175.593 M202.686 192.574 C 202.547 192.714,202.432 193.128,202.432 193.494 C 202.432 194.022,202.066 194.183,200.655 194.273 L 198.877 194.387 198.764 196.141 C 198.669 197.621,198.523 197.913,197.829 198.012 L 197.007 198.129 197.007 210.908 C 197.007 222.773,196.961 223.663,196.376 223.350 C 196.030 223.164,190.617 223.012,184.348 223.012 L 172.950 223.012 172.069 223.941 C 171.511 224.530,170.770 224.873,170.047 224.877 C 168.533 224.885,168.007 225.485,168.007 227.203 C 168.007 228.371,167.875 228.625,167.266 228.625 C 166.148 228.625,166.106 229.212,166.219 243.405 C 166.323 256.464,166.326 256.502,167.141 256.860 C 167.591 257.058,168.134 257.605,168.349 258.076 C 168.564 258.548,168.985 258.934,169.284 258.934 C 169.583 258.934,169.935 259.270,170.065 259.681 C 170.423 260.810,170.917 260.844,185.314 260.726 C 197.846 260.624,198.691 260.659,198.691 261.272 C 198.690 261.675,198.406 261.927,197.949 261.927 C 196.843 261.927,196.787 262.602,196.902 274.462 L 197.007 285.313 197.829 285.430 C 198.523 285.529,198.669 285.822,198.764 287.301 C 198.860 288.778,199.007 289.074,199.696 289.172 C 200.207 289.244,200.559 289.597,200.632 290.107 L 200.748 290.926 215.282 291.024 C 229.262 291.118,229.822 291.095,230.000 290.415 C 230.102 290.026,230.592 289.522,231.089 289.296 C 231.586 289.069,231.993 288.624,231.993 288.306 C 231.993 287.987,232.416 287.566,232.933 287.370 L 233.873 287.012 233.775 273.628 L 233.676 260.243 232.857 260.127 C 232.347 260.054,231.995 259.701,231.922 259.191 C 231.849 258.681,231.497 258.328,230.987 258.256 C 230.476 258.183,230.124 257.830,230.051 257.320 L 229.935 256.501 215.622 256.403 C 200.913 256.303,199.490 256.141,202.250 254.883 L 203.191 254.455 203.092 242.756 L 202.993 231.057 202.152 230.688 C 201.127 230.238,200.886 227.502,201.871 227.502 C 202.180 227.502,202.432 227.819,202.432 228.207 C 202.432 229.292,203.250 229.363,215.782 229.368 C 227.758 229.373,228.625 229.272,228.625 227.871 C 228.625 227.692,229.341 227.494,230.215 227.430 C 231.523 227.336,231.826 227.170,231.922 226.496 C 231.995 225.986,232.347 225.634,232.857 225.561 L 233.676 225.444 233.676 210.851 L 233.676 196.258 232.857 196.142 C 232.347 196.069,231.995 195.716,231.922 195.206 C 231.849 194.696,231.497 194.343,230.987 194.271 C 230.476 194.198,230.124 193.845,230.051 193.335 L 229.935 192.516 216.437 192.418 C 209.014 192.364,202.826 192.434,202.686 192.574 M271.876 193.265 C 271.728 193.854,271.377 194.200,270.926 194.200 C 270.469 194.200,270.168 194.504,270.092 195.042 C 270.015 195.583,269.671 195.927,269.130 196.004 L 268.288 196.123 268.288 209.790 C 268.288 223.142,268.305 223.461,269.036 223.652 C 269.513 223.777,269.785 224.162,269.785 224.715 C 269.785 226.716,270.416 227.502,272.021 227.502 C 272.849 227.502,273.527 227.659,273.527 227.850 C 273.527 229.278,274.346 229.373,286.623 229.373 C 298.865 229.373,299.719 229.275,299.719 227.871 C 299.719 227.692,300.435 227.494,301.310 227.430 L 302.900 227.315 303.013 225.561 C 303.108 224.082,303.255 223.789,303.948 223.690 L 304.771 223.573 304.869 210.758 L 304.968 197.942 304.027 197.942 C 303.148 197.942,303.087 197.820,303.087 196.071 C 303.087 194.325,303.025 194.200,302.152 194.200 C 301.403 194.200,301.216 194.013,301.216 193.265 L 301.216 192.329 286.664 192.329 L 272.111 192.329 271.876 193.265 M198.690 224.322 C 198.690 224.630,198.438 224.883,198.129 224.883 C 197.820 224.883,197.568 224.630,197.568 224.322 C 197.568 224.013,197.820 223.761,198.129 223.761 C 198.438 223.761,198.690 224.013,198.690 224.322 M200.561 226.193 C 200.561 226.501,200.309 226.754,200.000 226.754 C 199.691 226.754,199.439 226.501,199.439 226.193 C 199.439 225.884,199.691 225.631,200.000 225.631 C 200.309 225.631,200.561 225.884,200.561 226.193 M27.621 240.412 C 27.293 241.132,26.914 241.347,25.972 241.347 C 24.805 241.347,23.573 242.129,23.573 242.871 C 23.573 243.062,23.026 243.221,22.357 243.224 C 20.679 243.232,20.337 243.543,20.038 245.333 C 19.861 246.392,19.558 246.944,19.086 247.068 C 18.593 247.196,18.319 247.745,18.135 248.975 C 17.992 249.925,17.726 250.702,17.544 250.702 C 17.353 250.702,17.212 273.983,17.212 305.706 C 17.212 337.678,17.352 360.711,17.546 360.711 C 17.730 360.711,18.025 361.511,18.203 362.488 C 18.465 363.925,18.688 364.289,19.366 364.385 C 19.893 364.460,20.206 364.765,20.206 365.202 C 20.206 365.585,20.534 366.003,20.935 366.131 C 21.336 366.258,21.766 366.681,21.890 367.072 C 22.014 367.463,22.443 367.886,22.844 368.014 C 23.245 368.141,23.573 368.390,23.573 368.567 C 23.573 369.625,24.847 370.065,27.903 370.065 C 29.756 370.065,31.057 370.220,31.057 370.440 C 31.057 370.687,48.082 370.814,81.384 370.814 C 114.687 370.814,131.712 370.687,131.712 370.440 C 131.712 370.221,132.967 370.065,134.730 370.065 C 137.809 370.065,139.196 369.674,139.196 368.803 C 139.196 368.534,139.616 368.123,140.131 367.888 C 140.645 367.654,141.066 367.224,141.066 366.934 C 141.066 366.643,141.487 366.299,142.002 366.170 C 142.581 366.025,142.937 365.670,142.937 365.238 C 142.937 364.846,143.278 364.451,143.713 364.337 C 144.140 364.225,144.576 363.805,144.681 363.404 C 144.786 363.002,145.278 362.488,145.775 362.261 L 146.679 361.850 146.679 337.121 C 146.679 312.429,146.607 310.945,145.400 310.945 C 145.123 310.945,144.804 310.596,144.693 310.169 C 144.581 309.742,144.150 309.304,143.734 309.195 C 143.319 309.086,142.928 308.636,142.865 308.194 C 142.793 307.691,142.435 307.345,141.908 307.271 C 141.445 307.205,141.066 306.906,141.066 306.608 C 141.066 306.309,140.645 305.873,140.131 305.638 C 139.616 305.404,139.196 304.992,139.196 304.724 C 139.196 303.542,137.639 303.461,114.941 303.461 L 92.135 303.461 91.522 302.526 C 91.066 301.831,90.581 301.590,89.633 301.590 C 88.697 301.590,88.296 301.396,88.126 300.861 C 87.999 300.460,87.575 300.030,87.184 299.906 C 86.794 299.783,86.373 299.362,86.249 298.971 C 86.125 298.580,85.697 298.157,85.297 298.030 C 84.590 297.806,84.568 297.193,84.474 274.531 L 84.378 251.263 83.554 250.901 C 82.934 250.629,82.702 250.165,82.618 249.030 C 82.534 247.885,82.304 247.432,81.665 247.152 C 81.019 246.868,80.823 246.473,80.823 245.449 C 80.823 243.766,80.275 243.218,78.592 243.218 C 77.568 243.218,77.173 243.022,76.889 242.376 C 76.620 241.762,76.148 241.503,75.146 241.420 C 74.181 241.339,73.594 241.034,73.173 240.391 L 72.574 239.476 50.311 239.476 L 28.048 239.476 27.621 240.412 M268.943 247.364 C 268.583 247.574,268.288 247.990,268.288 248.288 C 268.288 248.719,267.640 248.831,265.134 248.831 C 262.055 248.831,260.804 249.271,260.804 250.354 C 260.804 250.545,260.269 250.702,259.615 250.702 C 258.054 250.702,255.192 253.625,255.192 255.219 C 255.192 255.929,254.956 256.339,254.456 256.497 C 253.311 256.861,253.282 257.582,253.398 282.762 L 253.508 306.404 255.285 308.107 C 256.263 309.043,257.063 309.961,257.063 310.146 C 257.063 310.331,257.610 310.899,258.279 311.410 C 258.948 311.920,260.131 312.992,260.909 313.793 L 262.323 315.248 286.640 315.248 L 310.957 315.248 312.551 313.564 C 313.428 312.638,314.604 311.582,315.164 311.217 C 315.725 310.852,316.183 310.386,316.183 310.182 C 316.183 309.977,316.983 309.043,317.961 308.107 L 319.738 306.404 319.850 283.137 C 319.974 257.414,319.954 256.992,318.601 256.376 C 318.094 256.145,317.680 255.711,317.680 255.412 C 317.680 255.113,317.360 254.766,316.969 254.642 C 316.578 254.518,316.154 254.002,316.026 253.495 C 315.881 252.916,315.528 252.572,315.079 252.572 C 314.685 252.572,314.259 252.244,314.131 251.843 C 314.004 251.442,313.580 251.013,313.190 250.889 C 312.799 250.765,312.381 250.353,312.261 249.974 C 311.979 249.084,311.002 248.842,307.671 248.836 C 306.179 248.833,304.958 248.674,304.958 248.483 C 304.958 247.000,304.464 246.959,286.690 246.971 C 275.778 246.978,269.361 247.120,268.943 247.364 M116.819 256.763 C 116.572 257.010,116.370 257.431,116.370 257.699 C 116.370 257.986,115.926 258.185,115.285 258.185 C 114.186 258.185,112.629 260.062,112.629 261.387 C 112.629 261.684,112.477 261.927,112.291 261.927 C 110.396 261.927,110.197 283.933,112.079 285.355 C 112.381 285.583,112.629 286.040,112.629 286.370 C 112.629 286.701,112.954 287.145,113.352 287.358 C 113.749 287.571,114.182 288.082,114.312 288.494 C 114.443 288.905,114.792 289.242,115.088 289.242 C 115.385 289.242,115.993 289.663,116.440 290.178 L 117.254 291.113 129.160 291.113 C 140.817 291.113,141.066 291.098,141.066 290.365 C 141.066 289.821,141.316 289.616,141.978 289.616 C 143.352 289.616,144.808 288.956,144.808 288.333 C 144.808 288.029,145.229 287.359,145.744 286.844 L 146.679 285.909 146.679 273.706 C 146.679 261.552,146.537 260.056,145.382 260.056 C 145.095 260.056,144.806 259.677,144.741 259.214 C 144.655 258.611,144.329 258.339,143.592 258.254 C 143.026 258.189,142.563 257.990,142.563 257.813 C 142.563 257.635,142.299 257.226,141.975 256.902 C 141.207 256.134,117.580 256.003,116.819 256.763 M292.717 268.805 C 293.172 269.089,294.376 269.426,295.390 269.555 C 297.280 269.795,298.310 270.538,299.252 272.342 C 299.871 273.529,299.913 288.914,299.300 290.109 C 299.069 290.558,298.055 291.726,297.046 292.703 L 295.212 294.481 286.665 294.481 L 278.118 294.481 276.197 292.589 C 274.750 291.165,274.275 290.426,274.275 289.599 C 274.275 288.906,273.999 288.328,273.527 288.033 C 272.833 287.600,272.778 287.160,272.778 282.056 C 272.778 276.929,272.830 276.519,273.527 276.146 C 274.134 275.821,274.275 275.362,274.275 273.715 C 274.275 270.982,275.897 269.411,278.718 269.411 C 279.283 269.411,280.072 269.163,280.471 268.861 C 281.486 268.094,291.502 268.047,292.717 268.805 M166.443 304.397 C 166.208 304.911,165.787 305.332,165.506 305.332 C 165.225 305.332,164.835 305.753,164.640 306.268 C 164.428 306.825,163.989 307.203,163.553 307.203 C 163.079 307.203,162.779 307.500,162.701 308.045 C 162.625 308.583,162.281 308.930,161.750 309.005 C 161.059 309.103,160.876 309.437,160.672 310.970 C 160.478 312.437,160.284 312.816,159.727 312.816 C 158.589 312.816,158.637 360.305,159.775 360.603 C 160.252 360.727,160.524 361.113,160.524 361.666 C 160.524 363.023,161.196 364.453,161.833 364.453 C 162.152 364.453,162.573 364.874,162.769 365.388 C 162.965 365.903,163.386 366.324,163.704 366.324 C 164.023 366.324,164.444 366.745,164.640 367.259 C 164.835 367.774,165.212 368.195,165.477 368.195 C 165.742 368.195,166.125 368.573,166.328 369.036 C 166.664 369.800,166.992 369.889,169.876 369.989 C 171.624 370.049,173.216 370.260,173.412 370.456 C 173.910 370.954,210.169 370.938,210.477 370.440 C 210.604 370.234,211.972 370.065,213.517 370.065 C 216.465 370.065,217.774 369.659,217.774 368.743 C 217.774 368.382,218.161 368.195,218.909 368.195 C 220.647 368.195,223.386 365.234,223.386 363.355 C 223.386 362.930,223.563 362.582,223.780 362.582 C 224.504 362.582,225.257 360.011,225.257 357.542 C 225.257 355.711,225.387 355.098,225.775 355.098 C 227.112 355.098,227.335 319.667,226.006 318.529 C 225.408 318.017,225.257 317.425,225.257 315.595 C 225.257 313.043,224.678 310.945,223.974 310.945 C 223.720 310.945,223.288 310.524,223.012 310.009 C 222.737 309.495,222.316 309.074,222.077 309.074 C 221.838 309.074,221.417 308.653,221.141 308.138 C 220.866 307.624,220.507 307.203,220.344 307.203 C 219.962 307.203,217.025 304.156,217.025 303.760 C 217.025 303.596,205.740 303.461,191.947 303.461 L 166.869 303.461 166.443 304.397 M325.444 303.865 C 325.084 304.075,324.790 304.491,324.790 304.789 C 324.790 305.158,324.378 305.332,323.507 305.332 C 322.289 305.332,321.048 306.101,321.048 306.856 C 321.048 307.047,320.801 307.203,320.500 307.203 C 319.791 307.203,319.177 308.366,319.177 309.709 C 319.177 310.448,318.923 310.879,318.335 311.137 C 317.685 311.422,317.467 311.868,317.378 313.096 C 317.301 314.159,317.088 314.687,316.736 314.687 C 315.519 314.687,315.435 316.117,315.435 336.899 C 315.435 358.579,315.453 358.840,316.958 358.840 C 317.150 358.840,317.306 359.822,317.306 361.023 C 317.306 362.977,317.424 363.311,318.428 364.207 C 319.046 364.757,319.551 365.374,319.551 365.578 C 319.551 365.782,319.807 365.949,320.120 365.949 C 320.433 365.949,320.875 366.356,321.101 366.853 C 321.498 367.723,322.398 368.179,323.744 368.189 C 324.094 368.192,324.802 368.616,325.317 369.130 L 326.252 370.065 350.192 370.065 C 374.520 370.065,375.787 369.996,376.220 368.631 C 376.347 368.229,376.783 367.815,377.187 367.709 C 377.592 367.603,377.923 367.275,377.923 366.980 C 377.923 366.685,378.344 366.252,378.859 366.018 C 379.373 365.783,379.794 365.353,379.794 365.063 C 379.794 364.772,380.205 364.431,380.707 364.305 C 381.450 364.118,381.667 363.763,381.873 362.389 C 382.012 361.461,382.275 360.610,382.457 360.497 C 382.884 360.233,382.894 312.816,382.467 312.816 C 382.290 312.816,381.995 312.100,381.812 311.225 C 381.582 310.128,381.217 309.521,380.636 309.266 C 380.173 309.063,379.794 308.736,379.794 308.539 C 379.794 307.734,376.721 305.332,375.690 305.332 C 374.985 305.332,374.441 305.026,374.029 304.397 L 373.416 303.461 349.758 303.473 C 334.385 303.480,325.870 303.618,325.444 303.865 M202.548 325.191 C 202.659 325.618,203.100 326.059,203.527 326.171 C 204.201 326.347,204.303 326.662,204.303 328.566 C 204.303 330.492,204.417 330.834,205.239 331.372 C 206.636 332.288,206.720 342.246,205.332 342.444 C 204.575 342.551,204.479 342.801,204.378 344.918 C 204.279 347.001,204.161 347.321,203.349 347.691 C 202.845 347.921,202.432 348.334,202.432 348.610 C 202.432 348.972,201.823 349.111,200.245 349.111 C 198.533 349.111,197.911 349.274,197.381 349.860 C 196.767 350.538,196.228 350.608,191.606 350.608 C 186.937 350.608,186.462 350.545,185.968 349.860 C 185.649 349.417,185.000 349.111,184.379 349.111 C 183.634 349.111,182.841 348.623,181.645 347.428 C 180.719 346.501,179.798 345.744,179.597 345.744 C 179.371 345.744,179.233 342.405,179.233 336.950 C 179.233 329.329,179.309 328.157,179.802 328.157 C 180.115 328.157,180.563 327.736,180.798 327.222 C 181.032 326.707,181.453 326.286,181.733 326.286 C 182.013 326.286,182.434 325.865,182.669 325.351 L 183.095 324.415 192.720 324.415 C 202.145 324.415,202.349 324.431,202.548 325.191 M360.873 326.173 L 362.582 327.931 362.582 336.808 L 362.582 345.685 360.868 347.398 C 359.857 348.410,358.813 349.111,358.320 349.111 C 357.860 349.111,357.123 349.448,356.681 349.860 C 355.858 350.627,345.000 351.061,344.992 350.327 C 344.987 349.822,343.004 349.111,341.597 349.111 C 340.488 349.111,339.927 348.819,338.722 347.615 C 337.899 346.791,337.037 346.118,336.807 346.118 C 336.510 346.118,336.393 343.489,336.403 337.044 L 336.417 327.970 338.080 326.668 C 338.995 325.951,339.825 325.152,339.925 324.890 C 340.066 324.524,342.280 324.415,349.636 324.415 L 359.164 324.415 360.873 326.173 " stroke="none" fill="#047cfc" fill-rule="evenodd"></path><path id="path1" d="" stroke="none" fill="#087cfc" fill-rule="evenodd"></path></g></svg>