<?xml version="1.0" standalone="no"?>
<!DOCTYPE svg PUBLIC "-//W3C//DTD SVG 20010904//EN"
 "http://www.w3.org/TR/2001/REC-SVG-20010904/DTD/svg10.dtd">
<svg version="1.0" xmlns="http://www.w3.org/2000/svg"
 width="600.000000pt" height="600.000000pt" viewBox="0 0 600.000000 600.000000"
 preserveAspectRatio="xMidYMid meet">
<metadata>
Created by potrace 1.11, written by Peter Selinger 2001-2013
</metadata>
<g transform="translate(0.000000,600.000000) scale(0.100000,-0.100000)"
fill="#000000" stroke="none">
<path d="M3129 4938 c-1 -7 -1 -16 0 -20 0 -5 -4 -8 -11 -8 -6 0 -9 -3 -5 -6
3 -3 -3 -29 -12 -57 -10 -29 -19 -54 -19 -57 -3 -21 -23 -60 -32 -61 -12 -2
-20 -4 -40 -11 -29 -11 -114 -35 -130 -37 -5 0 -10 -7 -10 -14 0 -7 21 -19 48
-26 26 -7 54 -15 62 -18 8 -3 20 -7 25 -9 56 -13 79 -42 89 -109 1 -8 5 -18 9
-21 4 -4 7 -15 7 -25 0 -28 22 -70 34 -66 6 2 10 11 8 21 -2 9 1 16 5 16 5 0
10 12 11 26 1 15 6 32 11 38 5 6 10 14 10 19 1 4 1 8 2 10 4 12 10 44 11 54 1
7 5 10 9 8 4 -3 9 1 12 8 2 7 29 19 58 26 30 8 65 18 79 24 14 6 28 11 32 11
3 1 10 5 14 9 12 11 -16 27 -48 27 -16 0 -28 5 -28 10 0 6 -3 9 -7 8 -5 -2
-31 3 -59 11 -51 14 -51 14 -71 75 -12 34 -27 82 -34 109 -13 44 -28 62 -30
35z"/>
<path d="M1596 4928 c-3 -7 -10 -31 -17 -53 -7 -22 -13 -44 -14 -50 -1 -9 -5
-20 -25 -71 -5 -14 -24 -25 -57 -33 -26 -7 -57 -17 -68 -23 -18 -8 -44 -15
-67 -17 -20 -2 -6 -31 15 -31 13 0 27 -4 33 -9 5 -4 32 -14 59 -21 67 -17 95
-36 95 -64 0 -12 3 -26 7 -30 4 -4 9 -19 11 -34 2 -15 7 -31 13 -36 5 -6 9
-21 9 -34 0 -16 5 -22 16 -20 8 2 15 5 14 8 -1 3 4 19 10 35 7 17 14 39 16 50
2 11 9 31 15 45 28 62 26 60 99 81 25 7 49 16 55 21 5 4 19 8 30 8 12 0 25 3
28 7 13 12 -15 33 -44 33 -15 0 -31 5 -34 10 -3 6 -16 10 -27 10 -41 0 -98 32
-98 55 0 12 -3 25 -7 29 -4 3 -8 12 -9 19 -4 29 -37 118 -45 123 -5 3 -11 -1
-13 -8z"/>
<path d="M4240 4897 c-27 -8 -136 -111 -473 -447 -241 -239 -439 -436 -440
-435 -1 0 -34 -33 -73 -72 -39 -40 -69 -73 -68 -73 2 0 -26 -27 -61 -60 -35
-33 -62 -60 -59 -60 3 0 -16 -18 -41 -40 -25 -22 -44 -40 -41 -40 8 0 -44 -50
-52 -51 -4 0 -22 -18 -39 -41 -18 -22 -33 -38 -33 -36 0 3 -35 -30 -78 -71
-42 -42 -77 -78 -77 -81 1 -3 -12 -17 -27 -32 -15 -15 -28 -25 -28 -24 0 2
-97 -94 -215 -213 -118 -118 -215 -218 -215 -221 0 -4 -10 -12 -22 -19 -13 -7
-42 -35 -65 -62 -24 -28 -43 -48 -43 -46 0 7 -215 -212 -218 -223 -2 -5 -7
-10 -11 -10 -11 0 -161 -151 -161 -161 0 -5 -4 -9 -8 -9 -13 0 -91 -78 -84
-84 3 -3 1 -6 -5 -6 -11 0 -69 -54 -121 -114 -17 -20 -32 -35 -32 -32 0 2 -28
-23 -63 -57 -35 -34 -62 -64 -61 -67 1 -3 -15 -18 -36 -35 -21 -16 -44 -40
-51 -52 -7 -13 -16 -23 -21 -23 -11 0 -78 -69 -78 -81 0 -5 -6 -9 -12 -9 -7 0
-24 -17 -37 -38 -32 -48 -39 -139 -13 -168 77 -87 101 -111 106 -106 3 3 6 1
6 -4 0 -12 373 -385 409 -410 31 -22 92 -35 107 -24 6 6 14 7 17 4 11 -11 72
34 140 105 37 38 67 68 67 66 0 -1 20 18 45 43 25 24 45 49 45 54 0 5 5 6 10
3 6 -3 10 -2 10 3 0 5 29 38 65 74 36 35 65 63 65 60 0 -3 13 11 29 31 15 20
31 34 35 30 3 -3 6 1 6 10 0 9 7 17 16 17 8 0 12 5 9 10 -3 6 1 10 9 10 9 0
16 4 16 8 0 13 80 92 92 92 6 0 8 3 5 6 -4 4 10 20 30 35 20 16 33 29 30 29
-3 0 5 11 19 25 14 14 29 25 35 25 6 0 8 3 6 8 -5 9 30 42 37 34 3 -3 6 -1 6
5 0 13 78 92 85 85 3 -3 5 -1 5 5 0 5 504 514 1119 1130 616 616 1126 1133
1134 1149 21 43 14 106 -19 158 -15 24 -32 42 -36 40 -4 -3 -8 3 -8 12 0 10
-2 15 -5 12 -3 -3 -36 26 -73 64 -203 210 -378 381 -401 390 -39 14 -72 16
-111 5z m68 -373 c-4 -3 12 -22 34 -42 41 -37 150 -145 184 -183 17 -19 8 -28
-330 -364 -191 -190 -350 -345 -354 -345 -13 1 -52 38 -52 49 0 6 -4 11 -8 11
-10 0 -192 176 -192 185 0 16 687 694 704 694 11 1 17 -2 14 -5z"/>
<path d="M2351 4748 c-7 -24 -26 -88 -44 -143 -17 -55 -30 -104 -29 -109 2 -4
-3 -14 -9 -22 -6 -8 -8 -14 -5 -14 4 0 2 -8 -3 -18 -6 -11 -12 -31 -15 -46 -7
-40 -21 -52 -74 -67 -64 -17 -62 -16 -64 -19 -2 -1 -11 -3 -21 -5 -10 -2 -26
-7 -35 -11 -20 -8 -29 -11 -60 -18 -12 -3 -28 -8 -35 -13 -6 -4 -17 -8 -24 -9
-13 -2 -80 -23 -103 -31 -8 -4 -18 -7 -22 -7 -42 -5 74 -53 192 -81 8 -2 16
-4 18 -5 1 -2 5 -3 10 -4 4 -1 13 -5 20 -9 6 -5 12 -6 12 -2 0 3 16 -1 35 -9
19 -8 35 -13 35 -10 0 2 15 -2 34 -10 19 -8 36 -12 39 -10 7 7 38 -33 42 -56
5 -24 22 -85 32 -110 4 -8 7 -18 8 -22 2 -5 3 -9 4 -10 2 -2 4 -14 7 -28 4
-23 10 -44 30 -95 10 -28 10 -25 19 -70 5 -22 8 -43 7 -47 -3 -14 28 -9 32 5
3 6 18 58 36 114 17 55 32 107 34 115 1 7 9 28 18 46 9 17 13 32 8 32 -5 0 -2
12 6 28 7 15 14 34 14 42 1 19 38 65 47 57 3 -3 21 0 41 8 34 15 74 26 100 27
6 1 12 5 12 10 0 5 4 7 9 3 5 -3 12 -1 16 4 3 5 13 10 23 10 37 1 52 5 52 12
0 6 42 18 83 22 9 1 17 4 17 7 0 3 10 6 21 7 26 2 36 11 23 22 -5 5 -49 20
-99 35 -49 15 -98 31 -107 36 -9 5 -31 12 -49 15 -17 3 -40 10 -50 16 -11 5
-19 6 -19 2 0 -4 -5 -2 -12 5 -7 7 -21 12 -33 12 -43 0 -63 28 -95 133 -17 56
-34 109 -37 117 -3 8 -8 21 -10 28 -1 6 -5 18 -6 25 -2 6 -7 19 -10 27 -3 8
-13 41 -22 73 -9 31 -20 57 -24 57 -4 0 -13 -19 -20 -42z"/>
<path d="M4639 3339 c-13 -41 -24 -76 -24 -79 -11 -42 -19 -59 -25 -55 -5 3
-11 1 -14 -4 -3 -5 -22 -12 -41 -15 -19 -4 -35 -11 -35 -15 0 -5 -11 -7 -25
-6 -14 2 -25 0 -25 -5 0 -4 -15 -11 -32 -14 -29 -6 -31 -8 -15 -17 10 -6 54
-21 99 -34 44 -13 86 -29 92 -37 7 -7 24 -52 40 -100 29 -94 41 -112 51 -76 3
13 17 60 32 105 l27 81 45 13 c146 38 187 61 125 72 -44 7 -163 49 -171 60 -5
7 -20 48 -33 92 -35 118 -43 122 -71 34z"/>
</g>
</svg>
