<?xml version="1.0" standalone="no"?>
<!DOCTYPE svg PUBLIC "-//W3C//DTD SVG 20010904//EN"
 "http://www.w3.org/TR/2001/REC-SVG-20010904/DTD/svg10.dtd">
<svg version="1.0" xmlns="http://www.w3.org/2000/svg"
 width="300.000000pt" height="300.000000pt" viewBox="0 0 300.000000 300.000000"
 preserveAspectRatio="xMidYMid meet">
<metadata>
Created by potrace 1.11, written by Peter Selinger 2001-2013
</metadata>
<g transform="translate(0.000000,300.000000) scale(0.100000,-0.100000)"
fill="#000000" stroke="none">
<path d="M1340 2462 c-19 -9 -37 -20 -38 -25 -2 -4 -8 -5 -13 -1 -5 3 -12 -2
-15 -10 -3 -9 -11 -13 -17 -9 -6 4 -8 0 -4 -10 4 -11 2 -14 -8 -10 -8 3 -18
-2 -21 -11 -3 -9 -12 -16 -20 -16 -8 0 -19 -9 -26 -20 -7 -11 -17 -20 -23 -20
-19 0 -85 -61 -79 -72 4 -6 2 -8 -3 -5 -6 4 -33 -11 -61 -33 -27 -22 -52 -40
-55 -40 -4 0 -17 -10 -30 -22 -13 -13 -41 -36 -62 -53 -21 -16 -44 -36 -51
-42 -7 -7 -15 -13 -19 -13 -19 0 -120 -102 -136 -137 -7 -18 -17 -33 -21 -33
-5 0 -8 -27 -8 -60 0 -37 4 -60 11 -60 6 0 9 -6 6 -14 -6 -15 27 -48 39 -38 4
4 4 2 1 -4 -6 -11 43 -61 117 -119 21 -16 46 -37 56 -45 10 -8 28 -22 39 -30
24 -17 28 -40 7 -40 -8 0 -21 -8 -28 -17 -7 -10 -33 -31 -57 -48 -24 -16 -45
-35 -48 -42 -3 -7 -11 -13 -17 -13 -19 0 -103 -93 -98 -108 2 -6 -1 -12 -8
-12 -6 0 -8 -4 -5 -10 3 -5 1 -10 -4 -10 -7 0 -11 -24 -11 -60 0 -36 4 -60 11
-60 6 0 9 -5 7 -12 -4 -11 115 -138 130 -138 3 0 16 -11 27 -24 20 -23 25 -26
47 -26 6 0 9 -3 5 -6 -6 -6 3 -14 100 -83 26 -19 53 -40 58 -46 6 -7 33 -29
60 -51 28 -21 53 -43 57 -49 4 -5 8 -6 8 -1 0 4 9 -2 20 -15 10 -13 19 -21 20
-17 0 7 25 -13 80 -64 10 -9 21 -14 24 -10 3 3 6 0 6 -6 0 -6 6 -9 14 -6 7 3
21 -3 31 -12 9 -10 24 -18 34 -19 9 -1 24 -6 34 -10 10 -4 55 -5 100 -1 45 4
90 7 99 7 9 0 19 7 22 15 3 9 10 12 16 9 5 -3 10 -1 10 4 0 6 5 11 11 11 7 0
19 9 28 19 9 10 35 29 57 40 22 12 53 35 69 51 16 17 35 30 42 30 8 0 27 16
44 35 37 41 113 95 136 95 9 0 14 3 11 6 -8 7 57 74 71 74 6 0 11 4 11 8 0 4
13 15 29 25 43 25 141 119 135 128 -3 5 0 9 6 9 6 0 8 5 5 10 -3 6 -1 10 5 10
6 0 8 5 5 10 -3 6 -1 10 4 10 6 0 11 21 11 50 0 29 -5 50 -11 50 -5 0 -7 5 -4
10 14 23 -77 119 -203 216 l-72 56 27 33 c16 19 33 34 40 34 6 1 18 9 25 20 7
10 15 18 18 18 13 -3 68 47 63 56 -3 6 -1 7 4 4 14 -9 93 80 93 104 0 10 5 19
10 19 13 0 13 97 0 105 -6 4 -8 10 -5 15 10 16 -196 211 -245 234 -11 5 -20
13 -20 18 0 4 -5 8 -10 8 -6 0 -21 10 -34 23 -12 12 -35 31 -51 42 -15 11 -37
28 -47 38 -10 10 -23 15 -28 12 -6 -3 -7 1 -4 10 4 9 3 15 -2 13 -9 -3 -32 13
-139 99 -29 23 -55 39 -59 36 -3 -4 -6 -1 -6 5 0 6 -15 18 -32 28 -50 26 -250
30 -298 6z"/>
</g>
</svg>
