<?xml version="1.0" encoding="iso-8859-1"?>
<!-- Generator: Adobe Illustrator 21.1.0, SVG Export Plug-In . SVG Version: 6.00 Build 0)  -->
<svg version="1.1" id="Layer_1" xmlns="http://www.w3.org/2000/svg" xmlns:xlink="http://www.w3.org/1999/xlink" x="0px" y="0px"
	 viewBox="0 0 30 30" style="enable-background:new 0 0 30 30;" xml:space="preserve">
<path fill="#8c99b3" d="M19.71,26h-9.42c-1.019,0-1.875-0.766-1.988-1.779L6.5,8h17l-1.802,16.221C21.585,25.234,20.729,26,19.71,26z"/>
<path fill="#8c99b3" d="M24,6H6C5.448,6,5,5.552,5,5v0c0-0.552,0.448-1,1-1h18c0.552,0,1,0.448,1,1v0C25,5.552,24.552,6,24,6z"/>
<path fill="#8c99b3" d="M18,5h-6V4c0-0.552,0.448-1,1-1h4c0.552,0,1,0.448,1,1V5z"/>
</svg>
