<?xml version="1.0" encoding="iso-8859-1"?>
<!-- Generator: Adobe Illustrator 21.1.0, SVG Export Plug-In . SVG Version: 6.00 Build 0)  -->
<svg version="1.1" id="Layer_1" xmlns="http://www.w3.org/2000/svg" xmlns:xlink="http://www.w3.org/1999/xlink" x="0px" y="0px"
	 viewBox="0 0 30 30" style="enable-background:new 0 0 30 30;" xml:space="preserve">
<circle fill="#ffffff" cx="26" cy="24" r="2"/>
<path fill="#ffffff" d="M17,5c0,1.105-0.895,1-2,1s-2,0.105-2-1s0.895-2,2-2S17,3.895,17,5z"/>
<circle fill="#ffffff" cx="4" cy="24" r="2"/>
<path fill="#ffffff" d="M16.836,4.21L15,4l-1.836,0.21L2.3,22.948L4.144,26H15h10.856l1.844-3.052L16.836,4.21z M16.212,11.36l-0.2,6.473h-2.024
	l-0.2-6.473H16.212z M15.003,22.189c-0.828,0-1.323-0.441-1.323-1.182c0-0.755,0.494-1.196,1.323-1.196
	c0.822,0,1.316,0.441,1.316,1.196C16.319,21.748,15.825,22.189,15.003,22.189z"/>
</svg>
